<svg id="my-svg" width="100%" xmlns="http://www.w3.org/2000/svg" xmlns:xlink="http://www.w3.org/1999/xlink" class="classDiagram" style="max-width: 1080.62px; background-color: white;" viewBox="0 0 1080.619140625 710" role="graphics-document document" aria-roledescription="classDiagram"><style>#my-svg{font-family:Segoe UI,Calibri,sans-serif;font-size:15px;fill:#000000;}@keyframes edge-animation-frame{from{stroke-dashoffset:0;}}@keyframes dash{to{stroke-dashoffset:0;}}#my-svg .edge-animation-slow{stroke-dasharray:9,5!important;stroke-dashoffset:900;animation:dash 50s linear infinite;stroke-linecap:round;}#my-svg .edge-animation-fast{stroke-dasharray:9,5!important;stroke-dashoffset:900;animation:dash 20s linear infinite;stroke-linecap:round;}#my-svg .error-icon{fill:#552222;}#my-svg .error-text{fill:#552222;stroke:#552222;}#my-svg .edge-thickness-normal{stroke-width:1px;}#my-svg .edge-thickness-thick{stroke-width:3.5px;}#my-svg .edge-pattern-solid{stroke-dasharray:0;}#my-svg .edge-thickness-invisible{stroke-width:0;fill:none;}#my-svg .edge-pattern-dashed{stroke-dasharray:3;}#my-svg .edge-pattern-dotted{stroke-dasharray:2;}#my-svg .marker{fill:#666;stroke:#666;}#my-svg .marker.cross{stroke:#666;}#my-svg svg{font-family:Segoe UI,Calibri,sans-serif;font-size:15px;}#my-svg p{margin:0;}#my-svg g.classGroup text{fill:#999;stroke:none;font-family:Segoe UI,Calibri,sans-serif;font-size:10px;}#my-svg g.classGroup text .title{font-weight:bolder;}#my-svg .cluster-label text{fill:#333;}#my-svg .cluster-label span{color:#333;}#my-svg .cluster-label span p{background-color:transparent;}#my-svg .cluster rect{fill:hsl(0, 0%, 98.9215686275%);stroke:#707070;stroke-width:1px;}#my-svg .cluster text{fill:#333;}#my-svg .cluster span{color:#333;}#my-svg .nodeLabel,#my-svg .edgeLabel{color:#111111;}#my-svg .noteLabel .nodeLabel,#my-svg .noteLabel .edgeLabel{color:#fff;}#my-svg .edgeLabel .label rect{fill:#eee;}#my-svg .label text{fill:#111111;}#my-svg .labelBkg{background:#eee;}#my-svg .edgeLabel .label span{background:#eee;}#my-svg .classTitle{font-weight:bolder;}#my-svg .node rect,#my-svg .node circle,#my-svg .node ellipse,#my-svg .node polygon,#my-svg .node path{fill:#eee;stroke:#999;stroke-width:1;}#my-svg .divider{stroke:#999;stroke-width:1;}#my-svg g.clickable{cursor:pointer;}#my-svg g.classGroup rect{fill:#eee;stroke:#999;}#my-svg g.classGroup line{stroke:#999;stroke-width:1;}#my-svg .classLabel .box{stroke:none;stroke-width:0;fill:#eee;opacity:0.5;}#my-svg .classLabel .label{fill:#999;font-size:10px;}#my-svg .relation{stroke:#666;stroke-width:1;fill:none;}#my-svg .dashed-line{stroke-dasharray:3;}#my-svg .dotted-line{stroke-dasharray:1 2;}#my-svg [id$="-compositionStart"],#my-svg .composition{fill:#666!important;stroke:#666!important;stroke-width:1;}#my-svg [id$="-compositionEnd"],#my-svg .composition{fill:#666!important;stroke:#666!important;stroke-width:1;}#my-svg [id$="-dependencyStart"],#my-svg .dependency{fill:#666!important;stroke:#666!important;stroke-width:1;}#my-svg [id$="-dependencyEnd"],#my-svg .dependency{fill:#666!important;stroke:#666!important;stroke-width:1;}#my-svg [id$="-extensionStart"],#my-svg .extension{fill:transparent!important;stroke:#666!important;stroke-width:1;}#my-svg [id$="-extensionEnd"],#my-svg .extension{fill:transparent!important;stroke:#666!important;stroke-width:1;}#my-svg [id$="-aggregationStart"],#my-svg .aggregation{fill:transparent!important;stroke:#666!important;stroke-width:1;}#my-svg [id$="-aggregationEnd"],#my-svg .aggregation{fill:transparent!important;stroke:#666!important;stroke-width:1;}#my-svg [id$="-lollipopStart"],#my-svg .lollipop{fill:#eee!important;stroke:#666!important;stroke-width:1;}#my-svg [id$="-lollipopEnd"],#my-svg .lollipop{fill:#eee!important;stroke:#666!important;stroke-width:1;}#my-svg .edgeTerminals{font-size:11px;line-height:initial;}#my-svg .classTitleText{text-anchor:middle;font-size:18px;fill:#000000;}#my-svg .edgeLabel[data-look="neo"]{background-color:white;text-align:center;}#my-svg .edgeLabel[data-look="neo"] p{background-color:white;}#my-svg .edgeLabel[data-look="neo"] rect{opacity:0.5;background-color:white;fill:white;}#my-svg .label-icon{display:inline-block;height:1em;overflow:visible;vertical-align:-0.125em;}#my-svg .node .label-icon path{fill:currentColor;stroke:revert;stroke-width:revert;}#my-svg .node .neo-node{stroke:#999;}#my-svg [data-look="neo"].node rect,#my-svg [data-look="neo"].cluster rect,#my-svg [data-look="neo"].node polygon{stroke:url(#my-svg-gradient);filter:drop-shadow( 1px 2px 2px rgba(185,185,185,1));}#my-svg [data-look="neo"].swimlane.cluster rect{filter:none;}#my-svg [data-look="neo"].node path{stroke:url(#my-svg-gradient);stroke-width:1px;}#my-svg [data-look="neo"].node .outer-path{filter:drop-shadow( 1px 2px 2px rgba(185,185,185,1));}#my-svg [data-look="neo"].node .neo-line path{stroke:#999;filter:none;}#my-svg [data-look="neo"].node circle{stroke:url(#my-svg-gradient);filter:drop-shadow( 1px 2px 2px rgba(185,185,185,1));}#my-svg [data-look="neo"].node circle .state-start{fill:#000000;}#my-svg [data-look="neo"].icon-shape .icon{fill:url(#my-svg-gradient);filter:drop-shadow( 1px 2px 2px rgba(185,185,185,1));}#my-svg [data-look="neo"].icon-shape .icon-neo path{stroke:url(#my-svg-gradient);filter:drop-shadow( 1px 2px 2px rgba(185,185,185,1));}#my-svg :root{--mermaid-font-family:"trebuchet ms",verdana,arial,sans-serif;}</style><g><defs><marker id="my-svg_classDiagram-aggregationStart" class="marker aggregation classDiagram" refX="18" refY="7" markerWidth="190" markerHeight="240" orient="auto" markerUnits="userSpaceOnUse"><path d="M 18,7 L9,13 L1,7 L9,1 Z"/></marker></defs><defs><marker id="my-svg_classDiagram-aggregationEnd" class="marker aggregation classDiagram" refX="1" refY="7" markerWidth="20" markerHeight="28" orient="auto" markerUnits="userSpaceOnUse"><path d="M 18,7 L9,13 L1,7 L9,1 Z"/></marker></defs><defs><marker id="my-svg_classDiagram-aggregationStart-margin" class="marker aggregation classDiagram" refX="15" refY="7" markerWidth="190" markerHeight="240" orient="auto" markerUnits="userSpaceOnUse"><path d="M 18,7 L9,13 L1,7 L9,1 Z" style="stroke-width: 2;"/></marker></defs><defs><marker id="my-svg_classDiagram-aggregationEnd-margin" class="marker aggregation classDiagram" refX="1" refY="7" markerWidth="20" markerHeight="28" orient="auto" markerUnits="userSpaceOnUse"><path d="M 18,7 L9,13 L1,7 L9,1 Z" style="stroke-width: 2;"/></marker></defs><defs><marker id="my-svg_classDiagram-extensionStart" class="marker extension classDiagram" refX="18" refY="7" markerWidth="20" markerHeight="28" orient="auto" markerUnits="userSpaceOnUse"><path d="M 1,7 L18,13 V 1 Z"/></marker></defs><defs><marker id="my-svg_classDiagram-extensionEnd" class="marker extension classDiagram" refX="1" refY="7" markerWidth="20" markerHeight="28" orient="auto" markerUnits="userSpaceOnUse"><path d="M 1,1 V 13 L18,7 Z"/></marker></defs><marker id="my-svg_classDiagram-extensionStart-margin" class="marker extension classDiagram" refX="18" refY="7" markerWidth="20" markerHeight="28" orient="auto" markerUnits="userSpaceOnUse" viewBox="0 0 20 14"><polygon points="10,7 18,13 18,1" style="stroke-width: 2; stroke-dasharray: 0;"/></marker><defs><marker id="my-svg_classDiagram-extensionEnd-margin" class="marker extension classDiagram" refX="9" refY="7" markerWidth="20" markerHeight="28" orient="auto" markerUnits="userSpaceOnUse" viewBox="0 0 20 14"><polygon points="10,1 10,13 18,7" style="stroke-width: 2; stroke-dasharray: 0;"/></marker></defs><defs><marker id="my-svg_classDiagram-compositionStart" class="marker composition classDiagram" refX="18" refY="7" markerWidth="190" markerHeight="240" orient="auto" markerUnits="userSpaceOnUse"><path d="M 18,7 L9,13 L1,7 L9,1 Z"/></marker></defs><defs><marker id="my-svg_classDiagram-compositionEnd" class="marker composition classDiagram" refX="1" refY="7" markerWidth="20" markerHeight="28" orient="auto" markerUnits="userSpaceOnUse"><path d="M 18,7 L9,13 L1,7 L9,1 Z"/></marker></defs><defs><marker id="my-svg_classDiagram-compositionStart-margin" class="marker composition classDiagram" refX="15" refY="7" markerWidth="190" markerHeight="240" orient="auto" markerUnits="userSpaceOnUse"><path viewBox="0 0 15 15" d="M 18,7 L9,13 L1,7 L9,1 Z" style="stroke-width: 0;"/></marker></defs><defs><marker id="my-svg_classDiagram-compositionEnd-margin" class="marker composition classDiagram" refX="3.5" refY="7" markerWidth="20" markerHeight="28" orient="auto" markerUnits="userSpaceOnUse"><path d="M 18,7 L9,13 L1,7 L9,1 Z" style="stroke-width: 0;"/></marker></defs><defs><marker id="my-svg_classDiagram-dependencyStart" class="marker dependency classDiagram" refX="6" refY="7" markerWidth="190" markerHeight="240" orient="auto" markerUnits="userSpaceOnUse"><path d="M 5,7 L9,13 L1,7 L9,1 Z"/></marker></defs><defs><marker id="my-svg_classDiagram-dependencyEnd" class="marker dependency classDiagram" refX="13" refY="7" markerWidth="20" markerHeight="28" orient="auto" markerUnits="userSpaceOnUse"><path d="M 18,7 L9,13 L14,7 L9,1 Z"/></marker></defs><defs><marker id="my-svg_classDiagram-dependencyStart-margin" class="marker dependency classDiagram" refX="4" refY="7" markerWidth="190" markerHeight="240" orient="auto" markerUnits="userSpaceOnUse"><path d="M 5,7 L9,13 L1,7 L9,1 Z" style="stroke-width: 0;"/></marker></defs><defs><marker id="my-svg_classDiagram-dependencyEnd-margin" class="marker dependency classDiagram" refX="16" refY="7" markerWidth="20" markerHeight="28" orient="auto" markerUnits="userSpaceOnUse"><path d="M 18,7 L9,13 L14,7 L9,1 Z" style="stroke-width: 0;"/></marker></defs><defs><marker id="my-svg_classDiagram-lollipopStart" class="marker lollipop classDiagram" refX="13" refY="7" markerWidth="190" markerHeight="240" orient="auto" markerUnits="userSpaceOnUse"><circle fill="transparent" cx="7" cy="7" r="6"/></marker></defs><defs><marker id="my-svg_classDiagram-lollipopEnd" class="marker lollipop classDiagram" refX="1" refY="7" markerWidth="190" markerHeight="240" orient="auto" markerUnits="userSpaceOnUse"><circle fill="transparent" cx="7" cy="7" r="6"/></marker></defs><defs><marker id="my-svg_classDiagram-lollipopStart-margin" class="marker lollipop classDiagram" refX="13" refY="7" markerWidth="190" markerHeight="240" orient="auto" markerUnits="userSpaceOnUse"><circle fill="transparent" cx="7" cy="7" r="6" stroke-width="2"/></marker></defs><defs><marker id="my-svg_classDiagram-lollipopEnd-margin" class="marker lollipop classDiagram" refX="1" refY="7" markerWidth="190" markerHeight="240" orient="auto" markerUnits="userSpaceOnUse"><circle fill="transparent" cx="7" cy="7" r="6" stroke-width="2"/></marker></defs><g class="root"><g class="clusters"/><g class="edgePaths"><path d="M604.748,176L604.748,182.042C604.748,188.083,604.748,200.167,604.748,211.25C604.748,222.333,604.748,232.417,604.748,237.458L604.748,242.5" id="my-svg-id_Interface_API_1" class="edge-thickness-normal edge-pattern-solid relation" style=";;;" data-edge="true" data-et="edge" data-id="id_Interface_API_1" data-points="W3sieCI6NjA0Ljc0ODA0Njg3NSwieSI6MTc2fSx7IngiOjYwNC43NDgwNDY4NzUsInkiOjIxMi4yNX0seyJ4Ijo2MDQuNzQ4MDQ2ODc1LCJ5IjoyNDguNX1d" data-look="classic" marker-end="url(#my-svg_classDiagram-dependencyEnd)"/><path d="M507.1,382.198L437.955,401.456C368.81,420.715,230.52,459.233,161.375,485.908C92.23,512.583,92.23,527.417,92.23,534.833L92.23,542.25" id="my-svg-id_API_Dominio_2" class="edge-thickness-normal edge-pattern-solid relation" style=";;;" data-edge="true" data-et="edge" data-id="id_API_Dominio_2" data-points="W3sieCI6NTA3LjA5OTYwOTM3NSwieSI6MzgyLjE5NzcyOTQ5ODYwNzE1fSx7IngiOjkyLjIzMDQ2ODc1LCJ5Ijo0OTcuNzV9LHsieCI6OTIuMjMwNDY4NzUsInkiOjU0OC4yNX1d" data-look="classic" marker-end="url(#my-svg_classDiagram-dependencyEnd)"/><path d="M507.1,396.929L467.965,413.732C428.831,430.536,350.563,464.143,316.617,488.055C282.67,511.968,293.045,526.186,298.233,533.294L303.42,540.403" id="my-svg-id_API_Nucleo_3" class="edge-thickness-normal edge-pattern-solid relation" style=";;;" data-edge="true" data-et="edge" data-id="id_API_Nucleo_3" data-points="W3sieCI6NTA3LjA5OTYwOTM3NSwieSI6Mzk2LjkyODY2MTIzMDQzNjZ9LHsieCI6MjcyLjI5NDkyMTg3NSwieSI6NDk3Ljc1fSx7IngiOjMwNi45NTcwODQwMzcxNjIyLCJ5Ijo1NDUuMjV9XQ==" data-look="classic" marker-end="url(#my-svg_classDiagram-dependencyEnd)"/><path d="M604.748,461.5L604.748,467.542C604.748,473.583,604.748,485.667,608.176,496.915C611.604,508.163,618.46,518.576,621.887,523.782L625.315,528.989" id="my-svg-id_API_Modelo_4" class="edge-thickness-normal edge-pattern-solid relation" style=";;;" data-edge="true" data-et="edge" data-id="id_API_Modelo_4" data-points="W3sieCI6NjA0Ljc0ODA0Njg3NSwieSI6NDYxLjV9LHsieCI6NjA0Ljc0ODA0Njg3NSwieSI6NDk3Ljc1fSx7IngiOjYyOC42MTQ4MjgzMTk5MDY1LCJ5Ijo1MzR9XQ==" data-look="classic" marker-end="url(#my-svg_classDiagram-dependencyEnd)"/><path d="M702.396,397.017L741.415,413.805C780.433,430.594,858.469,464.172,900.316,487.951C942.162,511.729,947.818,525.709,950.646,532.698L953.474,539.688" id="my-svg-id_API_Assistente_5" class="edge-thickness-normal edge-pattern-solid relation" style=";;;" data-edge="true" data-et="edge" data-id="id_API_Assistente_5" data-points="W3sieCI6NzAyLjM5NjQ4NDM3NSwieSI6Mzk3LjAxNjUzNzE0ODIzOTd9LHsieCI6OTM2LjUwNTg1OTM3NSwieSI6NDk3Ljc1fSx7IngiOjk1NS43MjQwNDA4OTc4NjksInkiOjU0NS4yNX1d" data-look="classic" marker-end="url(#my-svg_classDiagram-dependencyEnd)"/><path d="M413.133,545.25L418.91,537.333C424.687,529.417,436.241,513.583,451.162,497.35C466.084,481.116,484.372,464.483,493.517,456.166L502.661,447.849" id="my-svg-id_Nucleo_API_6" class="edge-thickness-normal edge-pattern-solid relation" style=";;;" data-edge="true" data-et="edge" data-id="id_Nucleo_API_6" data-points="W3sieCI6NDEzLjEzMjc1OTcxMjgzNzgsInkiOjU0NS4yNX0seyJ4Ijo0NDcuNzk0OTIxODc1LCJ5Ijo0OTcuNzV9LHsieCI6NTA3LjA5OTYwOTM3NSwieSI6NDQzLjgxMTk1ODY4NTkxMzR9XQ==" data-look="classic" marker-end="url(#my-svg_classDiagram-dependencyEnd)"/><path d="M739.225,534L743.203,527.958C747.181,521.917,755.136,509.833,749.741,495.342C744.345,480.85,725.599,463.95,716.226,455.5L706.853,447.05" id="my-svg-id_Modelo_API_7" class="edge-thickness-normal edge-pattern-solid relation" style=";;;" data-edge="true" data-et="edge" data-id="id_Modelo_API_7" data-points="W3sieCI6NzM5LjIyNTAxNTQzMDA5MzUsInkiOjUzNH0seyJ4Ijo3NjMuMDkxNzk2ODc1LCJ5Ijo0OTcuNzV9LHsieCI6NzAyLjM5NjQ4NDM3NSwieSI6NDQzLjAzMTk4MzkxNTUzMTl9XQ==" data-look="classic" marker-end="url(#my-svg_classDiagram-dependencyEnd)"/><path d="M1014.592,545.25L1017.795,537.333C1020.998,529.417,1027.404,513.583,976.321,487.605C925.237,461.627,816.663,425.505,762.376,407.443L708.09,389.382" id="my-svg-id_Assistente_API_8" class="edge-thickness-normal edge-pattern-solid relation" style=";;;" data-edge="true" data-et="edge" data-id="id_Assistente_API_8" data-points="W3sieCI6MTAxNC41OTIzNjUzNTIxMzEsInkiOjU0NS4yNX0seyJ4IjoxMDMzLjgxMDU0Njg3NSwieSI6NDk3Ljc1fSx7IngiOjcwMi4zOTY0ODQzNzUsInkiOjM4Ny40ODc4NDE0MDU2ODA5N31d" data-look="classic" marker-end="url(#my-svg_classDiagram-dependencyEnd)"/></g><g class="edgeLabels"><g class="edgeLabel" transform="translate(604.748046875, 212.25)"><g class="label" data-id="id_Interface_API_1" transform="translate(-31.21875, -11.25)"><foreignObject width="62.4375" height="22.5"><div xmlns="http://www.w3.org/1999/xhtml" class="labelBkg" style="display: table-cell; white-space: nowrap; line-height: 1.5; max-width: 200px; text-align: center;"><span class="edgeLabel"><p>REST /api</p></span></div></foreignObject></g></g><g class="edgeLabel" transform="translate(92.23046875, 497.75)"><g class="label" data-id="id_API_Dominio_2" transform="translate(-32.0234375, -11.25)"><foreignObject width="64.046875" height="22.5"><div xmlns="http://www.w3.org/1999/xhtml" class="labelBkg" style="display: table-cell; white-space: nowrap; line-height: 1.5; max-width: 200px; text-align: center;"><span class="edgeLabel"><p>lê e grava</p></span></div></foreignObject></g></g><g class="edgeLabel" transform="translate(362.68128, 458.93956)"><g class="label" data-id="id_API_Nucleo_3" transform="translate(-63.9375, -11.25)"><foreignObject width="127.875" height="22.5"><div xmlns="http://www.w3.org/1999/xhtml" class="labelBkg" style="display: table-cell; white-space: nowrap; line-height: 1.5; max-width: 200px; text-align: center;"><span class="edgeLabel"><p>cenário e restrições</p></span></div></foreignObject></g></g><g class="edgeLabel" transform="translate(604.748046875, 497.75)"><g class="label" data-id="id_API_Modelo_4" transform="translate(-45.390625, -11.25)"><foreignObject width="90.78125" height="22.5"><div xmlns="http://www.w3.org/1999/xhtml" class="labelBkg" style="display: table-cell; white-space: nowrap; line-height: 1.5; max-width: 200px; text-align: center;"><span class="edgeLabel"><p>série histórica</p></span></div></foreignObject></g></g><g class="edgeLabel" transform="translate(842.98528, 457.50961)"><g class="label" data-id="id_API_Assistente_5" transform="translate(-60.4609375, -11.25)"><foreignObject width="120.921875" height="22.5"><div xmlns="http://www.w3.org/1999/xhtml" class="labelBkg" style="display: table-cell; white-space: nowrap; line-height: 1.5; max-width: 200px; text-align: center;"><span class="edgeLabel"><p>fatos já calculados</p></span></div></foreignObject></g></g><g class="edgeLabel" transform="translate(447.794921875, 497.75)"><g class="label" data-id="id_Nucleo_API_6" transform="translate(-91.5625, -11.25)"><foreignObject width="183.125" height="22.5"><div xmlns="http://www.w3.org/1999/xhtml" class="labelBkg" style="display: table-cell; white-space: nowrap; line-height: 1.5; max-width: 200px; text-align: center;"><span class="edgeLabel"><p>plano e tempo de execução</p></span></div></foreignObject></g></g><g class="edgeLabel" transform="translate(748.86198, 484.92154)"><g class="label" data-id="id_Modelo_API_7" transform="translate(-92.953125, -11.25)"><foreignObject width="185.90625" height="22.5"><div xmlns="http://www.w3.org/1999/xhtml" class="labelBkg" style="display: table-cell; white-space: nowrap; line-height: 1.5; max-width: 200px; text-align: center;"><span class="edgeLabel"><p>faturamento previsto e risco</p></span></div></foreignObject></g></g><g class="edgeLabel" transform="translate(892.41362, 450.70694)"><g class="label" data-id="id_Assistente_API_8" transform="translate(-16.84375, -11.25)"><foreignObject width="33.6875" height="22.5"><div xmlns="http://www.w3.org/1999/xhtml" class="labelBkg" style="display: table-cell; white-space: nowrap; line-height: 1.5; max-width: 200px; text-align: center;"><span class="edgeLabel"><p>texto</p></span></div></foreignObject></g></g></g><g class="nodes"><g class="node default" id="my-svg-classId-Interface-0" data-look="classic" transform="translate(604.748046875, 92)"><g class="basic label-container outer-path"><path d="M-68.1171875 -84 L68.1171875 -84 L68.1171875 84 L-68.1171875 84" stroke="none" stroke-width="0" fill="#eee" style=""/><path d="M-68.1171875 -84 C-18.09243045827693 -84, 31.93232658344614 -84, 68.1171875 -84 M-68.1171875 -84 C-17.92203462097804 -84, 32.27311825804392 -84, 68.1171875 -84 M68.1171875 -84 C68.1171875 -38.149086935593935, 68.1171875 7.7018261288121295, 68.1171875 84 M68.1171875 -84 C68.1171875 -34.84893283904899, 68.1171875 14.302134321902017, 68.1171875 84 M68.1171875 84 C25.23273563175784 84, -17.65171623648432 84, -68.1171875 84 M68.1171875 84 C40.78333382352993 84, 13.449480147059852 84, -68.1171875 84 M-68.1171875 84 C-68.1171875 41.070891632074115, -68.1171875 -1.8582167358517694, -68.1171875 -84 M-68.1171875 84 C-68.1171875 46.93302209860027, -68.1171875 9.866044197200537, -68.1171875 -84" stroke="#999" stroke-width="1.3" fill="none" stroke-dasharray="0 0" style=""/></g><g class="annotation-group text" transform="translate(-47.78125, -60)"><g class="label" style="" transform="translate(0,-11.25)"><foreignObject width="95.5625" height="22.5"><div xmlns="http://www.w3.org/1999/xhtml" style="display: table-cell; white-space: nowrap; line-height: 1.5; max-width: 146px; text-align: center;"><span class="nodeLabel markdown-node-label" style=""><p>«React + Vite»</p></span></div></foreignObject></g></g><g class="label-group text" transform="translate(-31.6015625, -37.5)"><g class="label" style="font-weight: bolder" transform="translate(0,-11.25)"><foreignObject width="63.203125" height="22.5"><div xmlns="http://www.w3.org/1999/xhtml" style="display: table-cell; white-space: nowrap; line-height: 1.5; max-width: 107px; text-align: center;"><span class="nodeLabel markdown-node-label" style=""><p>Interface</p></span></div></foreignObject></g></g><g class="members-group text" transform="translate(-56.1171875, 9)"/><g class="methods-group text" transform="translate(-56.1171875, 39)"><g class="label" style="" transform="translate(0,-11.25)"><foreignObject width="55.34375" height="22.5"><div xmlns="http://www.w3.org/1999/xhtml" style="display: table-cell; white-space: nowrap; line-height: 1.5; max-width: 112px; text-align: center;"><span class="nodeLabel markdown-node-label" style=""><p>+exibir()</p></span></div></foreignObject></g><g class="label" style="" transform="translate(0,11.25)"><foreignObject width="64.453125" height="22.5"><div xmlns="http://www.w3.org/1999/xhtml" style="display: table-cell; white-space: nowrap; line-height: 1.5; max-width: 119px; text-align: center;"><span class="nodeLabel markdown-node-label" style=""><p>+coletar()</p></span></div></foreignObject></g></g><g class="divider" style=""><path d="M-68.1171875 -15 C-22.23194466352853 -14.999663188950391, 23.65329817294294 -14.999326377900784, 68.1171875 -14.999 M-68.1171875 -15 C-29.73224567311179 -14.999718243344773, 8.652696153776418 -14.999436486689547, 68.1171875 -14.999" stroke="#999" stroke-width="1.3" fill="none" stroke-dasharray="0 0" style=""/></g><g class="divider" style=""><path d="M-68.1171875 9 C-32.87328540656238 9.000258700508542, 2.3706166868752376 9.000517401017085, 68.1171875 9.001 M-68.1171875 9 C-29.15901625390137 9.000285964326155, 9.79915499219726 9.000571928652311, 68.1171875 9.001" stroke="#999" stroke-width="1.3" fill="none" stroke-dasharray="0 0" style=""/></g></g><g class="node default" id="my-svg-classId-API-1" data-look="classic" transform="translate(604.748046875, 355)"><g class="basic label-container outer-path"><path d="M-97.6484375 -106.5 L97.6484375 -106.5 L97.6484375 106.5 L-97.6484375 106.5" stroke="none" stroke-width="0" fill="#eee" style=""/><path d="M-97.6484375 -106.5 C-36.21789548575715 -106.5, 25.212646528485706 -106.5, 97.6484375 -106.5 M-97.6484375 -106.5 C-48.63908445709153 -106.5, 0.37026858581694455 -106.5, 97.6484375 -106.5 M97.6484375 -106.5 C97.6484375 -57.86837452551763, 97.6484375 -9.236749051035261, 97.6484375 106.5 M97.6484375 -106.5 C97.6484375 -23.962880134308264, 97.6484375 58.57423973138347, 97.6484375 106.5 M97.6484375 106.5 C23.53382708645455 106.5, -50.5807833270909 106.5, -97.6484375 106.5 M97.6484375 106.5 C40.85912368328462 106.5, -15.930190133430756 106.5, -97.6484375 106.5 M-97.6484375 106.5 C-97.6484375 25.08338732760184, -97.6484375 -56.33322534479632, -97.6484375 -106.5 M-97.6484375 106.5 C-97.6484375 48.92437482304853, -97.6484375 -8.651250353902938, -97.6484375 -106.5" stroke="#999" stroke-width="1.3" fill="none" stroke-dasharray="0 0" style=""/></g><g class="annotation-group text" transform="translate(-64.0625, -82.5)"><g class="label" style="" transform="translate(0,-11.25)"><foreignObject width="128.125" height="22.5"><div xmlns="http://www.w3.org/1999/xhtml" style="display: table-cell; white-space: nowrap; line-height: 1.5; max-width: 181px; text-align: center;"><span class="nodeLabel markdown-node-label" style=""><p>«Python + FastAPI»</p></span></div></foreignObject></g></g><g class="label-group text" transform="translate(-12.2578125, -60)"><g class="label" style="font-weight: bolder" transform="translate(0,-11.25)"><foreignObject width="24.515625" height="22.5"><div xmlns="http://www.w3.org/1999/xhtml" style="display: table-cell; white-space: nowrap; line-height: 1.5; max-width: 77px; text-align: center;"><span class="nodeLabel markdown-node-label" style=""><p>API</p></span></div></foreignObject></g></g><g class="members-group text" transform="translate(-85.6484375, -13.5)"/><g class="methods-group text" transform="translate(-85.6484375, 16.5)"><g class="label" style="" transform="translate(0,-11.25)"><foreignObject width="77.796875" height="22.5"><div xmlns="http://www.w3.org/1999/xhtml" style="display: table-cell; white-space: nowrap; line-height: 1.5; max-width: 132px; text-align: center;"><span class="nodeLabel markdown-node-label" style=""><p>+autorizar()</p></span></div></foreignObject></g><g class="label" style="" transform="translate(0,11.25)"><foreignObject width="107.234375" height="22.5"><div xmlns="http://www.w3.org/1999/xhtml" style="display: table-cell; white-space: nowrap; line-height: 1.5; max-width: 163px; text-align: center;"><span class="nodeLabel markdown-node-label" style=""><p>+aplicarRegras()</p></span></div></foreignObject></g><g class="label" style="" transform="translate(0,33.75)"><foreignObject width="71.484375" height="22.5"><div xmlns="http://www.w3.org/1999/xhtml" style="display: table-cell; white-space: nowrap; line-height: 1.5; max-width: 127px; text-align: center;"><span class="nodeLabel markdown-node-label" style=""><p>+persistir()</p></span></div></foreignObject></g><g class="label" style="" transform="translate(0,56.25)"><foreignObject width="88" height="22.5"><div xmlns="http://www.w3.org/1999/xhtml" style="display: table-cell; white-space: nowrap; line-height: 1.5; max-width: 140px; text-align: center;"><span class="nodeLabel markdown-node-label" style=""><p>+orquestrar()</p></span></div></foreignObject></g></g><g class="divider" style=""><path d="M-97.6484375 -37.5 C-37.30913095181207 -37.49969103803352, 23.030175596375855 -37.499382076067036, 97.6484375 -37.499 M-97.6484375 -37.5 C-50.4349632641043 -37.49975824767173, -3.2214890282085946 -37.49951649534345, 97.6484375 -37.499" stroke="#999" stroke-width="1.3" fill="none" stroke-dasharray="0 0" style=""/></g><g class="divider" style=""><path d="M-97.6484375 -13.5 C-39.83305404710411 -13.499703961553646, 17.982329405791774 -13.499407923107292, 97.6484375 -13.499 M-97.6484375 -13.5 C-42.94959041685351 -13.499719919496494, 11.749256666292979 -13.499439838992988, 97.6484375 -13.499" stroke="#999" stroke-width="1.3" fill="none" stroke-dasharray="0 0" style=""/></g></g><g class="node default" id="my-svg-classId-Dominio-2" data-look="classic" transform="translate(92.23046875, 618)"><g class="basic label-container outer-path"><path d="M-84.23046875 -69.75 L84.23046875 -69.75 L84.23046875 69.75 L-84.23046875 69.75" stroke="none" stroke-width="0" fill="#eee" style=""/><path d="M-84.23046875 -69.75 C-25.45373796407962 -69.75, 33.32299282184076 -69.75, 84.23046875 -69.75 M-84.23046875 -69.75 C-46.674088758887514 -69.75, -9.117708767775028 -69.75, 84.23046875 -69.75 M84.23046875 -69.75 C84.23046875 -16.412018651542326, 84.23046875 36.92596269691535, 84.23046875 69.75 M84.23046875 -69.75 C84.23046875 -34.32338705561327, 84.23046875 1.1032258887734656, 84.23046875 69.75 M84.23046875 69.75 C28.804098335004696 69.75, -26.62227207999061 69.75, -84.23046875 69.75 M84.23046875 69.75 C27.00166569966963 69.75, -30.22713735066074 69.75, -84.23046875 69.75 M-84.23046875 69.75 C-84.23046875 31.59950403546206, -84.23046875 -6.550991929075877, -84.23046875 -69.75 M-84.23046875 69.75 C-84.23046875 18.805262088200422, -84.23046875 -32.139475823599156, -84.23046875 -69.75" stroke="#999" stroke-width="1.3" fill="none" stroke-dasharray="0 0" style=""/></g><g class="annotation-group text" transform="translate(-49.3515625, -45.75)"><g class="label" style="" transform="translate(0,-11.25)"><foreignObject width="98.703125" height="22.5"><div xmlns="http://www.w3.org/1999/xhtml" style="display: table-cell; white-space: nowrap; line-height: 1.5; max-width: 155px; text-align: center;"><span class="nodeLabel markdown-node-label" style=""><p>«SQLAlchemy»</p></span></div></foreignObject></g></g><g class="label-group text" transform="translate(-30.375, -23.25)"><g class="label" style="font-weight: bolder" transform="translate(0,-11.25)"><foreignObject width="60.75" height="22.5"><div xmlns="http://www.w3.org/1999/xhtml" style="display: table-cell; white-space: nowrap; line-height: 1.5; max-width: 108px; text-align: center;"><span class="nodeLabel markdown-node-label" style=""><p>Dominio</p></span></div></foreignObject></g></g><g class="members-group text" transform="translate(-72.23046875, 23.25)"><g class="label" style="" transform="translate(0,-11.25)"><foreignObject width="95.109375" height="22.5"><div xmlns="http://www.w3.org/1999/xhtml" style="display: table-cell; white-space: nowrap; line-height: 1.5; max-width: 145px; text-align: center;"><span class="nodeLabel markdown-node-label" style=""><p>+18 entidades</p></span></div></foreignObject></g></g><g class="methods-group text" transform="translate(-72.23046875, 69.75)"/><g class="divider" style=""><path d="M-84.23046875 -0.75 C-43.96320854687955 -0.749760969748829, -3.695948343759099 -0.7495219394976581, 84.23046875 -0.749 M-84.23046875 -0.75 C-31.057072626800675 -0.7496843577097914, 22.11632349639865 -0.7493687154195826, 84.23046875 -0.749" stroke="#999" stroke-width="1.3" fill="none" stroke-dasharray="0 0" style=""/></g><g class="divider" style=""><path d="M-84.23046875 45.75 C-31.69478615182473 45.75031185676263, 20.84089644635054 45.75062371352526, 84.23046875 45.751 M-84.23046875 45.75 C-44.1637196692305 45.750237839998256, -4.096970588461005 45.750475679996505, 84.23046875 45.751" stroke="#999" stroke-width="1.3" fill="none" stroke-dasharray="0 0" style=""/></g></g><g class="node default" id="my-svg-classId-Nucleo-3" data-look="classic" transform="translate(360.044921875, 618)"><g class="basic label-container outer-path"><path d="M-109.9375 -72.75 L109.9375 -72.75 L109.9375 72.75 L-109.9375 72.75" stroke="none" stroke-width="0" fill="#eee" style=""/><path d="M-109.9375 -72.75 C-28.307050696487835 -72.75, 53.32339860702433 -72.75, 109.9375 -72.75 M-109.9375 -72.75 C-58.17758147567526 -72.75, -6.417662951350522 -72.75, 109.9375 -72.75 M109.9375 -72.75 C109.9375 -34.81031066619662, 109.9375 3.1293786676067583, 109.9375 72.75 M109.9375 -72.75 C109.9375 -39.246406092377754, 109.9375 -5.742812184755508, 109.9375 72.75 M109.9375 72.75 C45.48903641386069 72.75, -18.959427172278623 72.75, -109.9375 72.75 M109.9375 72.75 C28.527820796199507 72.75, -52.88185840760099 72.75, -109.9375 72.75 M-109.9375 72.75 C-109.9375 38.23158601706103, -109.9375 3.713172034122067, -109.9375 -72.75 M-109.9375 72.75 C-109.9375 36.39332887741679, -109.9375 0.03665775483358402, -109.9375 -72.75" stroke="#999" stroke-width="1.3" fill="none" stroke-dasharray="0 0" style=""/></g><g class="annotation-group text" transform="translate(-97.9375, -48.75)"><g class="label" style="" transform="translate(0,-11.25)"><foreignObject width="195.875" height="22.5"><div xmlns="http://www.w3.org/1999/xhtml" style="display: table-cell; white-space: nowrap; line-height: 1.5; max-width: 247px; text-align: center;"><span class="nodeLabel markdown-node-label" style=""><p>«C++17 + OpenMP + CUDA»</p></span></div></foreignObject></g></g><g class="label-group text" transform="translate(-24.84375, -26.25)"><g class="label" style="font-weight: bolder" transform="translate(0,-11.25)"><foreignObject width="49.6875" height="22.5"><div xmlns="http://www.w3.org/1999/xhtml" style="display: table-cell; white-space: nowrap; line-height: 1.5; max-width: 97px; text-align: center;"><span class="nodeLabel markdown-node-label" style=""><p>Nucleo</p></span></div></foreignObject></g></g><g class="members-group text" transform="translate(-97.9375, 20.25)"/><g class="methods-group text" transform="translate(-97.9375, 50.25)"><g class="label" style="" transform="translate(0,-11.25)"><foreignObject width="73.015625" height="22.5"><div xmlns="http://www.w3.org/1999/xhtml" style="display: table-cell; white-space: nowrap; line-height: 1.5; max-width: 128px; text-align: center;"><span class="nodeLabel markdown-node-label" style=""><p>+otimizar()</p></span></div></foreignObject></g></g><g class="divider" style=""><path d="M-109.9375 -3.75 C-40.2826942675257 -3.7496832072507904, 29.372111464948603 -3.749366414501581, 109.9375 -3.749 M-109.9375 -3.75 C-49.25001203736182 -3.7497239909586693, 11.43747592527636 -3.749447981917338, 109.9375 -3.749" stroke="#999" stroke-width="1.3" fill="none" stroke-dasharray="0 0" style=""/></g><g class="divider" style=""><path d="M-109.9375 20.25 C-31.983501642323745 20.250354537798103, 45.97049671535251 20.250709075596205, 109.9375 20.251 M-109.9375 20.25 C-45.478990414236065 20.250293159793454, 18.97951917152787 20.25058631958691, 109.9375 20.251" stroke="#999" stroke-width="1.3" fill="none" stroke-dasharray="0 0" style=""/></g></g><g class="node default" id="my-svg-classId-Modelo-4" data-look="classic" transform="translate(683.919921875, 618)"><g class="basic label-container outer-path"><path d="M-90.0546875 -84 L90.0546875 -84 L90.0546875 84 L-90.0546875 84" stroke="none" stroke-width="0" fill="#eee" style=""/><path d="M-90.0546875 -84 C-35.94148932945411 -84, 18.171708841091785 -84, 90.0546875 -84 M-90.0546875 -84 C-44.20564350845459 -84, 1.643400483090815 -84, 90.0546875 -84 M90.0546875 -84 C90.0546875 -46.31669461117192, 90.0546875 -8.633389222343837, 90.0546875 84 M90.0546875 -84 C90.0546875 -38.68703947731212, 90.0546875 6.625921045375762, 90.0546875 84 M90.0546875 84 C38.54490111937285 84, -12.964885261254295 84, -90.0546875 84 M90.0546875 84 C48.36386291493339 84, 6.673038329866785 84, -90.0546875 84 M-90.0546875 84 C-90.0546875 36.76952283796339, -90.0546875 -10.460954324073214, -90.0546875 -84 M-90.0546875 84 C-90.0546875 20.743329007966473, -90.0546875 -42.513341984067054, -90.0546875 -84" stroke="#999" stroke-width="1.3" fill="none" stroke-dasharray="0 0" style=""/></g><g class="annotation-group text" transform="translate(-78.0546875, -60)"><g class="label" style="" transform="translate(0,-11.25)"><foreignObject width="156.109375" height="22.5"><div xmlns="http://www.w3.org/1999/xhtml" style="display: table-cell; white-space: nowrap; line-height: 1.5; max-width: 210px; text-align: center;"><span class="nodeLabel markdown-node-label" style=""><p>«PyTorch · gih_modelo»</p></span></div></foreignObject></g></g><g class="label-group text" transform="translate(-27.1875, -37.5)"><g class="label" style="font-weight: bolder" transform="translate(0,-11.25)"><foreignObject width="54.375" height="22.5"><div xmlns="http://www.w3.org/1999/xhtml" style="display: table-cell; white-space: nowrap; line-height: 1.5; max-width: 101px; text-align: center;"><span class="nodeLabel markdown-node-label" style=""><p>Modelo</p></span></div></foreignObject></g></g><g class="members-group text" transform="translate(-78.0546875, 9)"/><g class="methods-group text" transform="translate(-78.0546875, 39)"><g class="label" style="" transform="translate(0,-11.25)"><foreignObject width="62.4375" height="22.5"><div xmlns="http://www.w3.org/1999/xhtml" style="display: table-cell; white-space: nowrap; line-height: 1.5; max-width: 117px; text-align: center;"><span class="nodeLabel markdown-node-label" style=""><p>+treinar()</p></span></div></foreignObject></g><g class="label" style="" transform="translate(0,11.25)"><foreignObject width="61.4375" height="22.5"><div xmlns="http://www.w3.org/1999/xhtml" style="display: table-cell; white-space: nowrap; line-height: 1.5; max-width: 116px; text-align: center;"><span class="nodeLabel markdown-node-label" style=""><p>+prever()</p></span></div></foreignObject></g></g><g class="divider" style=""><path d="M-90.0546875 -15 C-37.04226144797287 -14.999705665371101, 15.970164604054261 -14.9994113307422, 90.0546875 -14.999 M-90.0546875 -15 C-29.543263398707168 -14.999664029570358, 30.968160702585664 -14.999328059140716, 90.0546875 -14.999" stroke="#999" stroke-width="1.3" fill="none" stroke-dasharray="0 0" style=""/></g><g class="divider" style=""><path d="M-90.0546875 9 C-45.14238599845057 9.000249361264517, -0.2300844969011422 9.000498722529036, 90.0546875 9.001 M-90.0546875 9 C-41.53718261529975 9.00026937800925, 6.980322269400503 9.000538756018498, 90.0546875 9.001" stroke="#999" stroke-width="1.3" fill="none" stroke-dasharray="0 0" style=""/></g></g><g class="node default" id="my-svg-classId-Assistente-5" data-look="classic" transform="translate(985.158203125, 618)"><g class="basic label-container outer-path"><path d="M-87.4609375 -72.75 L87.4609375 -72.75 L87.4609375 72.75 L-87.4609375 72.75" stroke="none" stroke-width="0" fill="#eee" style=""/><path d="M-87.4609375 -72.75 C-20.601552717457935 -72.75, 46.25783206508413 -72.75, 87.4609375 -72.75 M-87.4609375 -72.75 C-35.11492424854399 -72.75, 17.231089002912015 -72.75, 87.4609375 -72.75 M87.4609375 -72.75 C87.4609375 -22.390358694393186, 87.4609375 27.96928261121363, 87.4609375 72.75 M87.4609375 -72.75 C87.4609375 -17.851659073275897, 87.4609375 37.046681853448206, 87.4609375 72.75 M87.4609375 72.75 C26.650475459031625 72.75, -34.15998658193675 72.75, -87.4609375 72.75 M87.4609375 72.75 C39.563113340877294 72.75, -8.334710818245412 72.75, -87.4609375 72.75 M-87.4609375 72.75 C-87.4609375 17.43819790966907, -87.4609375 -37.87360418066186, -87.4609375 -72.75 M-87.4609375 72.75 C-87.4609375 37.538988655011, -87.4609375 2.327977310022007, -87.4609375 -72.75" stroke="#999" stroke-width="1.3" fill="none" stroke-dasharray="0 0" style=""/></g><g class="annotation-group text" transform="translate(-75.4609375, -48.75)"><g class="label" style="" transform="translate(0,-11.25)"><foreignObject width="150.921875" height="22.5"><div xmlns="http://www.w3.org/1999/xhtml" style="display: table-cell; white-space: nowrap; line-height: 1.5; max-width: 210px; text-align: center;"><span class="nodeLabel markdown-node-label" style=""><p>«LLM local via Ollama»</p></span></div></foreignObject></g></g><g class="label-group text" transform="translate(-35.7421875, -26.25)"><g class="label" style="font-weight: bolder" transform="translate(0,-11.25)"><foreignObject width="71.484375" height="22.5"><div xmlns="http://www.w3.org/1999/xhtml" style="display: table-cell; white-space: nowrap; line-height: 1.5; max-width: 117px; text-align: center;"><span class="nodeLabel markdown-node-label" style=""><p>Assistente</p></span></div></foreignObject></g></g><g class="members-group text" transform="translate(-75.4609375, 20.25)"/><g class="methods-group text" transform="translate(-75.4609375, 50.25)"><g class="label" style="" transform="translate(0,-11.25)"><foreignObject width="62.53125" height="22.5"><div xmlns="http://www.w3.org/1999/xhtml" style="display: table-cell; white-space: nowrap; line-height: 1.5; max-width: 118px; text-align: center;"><span class="nodeLabel markdown-node-label" style=""><p>+redigir()</p></span></div></foreignObject></g></g><g class="divider" style=""><path d="M-87.4609375 -3.75 C-36.71695434288219 -3.7497099048752074, 14.02702881423562 -3.7494198097504143, 87.4609375 -3.749 M-87.4609375 -3.75 C-28.940488120630675 -3.7496654480785816, 29.57996125873865 -3.749330896157163, 87.4609375 -3.749" stroke="#999" stroke-width="1.3" fill="none" stroke-dasharray="0 0" style=""/></g><g class="divider" style=""><path d="M-87.4609375 20.25 C-26.997848716439655 20.25034565767594, 33.46524006712069 20.25069131535188, 87.4609375 20.251 M-87.4609375 20.25 C-31.281670496015614 20.250321167761346, 24.89759650796877 20.25064233552269, 87.4609375 20.251" stroke="#999" stroke-width="1.3" fill="none" stroke-dasharray="0 0" style=""/></g></g></g></g></g><defs><filter id="my-svg-drop-shadow" height="130%" width="130%"><feDropShadow dx="4" dy="4" stdDeviation="0" flood-opacity="0.06" flood-color="#000000"/></filter></defs><defs><filter id="my-svg-drop-shadow-small" height="150%" width="150%"><feDropShadow dx="2" dy="2" stdDeviation="0" flood-opacity="0.06" flood-color="#000000"/></filter></defs><linearGradient id="my-svg-gradient" gradientUnits="objectBoundingBox" x1="0%" y1="0%" x2="100%" y2="0%"><stop offset="0%" stop-color="hsl(0, 0%, 83.3333333333%)" stop-opacity="1"/><stop offset="100%" stop-color="hsl(0, 0%, 88.9215686275%)" stop-opacity="1"/></linearGradient></svg>