<svg id="my-svg" width="100%" xmlns="http://www.w3.org/2000/svg" xmlns:xlink="http://www.w3.org/1999/xlink" class="classDiagram" style="max-width: 1033.63px; background-color: white;" viewBox="0 0 1033.634765625 687.5" role="graphics-document document" aria-roledescription="classDiagram"><style>#my-svg{font-family:Segoe UI,Calibri,sans-serif;font-size:15px;fill:#000000;}@keyframes edge-animation-frame{from{stroke-dashoffset:0;}}@keyframes dash{to{stroke-dashoffset:0;}}#my-svg .edge-animation-slow{stroke-dasharray:9,5!important;stroke-dashoffset:900;animation:dash 50s linear infinite;stroke-linecap:round;}#my-svg .edge-animation-fast{stroke-dasharray:9,5!important;stroke-dashoffset:900;animation:dash 20s linear infinite;stroke-linecap:round;}#my-svg .error-icon{fill:#552222;}#my-svg .error-text{fill:#552222;stroke:#552222;}#my-svg .edge-thickness-normal{stroke-width:1px;}#my-svg .edge-thickness-thick{stroke-width:3.5px;}#my-svg .edge-pattern-solid{stroke-dasharray:0;}#my-svg .edge-thickness-invisible{stroke-width:0;fill:none;}#my-svg .edge-pattern-dashed{stroke-dasharray:3;}#my-svg .edge-pattern-dotted{stroke-dasharray:2;}#my-svg .marker{fill:#666;stroke:#666;}#my-svg .marker.cross{stroke:#666;}#my-svg svg{font-family:Segoe UI,Calibri,sans-serif;font-size:15px;}#my-svg p{margin:0;}#my-svg g.classGroup text{fill:#999;stroke:none;font-family:Segoe UI,Calibri,sans-serif;font-size:10px;}#my-svg g.classGroup text .title{font-weight:bolder;}#my-svg .cluster-label text{fill:#333;}#my-svg .cluster-label span{color:#333;}#my-svg .cluster-label span p{background-color:transparent;}#my-svg .cluster rect{fill:hsl(0, 0%, 98.9215686275%);stroke:#707070;stroke-width:1px;}#my-svg .cluster text{fill:#333;}#my-svg .cluster span{color:#333;}#my-svg .nodeLabel,#my-svg .edgeLabel{color:#111111;}#my-svg .noteLabel .nodeLabel,#my-svg .noteLabel .edgeLabel{color:#fff;}#my-svg .edgeLabel .label rect{fill:#eee;}#my-svg .label text{fill:#111111;}#my-svg .labelBkg{background:#eee;}#my-svg .edgeLabel .label span{background:#eee;}#my-svg .classTitle{font-weight:bolder;}#my-svg .node rect,#my-svg .node circle,#my-svg .node ellipse,#my-svg .node polygon,#my-svg .node path{fill:#eee;stroke:#999;stroke-width:1;}#my-svg .divider{stroke:#999;stroke-width:1;}#my-svg g.clickable{cursor:pointer;}#my-svg g.classGroup rect{fill:#eee;stroke:#999;}#my-svg g.classGroup line{stroke:#999;stroke-width:1;}#my-svg .classLabel .box{stroke:none;stroke-width:0;fill:#eee;opacity:0.5;}#my-svg .classLabel .label{fill:#999;font-size:10px;}#my-svg .relation{stroke:#666;stroke-width:1;fill:none;}#my-svg .dashed-line{stroke-dasharray:3;}#my-svg .dotted-line{stroke-dasharray:1 2;}#my-svg [id$="-compositionStart"],#my-svg .composition{fill:#666!important;stroke:#666!important;stroke-width:1;}#my-svg [id$="-compositionEnd"],#my-svg .composition{fill:#666!important;stroke:#666!important;stroke-width:1;}#my-svg [id$="-dependencyStart"],#my-svg .dependency{fill:#666!important;stroke:#666!important;stroke-width:1;}#my-svg [id$="-dependencyEnd"],#my-svg .dependency{fill:#666!important;stroke:#666!important;stroke-width:1;}#my-svg [id$="-extensionStart"],#my-svg .extension{fill:transparent!important;stroke:#666!important;stroke-width:1;}#my-svg [id$="-extensionEnd"],#my-svg .extension{fill:transparent!important;stroke:#666!important;stroke-width:1;}#my-svg [id$="-aggregationStart"],#my-svg .aggregation{fill:transparent!important;stroke:#666!important;stroke-width:1;}#my-svg [id$="-aggregationEnd"],#my-svg .aggregation{fill:transparent!important;stroke:#666!important;stroke-width:1;}#my-svg [id$="-lollipopStart"],#my-svg .lollipop{fill:#eee!important;stroke:#666!important;stroke-width:1;}#my-svg [id$="-lollipopEnd"],#my-svg .lollipop{fill:#eee!important;stroke:#666!important;stroke-width:1;}#my-svg .edgeTerminals{font-size:11px;line-height:initial;}#my-svg .classTitleText{text-anchor:middle;font-size:18px;fill:#000000;}#my-svg .edgeLabel[data-look="neo"]{background-color:white;text-align:center;}#my-svg .edgeLabel[data-look="neo"] p{background-color:white;}#my-svg .edgeLabel[data-look="neo"] rect{opacity:0.5;background-color:white;fill:white;}#my-svg .label-icon{display:inline-block;height:1em;overflow:visible;vertical-align:-0.125em;}#my-svg .node .label-icon path{fill:currentColor;stroke:revert;stroke-width:revert;}#my-svg .node .neo-node{stroke:#999;}#my-svg [data-look="neo"].node rect,#my-svg [data-look="neo"].cluster rect,#my-svg [data-look="neo"].node polygon{stroke:url(#my-svg-gradient);filter:drop-shadow( 1px 2px 2px rgba(185,185,185,1));}#my-svg [data-look="neo"].swimlane.cluster rect{filter:none;}#my-svg [data-look="neo"].node path{stroke:url(#my-svg-gradient);stroke-width:1px;}#my-svg [data-look="neo"].node .outer-path{filter:drop-shadow( 1px 2px 2px rgba(185,185,185,1));}#my-svg [data-look="neo"].node .neo-line path{stroke:#999;filter:none;}#my-svg [data-look="neo"].node circle{stroke:url(#my-svg-gradient);filter:drop-shadow( 1px 2px 2px rgba(185,185,185,1));}#my-svg [data-look="neo"].node circle .state-start{fill:#000000;}#my-svg [data-look="neo"].icon-shape .icon{fill:url(#my-svg-gradient);filter:drop-shadow( 1px 2px 2px rgba(185,185,185,1));}#my-svg [data-look="neo"].icon-shape .icon-neo path{stroke:url(#my-svg-gradient);filter:drop-shadow( 1px 2px 2px rgba(185,185,185,1));}#my-svg :root{--mermaid-font-family:"trebuchet ms",verdana,arial,sans-serif;}</style><g><defs><marker id="my-svg_classDiagram-aggregationStart" class="marker aggregation classDiagram" refX="18" refY="7" markerWidth="190" markerHeight="240" orient="auto" markerUnits="userSpaceOnUse"><path d="M 18,7 L9,13 L1,7 L9,1 Z"/></marker></defs><defs><marker id="my-svg_classDiagram-aggregationEnd" class="marker aggregation classDiagram" refX="1" refY="7" markerWidth="20" markerHeight="28" orient="auto" markerUnits="userSpaceOnUse"><path d="M 18,7 L9,13 L1,7 L9,1 Z"/></marker></defs><defs><marker id="my-svg_classDiagram-aggregationStart-margin" class="marker aggregation classDiagram" refX="15" refY="7" markerWidth="190" markerHeight="240" orient="auto" markerUnits="userSpaceOnUse"><path d="M 18,7 L9,13 L1,7 L9,1 Z" style="stroke-width: 2;"/></marker></defs><defs><marker id="my-svg_classDiagram-aggregationEnd-margin" class="marker aggregation classDiagram" refX="1" refY="7" markerWidth="20" markerHeight="28" orient="auto" markerUnits="userSpaceOnUse"><path d="M 18,7 L9,13 L1,7 L9,1 Z" style="stroke-width: 2;"/></marker></defs><defs><marker id="my-svg_classDiagram-extensionStart" class="marker extension classDiagram" refX="18" refY="7" markerWidth="20" markerHeight="28" orient="auto" markerUnits="userSpaceOnUse"><path d="M 1,7 L18,13 V 1 Z"/></marker></defs><defs><marker id="my-svg_classDiagram-extensionEnd" class="marker extension classDiagram" refX="1" refY="7" markerWidth="20" markerHeight="28" orient="auto" markerUnits="userSpaceOnUse"><path d="M 1,1 V 13 L18,7 Z"/></marker></defs><marker id="my-svg_classDiagram-extensionStart-margin" class="marker extension classDiagram" refX="18" refY="7" markerWidth="20" markerHeight="28" orient="auto" markerUnits="userSpaceOnUse" viewBox="0 0 20 14"><polygon points="10,7 18,13 18,1" style="stroke-width: 2; stroke-dasharray: 0;"/></marker><defs><marker id="my-svg_classDiagram-extensionEnd-margin" class="marker extension classDiagram" refX="9" refY="7" markerWidth="20" markerHeight="28" orient="auto" markerUnits="userSpaceOnUse" viewBox="0 0 20 14"><polygon points="10,1 10,13 18,7" style="stroke-width: 2; stroke-dasharray: 0;"/></marker></defs><defs><marker id="my-svg_classDiagram-compositionStart" class="marker composition classDiagram" refX="18" refY="7" markerWidth="190" markerHeight="240" orient="auto" markerUnits="userSpaceOnUse"><path d="M 18,7 L9,13 L1,7 L9,1 Z"/></marker></defs><defs><marker id="my-svg_classDiagram-compositionEnd" class="marker composition classDiagram" refX="1" refY="7" markerWidth="20" markerHeight="28" orient="auto" markerUnits="userSpaceOnUse"><path d="M 18,7 L9,13 L1,7 L9,1 Z"/></marker></defs><defs><marker id="my-svg_classDiagram-compositionStart-margin" class="marker composition classDiagram" refX="15" refY="7" markerWidth="190" markerHeight="240" orient="auto" markerUnits="userSpaceOnUse"><path viewBox="0 0 15 15" d="M 18,7 L9,13 L1,7 L9,1 Z" style="stroke-width: 0;"/></marker></defs><defs><marker id="my-svg_classDiagram-compositionEnd-margin" class="marker composition classDiagram" refX="3.5" refY="7" markerWidth="20" markerHeight="28" orient="auto" markerUnits="userSpaceOnUse"><path d="M 18,7 L9,13 L1,7 L9,1 Z" style="stroke-width: 0;"/></marker></defs><defs><marker id="my-svg_classDiagram-dependencyStart" class="marker dependency classDiagram" refX="6" refY="7" markerWidth="190" markerHeight="240" orient="auto" markerUnits="userSpaceOnUse"><path d="M 5,7 L9,13 L1,7 L9,1 Z"/></marker></defs><defs><marker id="my-svg_classDiagram-dependencyEnd" class="marker dependency classDiagram" refX="13" refY="7" markerWidth="20" markerHeight="28" orient="auto" markerUnits="userSpaceOnUse"><path d="M 18,7 L9,13 L14,7 L9,1 Z"/></marker></defs><defs><marker id="my-svg_classDiagram-dependencyStart-margin" class="marker dependency classDiagram" refX="4" refY="7" markerWidth="190" markerHeight="240" orient="auto" markerUnits="userSpaceOnUse"><path d="M 5,7 L9,13 L1,7 L9,1 Z" style="stroke-width: 0;"/></marker></defs><defs><marker id="my-svg_classDiagram-dependencyEnd-margin" class="marker dependency classDiagram" refX="16" refY="7" markerWidth="20" markerHeight="28" orient="auto" markerUnits="userSpaceOnUse"><path d="M 18,7 L9,13 L14,7 L9,1 Z" style="stroke-width: 0;"/></marker></defs><defs><marker id="my-svg_classDiagram-lollipopStart" class="marker lollipop classDiagram" refX="13" refY="7" markerWidth="190" markerHeight="240" orient="auto" markerUnits="userSpaceOnUse"><circle fill="transparent" cx="7" cy="7" r="6"/></marker></defs><defs><marker id="my-svg_classDiagram-lollipopEnd" class="marker lollipop classDiagram" refX="1" refY="7" markerWidth="190" markerHeight="240" orient="auto" markerUnits="userSpaceOnUse"><circle fill="transparent" cx="7" cy="7" r="6"/></marker></defs><defs><marker id="my-svg_classDiagram-lollipopStart-margin" class="marker lollipop classDiagram" refX="13" refY="7" markerWidth="190" markerHeight="240" orient="auto" markerUnits="userSpaceOnUse"><circle fill="transparent" cx="7" cy="7" r="6" stroke-width="2"/></marker></defs><defs><marker id="my-svg_classDiagram-lollipopEnd-margin" class="marker lollipop classDiagram" refX="1" refY="7" markerWidth="190" markerHeight="240" orient="auto" markerUnits="userSpaceOnUse"><circle fill="transparent" cx="7" cy="7" r="6" stroke-width="2"/></marker></defs><g class="root"><g class="clusters"/><g class="edgePaths"><path d="M604.748,176L604.748,182.042C604.748,188.083,604.748,200.167,604.748,211.25C604.748,222.333,604.748,232.417,604.748,237.458L604.748,242.5" id="my-svg-id_Interface_API_1" class="edge-thickness-normal edge-pattern-solid relation" style=";;;" data-edge="true" data-et="edge" data-id="id_Interface_API_1" data-points="W3sieCI6NjA0Ljc0ODA0Njg3NSwieSI6MTc2fSx7IngiOjYwNC43NDgwNDY4NzUsInkiOjIxMi4yNX0seyJ4Ijo2MDQuNzQ4MDQ2ODc1LCJ5IjoyNDguNX1d" data-look="classic" marker-end="url(#my-svg_classDiagram-dependencyEnd)"/><path d="M507.1,382.198L437.955,401.456C368.81,420.715,230.52,459.233,161.375,484.033C92.23,508.833,92.23,519.917,92.23,525.458L92.23,531" id="my-svg-id_API_Dominio_2" class="edge-thickness-normal edge-pattern-solid relation" style=";;;" data-edge="true" data-et="edge" data-id="id_API_Dominio_2" data-points="W3sieCI6NTA3LjA5OTYwOTM3NSwieSI6MzgyLjE5NzcyOTQ5ODYwNzE1fSx7IngiOjkyLjIzMDQ2ODc1LCJ5Ijo0OTcuNzV9LHsieCI6OTIuMjMwNDY4NzUsInkiOjUzN31d" data-look="classic" marker-end="url(#my-svg_classDiagram-dependencyEnd)"/><path d="M507.1,396.929L467.965,413.732C428.831,430.536,350.563,464.143,315.666,486.209C280.768,508.275,289.242,518.801,293.479,524.064L297.715,529.326" id="my-svg-id_API_Nucleo_3" class="edge-thickness-normal edge-pattern-solid relation" style=";;;" data-edge="true" data-et="edge" data-id="id_API_Nucleo_3" data-points="W3sieCI6NTA3LjA5OTYwOTM3NSwieSI6Mzk2LjkyODY2MTIzMDQzNjZ9LHsieCI6MjcyLjI5NDkyMTg3NSwieSI6NDk3Ljc1fSx7IngiOjMwMS40Nzc4MzQ3MTkwMzY3LCJ5Ijo1MzR9XQ==" data-look="classic" marker-end="url(#my-svg_classDiagram-dependencyEnd)"/><path d="M604.748,461.5L604.748,467.542C604.748,473.583,604.748,485.667,607.959,496.9C611.17,508.132,617.593,518.515,620.804,523.706L624.015,528.897" id="my-svg-id_API_Modelo_4" class="edge-thickness-normal edge-pattern-solid relation" style=";;;" data-edge="true" data-et="edge" data-id="id_API_Modelo_4" data-points="W3sieCI6NjA0Ljc0ODA0Njg3NSwieSI6NDYxLjV9LHsieCI6NjA0Ljc0ODA0Njg3NSwieSI6NDk3Ljc1fSx7IngiOjYyNy4xNzE3NTg1MjkyNDMxLCJ5Ijo1MzR9XQ==" data-look="classic" marker-end="url(#my-svg_classDiagram-dependencyEnd)"/><path d="M702.396,403.949L733.584,419.582C764.771,435.216,827.146,466.483,860.623,487.245C894.1,508.007,898.678,518.264,900.967,523.393L903.256,528.521" id="my-svg-id_API_Assistente_5" class="edge-thickness-normal edge-pattern-solid relation" style=";;;" data-edge="true" data-et="edge" data-id="id_API_Assistente_5" data-points="W3sieCI6NzAyLjM5NjQ4NDM3NSwieSI6NDAzLjk0ODc4NzQxMzIzOTd9LHsieCI6ODg5LjUyMTQ4NDM3NSwieSI6NDk3Ljc1fSx7IngiOjkwNS43MDE3MzYzMTAyMDY1LCJ5Ijo1MzR9XQ==" data-look="classic" marker-end="url(#my-svg_classDiagram-dependencyEnd)"/><path d="M418.612,534L423.476,527.958C428.34,521.917,438.067,509.833,452.075,495.475C466.084,481.116,484.372,464.483,493.517,456.166L502.661,447.849" id="my-svg-id_Nucleo_API_6" class="edge-thickness-normal edge-pattern-solid relation" style=";;;" data-edge="true" data-et="edge" data-id="id_Nucleo_API_6" data-points="W3sieCI6NDE4LjYxMjAwOTAzMDk2MzMsInkiOjUzNH0seyJ4Ijo0NDcuNzk0OTIxODc1LCJ5Ijo0OTcuNzV9LHsieCI6NTA3LjA5OTYwOTM3NSwieSI6NDQzLjgxMTk1ODY4NTkxMzR9XQ==" data-look="classic" marker-end="url(#my-svg_classDiagram-dependencyEnd)"/><path d="M717.176,534L720.913,527.958C724.65,521.917,732.125,509.833,730.349,497.955C728.572,486.076,717.544,474.403,712.031,468.566L706.517,462.729" id="my-svg-id_Modelo_API_7" class="edge-thickness-normal edge-pattern-solid relation" style=";;;" data-edge="true" data-et="edge" data-id="id_Modelo_API_7" data-points="W3sieCI6NzE3LjE3NTg5NzcyMDc1NjksInkiOjUzNH0seyJ4Ijo3MzkuNTk5NjA5Mzc1LCJ5Ijo0OTcuNzV9LHsieCI6NzAyLjM5NjQ4NDM3NSwieSI6NDU4LjM2NzgzNzkwMDQ2OTN9XQ==" data-look="classic" marker-end="url(#my-svg_classDiagram-dependencyEnd)"/><path d="M970.646,534L973.343,527.958C976.039,521.917,981.433,509.833,937.661,486.43C893.89,463.028,800.953,428.305,754.485,410.944L708.017,393.583" id="my-svg-id_Assistente_API_8" class="edge-thickness-normal edge-pattern-solid relation" style=";;;" data-edge="true" data-et="edge" data-id="id_Assistente_API_8" data-points="W3sieCI6OTcwLjY0NTkxOTkzOTc5MzUsInkiOjUzNH0seyJ4Ijo5ODYuODI2MTcxODc1LCJ5Ijo0OTcuNzV9LHsieCI6NzAyLjM5NjQ4NDM3NSwieSI6MzkxLjQ4Mjg5MDY0NzM2NDM0fV0=" data-look="classic" marker-end="url(#my-svg_classDiagram-dependencyEnd)"/></g><g class="edgeLabels"><g class="edgeLabel" transform="translate(604.748046875, 212.25)"><g class="label" data-id="id_Interface_API_1" transform="translate(-31.21875, -11.25)"><foreignObject width="62.4375" height="22.5"><div xmlns="http://www.w3.org/1999/xhtml" class="labelBkg" style="display: table-cell; white-space: nowrap; line-height: 1.5; max-width: 200px; text-align: center;"><span class="edgeLabel"><p>REST /api</p></span></div></foreignObject></g></g><g class="edgeLabel" transform="translate(92.23046875, 497.75)"><g class="label" data-id="id_API_Dominio_2" transform="translate(-32.0234375, -11.25)"><foreignObject width="64.046875" height="22.5"><div xmlns="http://www.w3.org/1999/xhtml" class="labelBkg" style="display: table-cell; white-space: nowrap; line-height: 1.5; max-width: 200px; text-align: center;"><span class="edgeLabel"><p>lê e grava</p></span></div></foreignObject></g></g><g class="edgeLabel" transform="translate(368.31637, 456.51994)"><g class="label" data-id="id_API_Nucleo_3" transform="translate(-63.9375, -11.25)"><foreignObject width="127.875" height="22.5"><div xmlns="http://www.w3.org/1999/xhtml" class="labelBkg" style="display: table-cell; white-space: nowrap; line-height: 1.5; max-width: 200px; text-align: center;"><span class="edgeLabel"><p>cenário e restrições</p></span></div></foreignObject></g></g><g class="edgeLabel" transform="translate(604.748046875, 497.75)"><g class="label" data-id="id_API_Modelo_4" transform="translate(-45.390625, -11.25)"><foreignObject width="90.78125" height="22.5"><div xmlns="http://www.w3.org/1999/xhtml" class="labelBkg" style="display: table-cell; white-space: nowrap; line-height: 1.5; max-width: 200px; text-align: center;"><span class="edgeLabel"><p>série histórica</p></span></div></foreignObject></g></g><g class="edgeLabel" transform="translate(813.70302, 459.74405)"><g class="label" data-id="id_API_Assistente_5" transform="translate(-60.4609375, -11.25)"><foreignObject width="120.921875" height="22.5"><div xmlns="http://www.w3.org/1999/xhtml" class="labelBkg" style="display: table-cell; white-space: nowrap; line-height: 1.5; max-width: 200px; text-align: center;"><span class="edgeLabel"><p>fatos já calculados</p></span></div></foreignObject></g></g><g class="edgeLabel" transform="translate(447.794921875, 497.75)"><g class="label" data-id="id_Nucleo_API_6" transform="translate(-91.5625, -11.25)"><foreignObject width="183.125" height="22.5"><div xmlns="http://www.w3.org/1999/xhtml" class="labelBkg" style="display: table-cell; white-space: nowrap; line-height: 1.5; max-width: 200px; text-align: center;"><span class="edgeLabel"><p>plano e tempo de execução</p></span></div></foreignObject></g></g><g class="edgeLabel" transform="translate(739.599609375, 497.75)"><g class="label" data-id="id_Modelo_API_7" transform="translate(-69.4609375, -11.25)"><foreignObject width="138.921875" height="22.5"><div xmlns="http://www.w3.org/1999/xhtml" class="labelBkg" style="display: table-cell; white-space: nowrap; line-height: 1.5; max-width: 200px; text-align: center;"><span class="edgeLabel"><p>faturamento previsto</p></span></div></foreignObject></g></g><g class="edgeLabel" transform="translate(863.20458, 451.56316)"><g class="label" data-id="id_Assistente_API_8" transform="translate(-16.84375, -11.25)"><foreignObject width="33.6875" height="22.5"><div xmlns="http://www.w3.org/1999/xhtml" class="labelBkg" style="display: table-cell; white-space: nowrap; line-height: 1.5; max-width: 200px; text-align: center;"><span class="edgeLabel"><p>texto</p></span></div></foreignObject></g></g></g><g class="nodes"><g class="node default" id="my-svg-classId-Interface-0" data-look="classic" transform="translate(604.748046875, 92)"><g class="basic label-container outer-path"><path d="M-68.1171875 -84 L68.1171875 -84 L68.1171875 84 L-68.1171875 84" stroke="none" stroke-width="0" fill="#eee" style=""/><path d="M-68.1171875 -84 C-17.957210570701996 -84, 32.20276635859601 -84, 68.1171875 -84 M-68.1171875 -84 C-28.473837716658913 -84, 11.169512066682174 -84, 68.1171875 -84 M68.1171875 -84 C68.1171875 -42.717338401108485, 68.1171875 -1.4346768022169698, 68.1171875 84 M68.1171875 -84 C68.1171875 -40.16342792593803, 68.1171875 3.6731441481239386, 68.1171875 84 M68.1171875 84 C16.362879803319792 84, -35.391427893360415 84, -68.1171875 84 M68.1171875 84 C36.74096693577657 84, 5.364746371553146 84, -68.1171875 84 M-68.1171875 84 C-68.1171875 35.54572204945174, -68.1171875 -12.90855590109652, -68.1171875 -84 M-68.1171875 84 C-68.1171875 42.52922388733642, -68.1171875 1.0584477746728425, -68.1171875 -84" stroke="#999" stroke-width="1.3" fill="none" stroke-dasharray="0 0" style=""/></g><g class="annotation-group text" transform="translate(-47.78125, -60)"><g class="label" style="" transform="translate(0,-11.25)"><foreignObject width="95.5625" height="22.5"><div xmlns="http://www.w3.org/1999/xhtml" style="display: table-cell; white-space: nowrap; line-height: 1.5; max-width: 146px; text-align: center;"><span class="nodeLabel markdown-node-label" style=""><p>«React + Vite»</p></span></div></foreignObject></g></g><g class="label-group text" transform="translate(-31.6015625, -37.5)"><g class="label" style="font-weight: bolder" transform="translate(0,-11.25)"><foreignObject width="63.203125" height="22.5"><div xmlns="http://www.w3.org/1999/xhtml" style="display: table-cell; white-space: nowrap; line-height: 1.5; max-width: 107px; text-align: center;"><span class="nodeLabel markdown-node-label" style=""><p>Interface</p></span></div></foreignObject></g></g><g class="members-group text" transform="translate(-56.1171875, 9)"/><g class="methods-group text" transform="translate(-56.1171875, 39)"><g class="label" style="" transform="translate(0,-11.25)"><foreignObject width="55.34375" height="22.5"><div xmlns="http://www.w3.org/1999/xhtml" style="display: table-cell; white-space: nowrap; line-height: 1.5; max-width: 112px; text-align: center;"><span class="nodeLabel markdown-node-label" style=""><p>+exibir()</p></span></div></foreignObject></g><g class="label" style="" transform="translate(0,11.25)"><foreignObject width="64.453125" height="22.5"><div xmlns="http://www.w3.org/1999/xhtml" style="display: table-cell; white-space: nowrap; line-height: 1.5; max-width: 119px; text-align: center;"><span class="nodeLabel markdown-node-label" style=""><p>+coletar()</p></span></div></foreignObject></g></g><g class="divider" style=""><path d="M-68.1171875 -15 C-28.567224998988095 -14.999709691753635, 10.98273750202381 -14.999419383507268, 68.1171875 -14.999 M-68.1171875 -15 C-38.99466228006982 -14.999786232180975, -9.872137060139629 -14.99957246436195, 68.1171875 -14.999" stroke="#999" stroke-width="1.3" fill="none" stroke-dasharray="0 0" style=""/></g><g class="divider" style=""><path d="M-68.1171875 9 C-31.814900788438393 9.000266469359966, 4.487385923123213 9.000532938719932, 68.1171875 9.001 M-68.1171875 9 C-15.837063999641842 9.000383751336624, 36.443059500716316 9.000767502673247, 68.1171875 9.001" stroke="#999" stroke-width="1.3" fill="none" stroke-dasharray="0 0" style=""/></g></g><g class="node default" id="my-svg-classId-API-1" data-look="classic" transform="translate(604.748046875, 355)"><g class="basic label-container outer-path"><path d="M-97.6484375 -106.5 L97.6484375 -106.5 L97.6484375 106.5 L-97.6484375 106.5" stroke="none" stroke-width="0" fill="#eee" style=""/><path d="M-97.6484375 -106.5 C-44.70913094244374 -106.5, 8.230175615112515 -106.5, 97.6484375 -106.5 M-97.6484375 -106.5 C-50.01010119340309 -106.5, -2.371764886806176 -106.5, 97.6484375 -106.5 M97.6484375 -106.5 C97.6484375 -41.388591678807884, 97.6484375 23.72281664238423, 97.6484375 106.5 M97.6484375 -106.5 C97.6484375 -55.03029099712961, 97.6484375 -3.5605819942592234, 97.6484375 106.5 M97.6484375 106.5 C25.4776218800844 106.5, -46.6931937398312 106.5, -97.6484375 106.5 M97.6484375 106.5 C40.06127499765446 106.5, -17.525887504691084 106.5, -97.6484375 106.5 M-97.6484375 106.5 C-97.6484375 48.472836763007685, -97.6484375 -9.55432647398463, -97.6484375 -106.5 M-97.6484375 106.5 C-97.6484375 29.09362447853863, -97.6484375 -48.31275104292274, -97.6484375 -106.5" stroke="#999" stroke-width="1.3" fill="none" stroke-dasharray="0 0" style=""/></g><g class="annotation-group text" transform="translate(-64.0625, -82.5)"><g class="label" style="" transform="translate(0,-11.25)"><foreignObject width="128.125" height="22.5"><div xmlns="http://www.w3.org/1999/xhtml" style="display: table-cell; white-space: nowrap; line-height: 1.5; max-width: 181px; text-align: center;"><span class="nodeLabel markdown-node-label" style=""><p>«Python + FastAPI»</p></span></div></foreignObject></g></g><g class="label-group text" transform="translate(-12.2578125, -60)"><g class="label" style="font-weight: bolder" transform="translate(0,-11.25)"><foreignObject width="24.515625" height="22.5"><div xmlns="http://www.w3.org/1999/xhtml" style="display: table-cell; white-space: nowrap; line-height: 1.5; max-width: 77px; text-align: center;"><span class="nodeLabel markdown-node-label" style=""><p>API</p></span></div></foreignObject></g></g><g class="members-group text" transform="translate(-85.6484375, -13.5)"/><g class="methods-group text" transform="translate(-85.6484375, 16.5)"><g class="label" style="" transform="translate(0,-11.25)"><foreignObject width="77.796875" height="22.5"><div xmlns="http://www.w3.org/1999/xhtml" style="display: table-cell; white-space: nowrap; line-height: 1.5; max-width: 132px; text-align: center;"><span class="nodeLabel markdown-node-label" style=""><p>+autorizar()</p></span></div></foreignObject></g><g class="label" style="" transform="translate(0,11.25)"><foreignObject width="107.234375" height="22.5"><div xmlns="http://www.w3.org/1999/xhtml" style="display: table-cell; white-space: nowrap; line-height: 1.5; max-width: 163px; text-align: center;"><span class="nodeLabel markdown-node-label" style=""><p>+aplicarRegras()</p></span></div></foreignObject></g><g class="label" style="" transform="translate(0,33.75)"><foreignObject width="71.484375" height="22.5"><div xmlns="http://www.w3.org/1999/xhtml" style="display: table-cell; white-space: nowrap; line-height: 1.5; max-width: 127px; text-align: center;"><span class="nodeLabel markdown-node-label" style=""><p>+persistir()</p></span></div></foreignObject></g><g class="label" style="" transform="translate(0,56.25)"><foreignObject width="88" height="22.5"><div xmlns="http://www.w3.org/1999/xhtml" style="display: table-cell; white-space: nowrap; line-height: 1.5; max-width: 140px; text-align: center;"><span class="nodeLabel markdown-node-label" style=""><p>+orquestrar()</p></span></div></foreignObject></g></g><g class="divider" style=""><path d="M-97.6484375 -37.5 C-57.71340489772043 -37.49979551627438, -17.77837229544086 -37.49959103254876, 97.6484375 -37.499 M-97.6484375 -37.5 C-29.65877488196034 -37.4996518650766, 38.33088773607932 -37.49930373015321, 97.6484375 -37.499" stroke="#999" stroke-width="1.3" fill="none" stroke-dasharray="0 0" style=""/></g><g class="divider" style=""><path d="M-97.6484375 -13.5 C-24.856834729527634 -13.499627277175989, 47.93476804094473 -13.499254554351978, 97.6484375 -13.499 M-97.6484375 -13.5 C-36.74994594230775 -13.499688174777207, 24.148545615384506 -13.499376349554414, 97.6484375 -13.499" stroke="#999" stroke-width="1.3" fill="none" stroke-dasharray="0 0" style=""/></g></g><g class="node default" id="my-svg-classId-Dominio-2" data-look="classic" transform="translate(92.23046875, 606.75)"><g class="basic label-container outer-path"><path d="M-84.23046875 -69.75 L84.23046875 -69.75 L84.23046875 69.75 L-84.23046875 69.75" stroke="none" stroke-width="0" fill="#eee" style=""/><path d="M-84.23046875 -69.75 C-36.41547451832846 -69.75, 11.399519713343082 -69.75, 84.23046875 -69.75 M-84.23046875 -69.75 C-31.749715396433523 -69.75, 20.731037957132955 -69.75, 84.23046875 -69.75 M84.23046875 -69.75 C84.23046875 -40.94023855958663, 84.23046875 -12.130477119173257, 84.23046875 69.75 M84.23046875 -69.75 C84.23046875 -30.849613911868744, 84.23046875 8.050772176262512, 84.23046875 69.75 M84.23046875 69.75 C17.722884344239276 69.75, -48.78470006152145 69.75, -84.23046875 69.75 M84.23046875 69.75 C25.42393871493706 69.75, -33.38259132012588 69.75, -84.23046875 69.75 M-84.23046875 69.75 C-84.23046875 31.501448607687514, -84.23046875 -6.747102784624971, -84.23046875 -69.75 M-84.23046875 69.75 C-84.23046875 40.20077816081422, -84.23046875 10.651556321628433, -84.23046875 -69.75" stroke="#999" stroke-width="1.3" fill="none" stroke-dasharray="0 0" style=""/></g><g class="annotation-group text" transform="translate(-49.3515625, -45.75)"><g class="label" style="" transform="translate(0,-11.25)"><foreignObject width="98.703125" height="22.5"><div xmlns="http://www.w3.org/1999/xhtml" style="display: table-cell; white-space: nowrap; line-height: 1.5; max-width: 155px; text-align: center;"><span class="nodeLabel markdown-node-label" style=""><p>«SQLAlchemy»</p></span></div></foreignObject></g></g><g class="label-group text" transform="translate(-30.375, -23.25)"><g class="label" style="font-weight: bolder" transform="translate(0,-11.25)"><foreignObject width="60.75" height="22.5"><div xmlns="http://www.w3.org/1999/xhtml" style="display: table-cell; white-space: nowrap; line-height: 1.5; max-width: 108px; text-align: center;"><span class="nodeLabel markdown-node-label" style=""><p>Dominio</p></span></div></foreignObject></g></g><g class="members-group text" transform="translate(-72.23046875, 23.25)"><g class="label" style="" transform="translate(0,-11.25)"><foreignObject width="95.109375" height="22.5"><div xmlns="http://www.w3.org/1999/xhtml" style="display: table-cell; white-space: nowrap; line-height: 1.5; max-width: 145px; text-align: center;"><span class="nodeLabel markdown-node-label" style=""><p>+16 entidades</p></span></div></foreignObject></g></g><g class="methods-group text" transform="translate(-72.23046875, 69.75)"/><g class="divider" style=""><path d="M-84.23046875 -0.75 C-36.47062612903687 -0.7497164930735295, 11.289216491926254 -0.749432986147059, 84.23046875 -0.749 M-84.23046875 -0.75 C-33.0112791393319 -0.7496959580638053, 18.207910471336206 -0.7493919161276107, 84.23046875 -0.749" stroke="#999" stroke-width="1.3" fill="none" stroke-dasharray="0 0" style=""/></g><g class="divider" style=""><path d="M-84.23046875 45.75 C-39.13660656155037 45.750267681415394, 5.957255626899254 45.75053536283078, 84.23046875 45.751 M-84.23046875 45.75 C-20.13850168336549 45.75038045595625, 43.95346538326902 45.75076091191249, 84.23046875 45.751" stroke="#999" stroke-width="1.3" fill="none" stroke-dasharray="0 0" style=""/></g></g><g class="node default" id="my-svg-classId-Nucleo-3" data-look="classic" transform="translate(360.044921875, 606.75)"><g class="basic label-container outer-path"><path d="M-109.9375 -72.75 L109.9375 -72.75 L109.9375 72.75 L-109.9375 72.75" stroke="none" stroke-width="0" fill="#eee" style=""/><path d="M-109.9375 -72.75 C-29.3138531026502 -72.75, 51.3097937946996 -72.75, 109.9375 -72.75 M-109.9375 -72.75 C-51.54696500782806 -72.75, 6.843569984343887 -72.75, 109.9375 -72.75 M109.9375 -72.75 C109.9375 -40.925711602438014, 109.9375 -9.10142320487602, 109.9375 72.75 M109.9375 -72.75 C109.9375 -40.788795886838734, 109.9375 -8.827591773677469, 109.9375 72.75 M109.9375 72.75 C35.56971286729626 72.75, -38.79807426540748 72.75, -109.9375 72.75 M109.9375 72.75 C24.537164691790295 72.75, -60.86317061641941 72.75, -109.9375 72.75 M-109.9375 72.75 C-109.9375 27.682070514708073, -109.9375 -17.385858970583854, -109.9375 -72.75 M-109.9375 72.75 C-109.9375 39.81161298016059, -109.9375 6.873225960321179, -109.9375 -72.75" stroke="#999" stroke-width="1.3" fill="none" stroke-dasharray="0 0" style=""/></g><g class="annotation-group text" transform="translate(-97.9375, -48.75)"><g class="label" style="" transform="translate(0,-11.25)"><foreignObject width="195.875" height="22.5"><div xmlns="http://www.w3.org/1999/xhtml" style="display: table-cell; white-space: nowrap; line-height: 1.5; max-width: 247px; text-align: center;"><span class="nodeLabel markdown-node-label" style=""><p>«C++17 + OpenMP + CUDA»</p></span></div></foreignObject></g></g><g class="label-group text" transform="translate(-24.84375, -26.25)"><g class="label" style="font-weight: bolder" transform="translate(0,-11.25)"><foreignObject width="49.6875" height="22.5"><div xmlns="http://www.w3.org/1999/xhtml" style="display: table-cell; white-space: nowrap; line-height: 1.5; max-width: 97px; text-align: center;"><span class="nodeLabel markdown-node-label" style=""><p>Nucleo</p></span></div></foreignObject></g></g><g class="members-group text" transform="translate(-97.9375, 20.25)"/><g class="methods-group text" transform="translate(-97.9375, 50.25)"><g class="label" style="" transform="translate(0,-11.25)"><foreignObject width="73.015625" height="22.5"><div xmlns="http://www.w3.org/1999/xhtml" style="display: table-cell; white-space: nowrap; line-height: 1.5; max-width: 128px; text-align: center;"><span class="nodeLabel markdown-node-label" style=""><p>+otimizar()</p></span></div></foreignObject></g></g><g class="divider" style=""><path d="M-109.9375 -3.75 C-40.623904758875625 -3.7496847590892957, 28.68969048224875 -3.7493695181785913, 109.9375 -3.749 M-109.9375 -3.75 C-43.93606906036203 -3.7496998229405816, 22.06536187927594 -3.749399645881163, 109.9375 -3.749" stroke="#999" stroke-width="1.3" fill="none" stroke-dasharray="0 0" style=""/></g><g class="divider" style=""><path d="M-109.9375 20.25 C-24.579663259247425 20.25038821074129, 60.77817348150515 20.250776421482577, 109.9375 20.251 M-109.9375 20.25 C-43.120683687551846 20.250303885463616, 23.696132624896308 20.250607770927232, 109.9375 20.251" stroke="#999" stroke-width="1.3" fill="none" stroke-dasharray="0 0" style=""/></g></g><g class="node default" id="my-svg-classId-Modelo-4" data-look="classic" transform="translate(672.173828125, 606.75)"><g class="basic label-container outer-path"><path d="M-59.3828125 -72.75 L59.3828125 -72.75 L59.3828125 72.75 L-59.3828125 72.75" stroke="none" stroke-width="0" fill="#eee" style=""/><path d="M-59.3828125 -72.75 C-35.41157075095411 -72.75, -11.440329001908225 -72.75, 59.3828125 -72.75 M-59.3828125 -72.75 C-25.180528907177013 -72.75, 9.021754685645973 -72.75, 59.3828125 -72.75 M59.3828125 -72.75 C59.3828125 -31.091004746362536, 59.3828125 10.567990507274928, 59.3828125 72.75 M59.3828125 -72.75 C59.3828125 -29.60709351353391, 59.3828125 13.535812972932177, 59.3828125 72.75 M59.3828125 72.75 C14.12251860526031 72.75, -31.13777528947938 72.75, -59.3828125 72.75 M59.3828125 72.75 C24.385885745964025 72.75, -10.61104100807195 72.75, -59.3828125 72.75 M-59.3828125 72.75 C-59.3828125 28.183118192109013, -59.3828125 -16.383763615781973, -59.3828125 -72.75 M-59.3828125 72.75 C-59.3828125 19.09392071245636, -59.3828125 -34.56215857508728, -59.3828125 -72.75" stroke="#999" stroke-width="1.3" fill="none" stroke-dasharray="0 0" style=""/></g><g class="annotation-group text" transform="translate(-33.328125, -48.75)"><g class="label" style="" transform="translate(0,-11.25)"><foreignObject width="66.65625" height="22.5"><div xmlns="http://www.w3.org/1999/xhtml" style="display: table-cell; white-space: nowrap; line-height: 1.5; max-width: 120px; text-align: center;"><span class="nodeLabel markdown-node-label" style=""><p>«PyTorch»</p></span></div></foreignObject></g></g><g class="label-group text" transform="translate(-27.1875, -26.25)"><g class="label" style="font-weight: bolder" transform="translate(0,-11.25)"><foreignObject width="54.375" height="22.5"><div xmlns="http://www.w3.org/1999/xhtml" style="display: table-cell; white-space: nowrap; line-height: 1.5; max-width: 101px; text-align: center;"><span class="nodeLabel markdown-node-label" style=""><p>Modelo</p></span></div></foreignObject></g></g><g class="members-group text" transform="translate(-47.3828125, 20.25)"/><g class="methods-group text" transform="translate(-47.3828125, 50.25)"><g class="label" style="" transform="translate(0,-11.25)"><foreignObject width="61.4375" height="22.5"><div xmlns="http://www.w3.org/1999/xhtml" style="display: table-cell; white-space: nowrap; line-height: 1.5; max-width: 116px; text-align: center;"><span class="nodeLabel markdown-node-label" style=""><p>+prever()</p></span></div></foreignObject></g></g><g class="divider" style=""><path d="M-59.3828125 -3.75 C-13.20040395653617 -3.749611146671914, 32.98200458692766 -3.749222293343828, 59.3828125 -3.749 M-59.3828125 -3.75 C-24.245611450602176 -3.749704146708701, 10.891589598795647 -3.7494082934174027, 59.3828125 -3.749" stroke="#999" stroke-width="1.3" fill="none" stroke-dasharray="0 0" style=""/></g><g class="divider" style=""><path d="M-59.3828125 20.25 C-18.66873389080108 20.250342810292196, 22.045344718397843 20.250685620584395, 59.3828125 20.251 M-59.3828125 20.25 C-24.12443044773694 20.250296873628645, 11.133951604526118 20.250593747257295, 59.3828125 20.251" stroke="#999" stroke-width="1.3" fill="none" stroke-dasharray="0 0" style=""/></g></g><g class="node default" id="my-svg-classId-Assistente-5" data-look="classic" transform="translate(938.173828125, 606.75)"><g class="basic label-container outer-path"><path d="M-87.4609375 -72.75 L87.4609375 -72.75 L87.4609375 72.75 L-87.4609375 72.75" stroke="none" stroke-width="0" fill="#eee" style=""/><path d="M-87.4609375 -72.75 C-47.45622010846883 -72.75, -7.451502716937654 -72.75, 87.4609375 -72.75 M-87.4609375 -72.75 C-52.011936333943595 -72.75, -16.56293516788719 -72.75, 87.4609375 -72.75 M87.4609375 -72.75 C87.4609375 -29.952452613564958, 87.4609375 12.845094772870084, 87.4609375 72.75 M87.4609375 -72.75 C87.4609375 -18.225790703010745, 87.4609375 36.29841859397851, 87.4609375 72.75 M87.4609375 72.75 C47.62667158115562 72.75, 7.792405662311239 72.75, -87.4609375 72.75 M87.4609375 72.75 C42.96290213903778 72.75, -1.5351332219244398 72.75, -87.4609375 72.75 M-87.4609375 72.75 C-87.4609375 21.147992974785282, -87.4609375 -30.454014050429436, -87.4609375 -72.75 M-87.4609375 72.75 C-87.4609375 19.389242109787453, -87.4609375 -33.971515780425094, -87.4609375 -72.75" stroke="#999" stroke-width="1.3" fill="none" stroke-dasharray="0 0" style=""/></g><g class="annotation-group text" transform="translate(-75.4609375, -48.75)"><g class="label" style="" transform="translate(0,-11.25)"><foreignObject width="150.921875" height="22.5"><div xmlns="http://www.w3.org/1999/xhtml" style="display: table-cell; white-space: nowrap; line-height: 1.5; max-width: 210px; text-align: center;"><span class="nodeLabel markdown-node-label" style=""><p>«LLM local via Ollama»</p></span></div></foreignObject></g></g><g class="label-group text" transform="translate(-35.7421875, -26.25)"><g class="label" style="font-weight: bolder" transform="translate(0,-11.25)"><foreignObject width="71.484375" height="22.5"><div xmlns="http://www.w3.org/1999/xhtml" style="display: table-cell; white-space: nowrap; line-height: 1.5; max-width: 117px; text-align: center;"><span class="nodeLabel markdown-node-label" style=""><p>Assistente</p></span></div></foreignObject></g></g><g class="members-group text" transform="translate(-75.4609375, 20.25)"/><g class="methods-group text" transform="translate(-75.4609375, 50.25)"><g class="label" style="" transform="translate(0,-11.25)"><foreignObject width="62.53125" height="22.5"><div xmlns="http://www.w3.org/1999/xhtml" style="display: table-cell; white-space: nowrap; line-height: 1.5; max-width: 118px; text-align: center;"><span class="nodeLabel markdown-node-label" style=""><p>+redigir()</p></span></div></foreignObject></g></g><g class="divider" style=""><path d="M-87.4609375 -3.75 C-32.5982159498564 -3.749686358715569, 22.264505600287194 -3.7493727174311373, 87.4609375 -3.749 M-87.4609375 -3.75 C-44.32130223403933 -3.7497533776992387, -1.181666968078659 -3.7495067553984778, 87.4609375 -3.749" stroke="#999" stroke-width="1.3" fill="none" stroke-dasharray="0 0" style=""/></g><g class="divider" style=""><path d="M-87.4609375 20.25 C-25.758243494295492 20.250352744298024, 35.944450511409016 20.250705488596047, 87.4609375 20.251 M-87.4609375 20.25 C-22.571286399370436 20.250370963615048, 42.31836470125913 20.25074192723009, 87.4609375 20.251" stroke="#999" stroke-width="1.3" fill="none" stroke-dasharray="0 0" style=""/></g></g></g></g></g><defs><filter id="my-svg-drop-shadow" height="130%" width="130%"><feDropShadow dx="4" dy="4" stdDeviation="0" flood-opacity="0.06" flood-color="#000000"/></filter></defs><defs><filter id="my-svg-drop-shadow-small" height="150%" width="150%"><feDropShadow dx="2" dy="2" stdDeviation="0" flood-opacity="0.06" flood-color="#000000"/></filter></defs><linearGradient id="my-svg-gradient" gradientUnits="objectBoundingBox" x1="0%" y1="0%" x2="100%" y2="0%"><stop offset="0%" stop-color="hsl(0, 0%, 83.3333333333%)" stop-opacity="1"/><stop offset="100%" stop-color="hsl(0, 0%, 88.9215686275%)" stop-opacity="1"/></linearGradient></svg>