<svg id="my-svg" width="100%" xmlns="http://www.w3.org/2000/svg" xmlns:xlink="http://www.w3.org/1999/xlink" class="classDiagram" style="max-width: 1080.62px; background-color: white;" viewBox="0 0 1080.619140625 710" role="graphics-document document" aria-roledescription="classDiagram"><style>#my-svg{font-family:Segoe UI,Calibri,sans-serif;font-size:15px;fill:#000000;}@keyframes edge-animation-frame{from{stroke-dashoffset:0;}}@keyframes dash{to{stroke-dashoffset:0;}}#my-svg .edge-animation-slow{stroke-dasharray:9,5!important;stroke-dashoffset:900;animation:dash 50s linear infinite;stroke-linecap:round;}#my-svg .edge-animation-fast{stroke-dasharray:9,5!important;stroke-dashoffset:900;animation:dash 20s linear infinite;stroke-linecap:round;}#my-svg .error-icon{fill:#552222;}#my-svg .error-text{fill:#552222;stroke:#552222;}#my-svg .edge-thickness-normal{stroke-width:1px;}#my-svg .edge-thickness-thick{stroke-width:3.5px;}#my-svg .edge-pattern-solid{stroke-dasharray:0;}#my-svg .edge-thickness-invisible{stroke-width:0;fill:none;}#my-svg .edge-pattern-dashed{stroke-dasharray:3;}#my-svg .edge-pattern-dotted{stroke-dasharray:2;}#my-svg .marker{fill:#666;stroke:#666;}#my-svg .marker.cross{stroke:#666;}#my-svg svg{font-family:Segoe UI,Calibri,sans-serif;font-size:15px;}#my-svg p{margin:0;}#my-svg g.classGroup text{fill:#999;stroke:none;font-family:Segoe UI,Calibri,sans-serif;font-size:10px;}#my-svg g.classGroup text .title{font-weight:bolder;}#my-svg .cluster-label text{fill:#333;}#my-svg .cluster-label span{color:#333;}#my-svg .cluster-label span p{background-color:transparent;}#my-svg .cluster rect{fill:hsl(0, 0%, 98.9215686275%);stroke:#707070;stroke-width:1px;}#my-svg .cluster text{fill:#333;}#my-svg .cluster span{color:#333;}#my-svg .nodeLabel,#my-svg .edgeLabel{color:#111111;}#my-svg .noteLabel .nodeLabel,#my-svg .noteLabel .edgeLabel{color:#fff;}#my-svg .edgeLabel .label rect{fill:#eee;}#my-svg .label text{fill:#111111;}#my-svg .labelBkg{background:#eee;}#my-svg .edgeLabel .label span{background:#eee;}#my-svg .classTitle{font-weight:bolder;}#my-svg .node rect,#my-svg .node circle,#my-svg .node ellipse,#my-svg .node polygon,#my-svg .node path{fill:#eee;stroke:#999;stroke-width:1;}#my-svg .divider{stroke:#999;stroke-width:1;}#my-svg g.clickable{cursor:pointer;}#my-svg g.classGroup rect{fill:#eee;stroke:#999;}#my-svg g.classGroup line{stroke:#999;stroke-width:1;}#my-svg .classLabel .box{stroke:none;stroke-width:0;fill:#eee;opacity:0.5;}#my-svg .classLabel .label{fill:#999;font-size:10px;}#my-svg .relation{stroke:#666;stroke-width:1;fill:none;}#my-svg .dashed-line{stroke-dasharray:3;}#my-svg .dotted-line{stroke-dasharray:1 2;}#my-svg [id$="-compositionStart"],#my-svg .composition{fill:#666!important;stroke:#666!important;stroke-width:1;}#my-svg [id$="-compositionEnd"],#my-svg .composition{fill:#666!important;stroke:#666!important;stroke-width:1;}#my-svg [id$="-dependencyStart"],#my-svg .dependency{fill:#666!important;stroke:#666!important;stroke-width:1;}#my-svg [id$="-dependencyEnd"],#my-svg .dependency{fill:#666!important;stroke:#666!important;stroke-width:1;}#my-svg [id$="-extensionStart"],#my-svg .extension{fill:transparent!important;stroke:#666!important;stroke-width:1;}#my-svg [id$="-extensionEnd"],#my-svg .extension{fill:transparent!important;stroke:#666!important;stroke-width:1;}#my-svg [id$="-aggregationStart"],#my-svg .aggregation{fill:transparent!important;stroke:#666!important;stroke-width:1;}#my-svg [id$="-aggregationEnd"],#my-svg .aggregation{fill:transparent!important;stroke:#666!important;stroke-width:1;}#my-svg [id$="-lollipopStart"],#my-svg .lollipop{fill:#eee!important;stroke:#666!important;stroke-width:1;}#my-svg [id$="-lollipopEnd"],#my-svg .lollipop{fill:#eee!important;stroke:#666!important;stroke-width:1;}#my-svg .edgeTerminals{font-size:11px;line-height:initial;}#my-svg .classTitleText{text-anchor:middle;font-size:18px;fill:#000000;}#my-svg .edgeLabel[data-look="neo"]{background-color:white;text-align:center;}#my-svg .edgeLabel[data-look="neo"] p{background-color:white;}#my-svg .edgeLabel[data-look="neo"] rect{opacity:0.5;background-color:white;fill:white;}#my-svg .label-icon{display:inline-block;height:1em;overflow:visible;vertical-align:-0.125em;}#my-svg .node .label-icon path{fill:currentColor;stroke:revert;stroke-width:revert;}#my-svg .node .neo-node{stroke:#999;}#my-svg [data-look="neo"].node rect,#my-svg [data-look="neo"].cluster rect,#my-svg [data-look="neo"].node polygon{stroke:url(#my-svg-gradient);filter:drop-shadow( 1px 2px 2px rgba(185,185,185,1));}#my-svg [data-look="neo"].swimlane.cluster rect{filter:none;}#my-svg [data-look="neo"].node path{stroke:url(#my-svg-gradient);stroke-width:1px;}#my-svg [data-look="neo"].node .outer-path{filter:drop-shadow( 1px 2px 2px rgba(185,185,185,1));}#my-svg [data-look="neo"].node .neo-line path{stroke:#999;filter:none;}#my-svg [data-look="neo"].node circle{stroke:url(#my-svg-gradient);filter:drop-shadow( 1px 2px 2px rgba(185,185,185,1));}#my-svg [data-look="neo"].node circle .state-start{fill:#000000;}#my-svg [data-look="neo"].icon-shape .icon{fill:url(#my-svg-gradient);filter:drop-shadow( 1px 2px 2px rgba(185,185,185,1));}#my-svg [data-look="neo"].icon-shape .icon-neo path{stroke:url(#my-svg-gradient);filter:drop-shadow( 1px 2px 2px rgba(185,185,185,1));}#my-svg :root{--mermaid-font-family:"trebuchet ms",verdana,arial,sans-serif;}</style><g><defs><marker id="my-svg_classDiagram-aggregationStart" class="marker aggregation classDiagram" refX="18" refY="7" markerWidth="190" markerHeight="240" orient="auto" markerUnits="userSpaceOnUse"><path d="M 18,7 L9,13 L1,7 L9,1 Z"/></marker></defs><defs><marker id="my-svg_classDiagram-aggregationEnd" class="marker aggregation classDiagram" refX="1" refY="7" markerWidth="20" markerHeight="28" orient="auto" markerUnits="userSpaceOnUse"><path d="M 18,7 L9,13 L1,7 L9,1 Z"/></marker></defs><defs><marker id="my-svg_classDiagram-aggregationStart-margin" class="marker aggregation classDiagram" refX="15" refY="7" markerWidth="190" markerHeight="240" orient="auto" markerUnits="userSpaceOnUse"><path d="M 18,7 L9,13 L1,7 L9,1 Z" style="stroke-width: 2;"/></marker></defs><defs><marker id="my-svg_classDiagram-aggregationEnd-margin" class="marker aggregation classDiagram" refX="1" refY="7" markerWidth="20" markerHeight="28" orient="auto" markerUnits="userSpaceOnUse"><path d="M 18,7 L9,13 L1,7 L9,1 Z" style="stroke-width: 2;"/></marker></defs><defs><marker id="my-svg_classDiagram-extensionStart" class="marker extension classDiagram" refX="18" refY="7" markerWidth="20" markerHeight="28" orient="auto" markerUnits="userSpaceOnUse"><path d="M 1,7 L18,13 V 1 Z"/></marker></defs><defs><marker id="my-svg_classDiagram-extensionEnd" class="marker extension classDiagram" refX="1" refY="7" markerWidth="20" markerHeight="28" orient="auto" markerUnits="userSpaceOnUse"><path d="M 1,1 V 13 L18,7 Z"/></marker></defs><marker id="my-svg_classDiagram-extensionStart-margin" class="marker extension classDiagram" refX="18" refY="7" markerWidth="20" markerHeight="28" orient="auto" markerUnits="userSpaceOnUse" viewBox="0 0 20 14"><polygon points="10,7 18,13 18,1" style="stroke-width: 2; stroke-dasharray: 0;"/></marker><defs><marker id="my-svg_classDiagram-extensionEnd-margin" class="marker extension classDiagram" refX="9" refY="7" markerWidth="20" markerHeight="28" orient="auto" markerUnits="userSpaceOnUse" viewBox="0 0 20 14"><polygon points="10,1 10,13 18,7" style="stroke-width: 2; stroke-dasharray: 0;"/></marker></defs><defs><marker id="my-svg_classDiagram-compositionStart" class="marker composition classDiagram" refX="18" refY="7" markerWidth="190" markerHeight="240" orient="auto" markerUnits="userSpaceOnUse"><path d="M 18,7 L9,13 L1,7 L9,1 Z"/></marker></defs><defs><marker id="my-svg_classDiagram-compositionEnd" class="marker composition classDiagram" refX="1" refY="7" markerWidth="20" markerHeight="28" orient="auto" markerUnits="userSpaceOnUse"><path d="M 18,7 L9,13 L1,7 L9,1 Z"/></marker></defs><defs><marker id="my-svg_classDiagram-compositionStart-margin" class="marker composition classDiagram" refX="15" refY="7" markerWidth="190" markerHeight="240" orient="auto" markerUnits="userSpaceOnUse"><path viewBox="0 0 15 15" d="M 18,7 L9,13 L1,7 L9,1 Z" style="stroke-width: 0;"/></marker></defs><defs><marker id="my-svg_classDiagram-compositionEnd-margin" class="marker composition classDiagram" refX="3.5" refY="7" markerWidth="20" markerHeight="28" orient="auto" markerUnits="userSpaceOnUse"><path d="M 18,7 L9,13 L1,7 L9,1 Z" style="stroke-width: 0;"/></marker></defs><defs><marker id="my-svg_classDiagram-dependencyStart" class="marker dependency classDiagram" refX="6" refY="7" markerWidth="190" markerHeight="240" orient="auto" markerUnits="userSpaceOnUse"><path d="M 5,7 L9,13 L1,7 L9,1 Z"/></marker></defs><defs><marker id="my-svg_classDiagram-dependencyEnd" class="marker dependency classDiagram" refX="13" refY="7" markerWidth="20" markerHeight="28" orient="auto" markerUnits="userSpaceOnUse"><path d="M 18,7 L9,13 L14,7 L9,1 Z"/></marker></defs><defs><marker id="my-svg_classDiagram-dependencyStart-margin" class="marker dependency classDiagram" refX="4" refY="7" markerWidth="190" markerHeight="240" orient="auto" markerUnits="userSpaceOnUse"><path d="M 5,7 L9,13 L1,7 L9,1 Z" style="stroke-width: 0;"/></marker></defs><defs><marker id="my-svg_classDiagram-dependencyEnd-margin" class="marker dependency classDiagram" refX="16" refY="7" markerWidth="20" markerHeight="28" orient="auto" markerUnits="userSpaceOnUse"><path d="M 18,7 L9,13 L14,7 L9,1 Z" style="stroke-width: 0;"/></marker></defs><defs><marker id="my-svg_classDiagram-lollipopStart" class="marker lollipop classDiagram" refX="13" refY="7" markerWidth="190" markerHeight="240" orient="auto" markerUnits="userSpaceOnUse"><circle fill="transparent" cx="7" cy="7" r="6"/></marker></defs><defs><marker id="my-svg_classDiagram-lollipopEnd" class="marker lollipop classDiagram" refX="1" refY="7" markerWidth="190" markerHeight="240" orient="auto" markerUnits="userSpaceOnUse"><circle fill="transparent" cx="7" cy="7" r="6"/></marker></defs><defs><marker id="my-svg_classDiagram-lollipopStart-margin" class="marker lollipop classDiagram" refX="13" refY="7" markerWidth="190" markerHeight="240" orient="auto" markerUnits="userSpaceOnUse"><circle fill="transparent" cx="7" cy="7" r="6" stroke-width="2"/></marker></defs><defs><marker id="my-svg_classDiagram-lollipopEnd-margin" class="marker lollipop classDiagram" refX="1" refY="7" markerWidth="190" markerHeight="240" orient="auto" markerUnits="userSpaceOnUse"><circle fill="transparent" cx="7" cy="7" r="6" stroke-width="2"/></marker></defs><g class="root"><g class="clusters"/><g class="edgePaths"><path d="M604.748,176L604.748,182.042C604.748,188.083,604.748,200.167,604.748,211.25C604.748,222.333,604.748,232.417,604.748,237.458L604.748,242.5" id="my-svg-id_Interface_API_1" class="edge-thickness-normal edge-pattern-solid relation" style=";;;" data-edge="true" data-et="edge" data-id="id_Interface_API_1" data-points="W3sieCI6NjA0Ljc0ODA0Njg3NSwieSI6MTc2fSx7IngiOjYwNC43NDgwNDY4NzUsInkiOjIxMi4yNX0seyJ4Ijo2MDQuNzQ4MDQ2ODc1LCJ5IjoyNDguNX1d" data-look="classic" marker-end="url(#my-svg_classDiagram-dependencyEnd)"/><path d="M507.1,382.198L437.955,401.456C368.81,420.715,230.52,459.233,161.375,485.908C92.23,512.583,92.23,527.417,92.23,534.833L92.23,542.25" id="my-svg-id_API_Dominio_2" class="edge-thickness-normal edge-pattern-solid relation" style=";;;" data-edge="true" data-et="edge" data-id="id_API_Dominio_2" data-points="W3sieCI6NTA3LjA5OTYwOTM3NSwieSI6MzgyLjE5NzcyOTQ5ODYwNzE1fSx7IngiOjkyLjIzMDQ2ODc1LCJ5Ijo0OTcuNzV9LHsieCI6OTIuMjMwNDY4NzUsInkiOjU0OC4yNX1d" data-look="classic" marker-end="url(#my-svg_classDiagram-dependencyEnd)"/><path d="M507.1,396.929L467.965,413.732C428.831,430.536,350.563,464.143,316.617,488.055C282.67,511.968,293.045,526.186,298.233,533.294L303.42,540.403" id="my-svg-id_API_Nucleo_3" class="edge-thickness-normal edge-pattern-solid relation" style=";;;" data-edge="true" data-et="edge" data-id="id_API_Nucleo_3" data-points="W3sieCI6NTA3LjA5OTYwOTM3NSwieSI6Mzk2LjkyODY2MTIzMDQzNjZ9LHsieCI6MjcyLjI5NDkyMTg3NSwieSI6NDk3Ljc1fSx7IngiOjMwNi45NTcwODQwMzcxNjIyLCJ5Ijo1NDUuMjV9XQ==" data-look="classic" marker-end="url(#my-svg_classDiagram-dependencyEnd)"/><path d="M604.748,461.5L604.748,467.542C604.748,473.583,604.748,485.667,608.176,496.915C611.604,508.163,618.46,518.576,621.887,523.782L625.315,528.989" id="my-svg-id_API_Modelo_4" class="edge-thickness-normal edge-pattern-solid relation" style=";;;" data-edge="true" data-et="edge" data-id="id_API_Modelo_4" data-points="W3sieCI6NjA0Ljc0ODA0Njg3NSwieSI6NDYxLjV9LHsieCI6NjA0Ljc0ODA0Njg3NSwieSI6NDk3Ljc1fSx7IngiOjYyOC42MTQ4MjgzMTk5MDY1LCJ5Ijo1MzR9XQ==" data-look="classic" marker-end="url(#my-svg_classDiagram-dependencyEnd)"/><path d="M702.396,397.017L741.415,413.805C780.433,430.594,858.469,464.172,900.316,487.951C942.162,511.729,947.818,525.709,950.646,532.698L953.474,539.688" id="my-svg-id_API_Assistente_5" class="edge-thickness-normal edge-pattern-solid relation" style=";;;" data-edge="true" data-et="edge" data-id="id_API_Assistente_5" data-points="W3sieCI6NzAyLjM5NjQ4NDM3NSwieSI6Mzk3LjAxNjUzNzE0ODIzOTd9LHsieCI6OTM2LjUwNTg1OTM3NSwieSI6NDk3Ljc1fSx7IngiOjk1NS43MjQwNDA4OTc4NjksInkiOjU0NS4yNX1d" data-look="classic" marker-end="url(#my-svg_classDiagram-dependencyEnd)"/><path d="M413.133,545.25L418.91,537.333C424.687,529.417,436.241,513.583,451.162,497.35C466.084,481.116,484.372,464.483,493.517,456.166L502.661,447.849" id="my-svg-id_Nucleo_API_6" class="edge-thickness-normal edge-pattern-solid relation" style=";;;" data-edge="true" data-et="edge" data-id="id_Nucleo_API_6" data-points="W3sieCI6NDEzLjEzMjc1OTcxMjgzNzgsInkiOjU0NS4yNX0seyJ4Ijo0NDcuNzk0OTIxODc1LCJ5Ijo0OTcuNzV9LHsieCI6NTA3LjA5OTYwOTM3NSwieSI6NDQzLjgxMTk1ODY4NTkxMzR9XQ==" data-look="classic" marker-end="url(#my-svg_classDiagram-dependencyEnd)"/><path d="M739.225,534L743.203,527.958C747.181,521.917,755.136,509.833,749.741,495.342C744.345,480.85,725.599,463.95,716.226,455.5L706.853,447.05" id="my-svg-id_Modelo_API_7" class="edge-thickness-normal edge-pattern-solid relation" style=";;;" data-edge="true" data-et="edge" data-id="id_Modelo_API_7" data-points="W3sieCI6NzM5LjIyNTAxNTQzMDA5MzUsInkiOjUzNH0seyJ4Ijo3NjMuMDkxNzk2ODc1LCJ5Ijo0OTcuNzV9LHsieCI6NzAyLjM5NjQ4NDM3NSwieSI6NDQzLjAzMTk4MzkxNTUzMTl9XQ==" data-look="classic" marker-end="url(#my-svg_classDiagram-dependencyEnd)"/><path d="M1014.592,545.25L1017.795,537.333C1020.998,529.417,1027.404,513.583,976.321,487.605C925.237,461.627,816.663,425.505,762.376,407.443L708.09,389.382" id="my-svg-id_Assistente_API_8" class="edge-thickness-normal edge-pattern-solid relation" style=";;;" data-edge="true" data-et="edge" data-id="id_Assistente_API_8" data-points="W3sieCI6MTAxNC41OTIzNjUzNTIxMzEsInkiOjU0NS4yNX0seyJ4IjoxMDMzLjgxMDU0Njg3NSwieSI6NDk3Ljc1fSx7IngiOjcwMi4zOTY0ODQzNzUsInkiOjM4Ny40ODc4NDE0MDU2ODA5N31d" data-look="classic" marker-end="url(#my-svg_classDiagram-dependencyEnd)"/></g><g class="edgeLabels"><g class="edgeLabel" transform="translate(604.748046875, 212.25)"><g class="label" data-id="id_Interface_API_1" transform="translate(-31.21875, -11.25)"><foreignObject width="62.4375" height="22.5"><div xmlns="http://www.w3.org/1999/xhtml" class="labelBkg" style="display: table-cell; white-space: nowrap; line-height: 1.5; max-width: 200px; text-align: center;"><span class="edgeLabel"><p>REST /api</p></span></div></foreignObject></g></g><g class="edgeLabel" transform="translate(92.23046875, 497.75)"><g class="label" data-id="id_API_Dominio_2" transform="translate(-32.0234375, -11.25)"><foreignObject width="64.046875" height="22.5"><div xmlns="http://www.w3.org/1999/xhtml" class="labelBkg" style="display: table-cell; white-space: nowrap; line-height: 1.5; max-width: 200px; text-align: center;"><span class="edgeLabel"><p>lê e grava</p></span></div></foreignObject></g></g><g class="edgeLabel" transform="translate(362.68128, 458.93956)"><g class="label" data-id="id_API_Nucleo_3" transform="translate(-63.9375, -11.25)"><foreignObject width="127.875" height="22.5"><div xmlns="http://www.w3.org/1999/xhtml" class="labelBkg" style="display: table-cell; white-space: nowrap; line-height: 1.5; max-width: 200px; text-align: center;"><span class="edgeLabel"><p>cenário e restrições</p></span></div></foreignObject></g></g><g class="edgeLabel" transform="translate(604.748046875, 497.75)"><g class="label" data-id="id_API_Modelo_4" transform="translate(-45.390625, -11.25)"><foreignObject width="90.78125" height="22.5"><div xmlns="http://www.w3.org/1999/xhtml" class="labelBkg" style="display: table-cell; white-space: nowrap; line-height: 1.5; max-width: 200px; text-align: center;"><span class="edgeLabel"><p>série histórica</p></span></div></foreignObject></g></g><g class="edgeLabel" transform="translate(842.98528, 457.50961)"><g class="label" data-id="id_API_Assistente_5" transform="translate(-60.4609375, -11.25)"><foreignObject width="120.921875" height="22.5"><div xmlns="http://www.w3.org/1999/xhtml" class="labelBkg" style="display: table-cell; white-space: nowrap; line-height: 1.5; max-width: 200px; text-align: center;"><span class="edgeLabel"><p>fatos já calculados</p></span></div></foreignObject></g></g><g class="edgeLabel" transform="translate(447.794921875, 497.75)"><g class="label" data-id="id_Nucleo_API_6" transform="translate(-91.5625, -11.25)"><foreignObject width="183.125" height="22.5"><div xmlns="http://www.w3.org/1999/xhtml" class="labelBkg" style="display: table-cell; white-space: nowrap; line-height: 1.5; max-width: 200px; text-align: center;"><span class="edgeLabel"><p>plano e tempo de execução</p></span></div></foreignObject></g></g><g class="edgeLabel" transform="translate(748.86198, 484.92154)"><g class="label" data-id="id_Modelo_API_7" transform="translate(-92.953125, -11.25)"><foreignObject width="185.90625" height="22.5"><div xmlns="http://www.w3.org/1999/xhtml" class="labelBkg" style="display: table-cell; white-space: nowrap; line-height: 1.5; max-width: 200px; text-align: center;"><span class="edgeLabel"><p>faturamento previsto e risco</p></span></div></foreignObject></g></g><g class="edgeLabel" transform="translate(892.41362, 450.70694)"><g class="label" data-id="id_Assistente_API_8" transform="translate(-16.84375, -11.25)"><foreignObject width="33.6875" height="22.5"><div xmlns="http://www.w3.org/1999/xhtml" class="labelBkg" style="display: table-cell; white-space: nowrap; line-height: 1.5; max-width: 200px; text-align: center;"><span class="edgeLabel"><p>texto</p></span></div></foreignObject></g></g></g><g class="nodes"><g class="node default" id="my-svg-classId-Interface-0" data-look="classic" transform="translate(604.748046875, 92)"><g class="basic label-container outer-path"><path d="M-68.1171875 -84 L68.1171875 -84 L68.1171875 84 L-68.1171875 84" stroke="none" stroke-width="0" fill="#eee" style=""/><path d="M-68.1171875 -84 C-15.336315900603552 -84, 37.4445556987929 -84, 68.1171875 -84 M-68.1171875 -84 C-25.267670680138387 -84, 17.581846139723226 -84, 68.1171875 -84 M68.1171875 -84 C68.1171875 -28.32615999648516, 68.1171875 27.34768000702968, 68.1171875 84 M68.1171875 -84 C68.1171875 -48.23195548235256, 68.1171875 -12.463910964705121, 68.1171875 84 M68.1171875 84 C35.38002223260957 84, 2.6428569652191385 84, -68.1171875 84 M68.1171875 84 C24.08855177733207 84, -19.940083945335857 84, -68.1171875 84 M-68.1171875 84 C-68.1171875 21.368414658508648, -68.1171875 -41.263170682982704, -68.1171875 -84 M-68.1171875 84 C-68.1171875 23.666975722055476, -68.1171875 -36.66604855588905, -68.1171875 -84" stroke="#999" stroke-width="1.3" fill="none" stroke-dasharray="0 0" style=""/></g><g class="annotation-group text" transform="translate(-47.78125, -60)"><g class="label" style="" transform="translate(0,-11.25)"><foreignObject width="95.5625" height="22.5"><div xmlns="http://www.w3.org/1999/xhtml" style="display: table-cell; white-space: nowrap; line-height: 1.5; max-width: 146px; text-align: center;"><span class="nodeLabel markdown-node-label" style=""><p>«React + Vite»</p></span></div></foreignObject></g></g><g class="label-group text" transform="translate(-31.6015625, -37.5)"><g class="label" style="font-weight: bolder" transform="translate(0,-11.25)"><foreignObject width="63.203125" height="22.5"><div xmlns="http://www.w3.org/1999/xhtml" style="display: table-cell; white-space: nowrap; line-height: 1.5; max-width: 107px; text-align: center;"><span class="nodeLabel markdown-node-label" style=""><p>Interface</p></span></div></foreignObject></g></g><g class="members-group text" transform="translate(-56.1171875, 9)"/><g class="methods-group text" transform="translate(-56.1171875, 39)"><g class="label" style="" transform="translate(0,-11.25)"><foreignObject width="55.34375" height="22.5"><div xmlns="http://www.w3.org/1999/xhtml" style="display: table-cell; white-space: nowrap; line-height: 1.5; max-width: 112px; text-align: center;"><span class="nodeLabel markdown-node-label" style=""><p>+exibir()</p></span></div></foreignObject></g><g class="label" style="" transform="translate(0,11.25)"><foreignObject width="64.453125" height="22.5"><div xmlns="http://www.w3.org/1999/xhtml" style="display: table-cell; white-space: nowrap; line-height: 1.5; max-width: 119px; text-align: center;"><span class="nodeLabel markdown-node-label" style=""><p>+coletar()</p></span></div></foreignObject></g></g><g class="divider" style=""><path d="M-68.1171875 -15 C-34.87722179315938 -14.999756008968317, -1.6372560863187573 -14.999512017936636, 68.1171875 -14.999 M-68.1171875 -15 C-38.42002256344581 -14.999782014158052, -8.722857626891617 -14.999564028316106, 68.1171875 -14.999" stroke="#999" stroke-width="1.3" fill="none" stroke-dasharray="0 0" style=""/></g><g class="divider" style=""><path d="M-68.1171875 9 C-26.15360943911724 9.000308024887705, 15.80996862176552 9.00061604977541, 68.1171875 9.001 M-68.1171875 9 C-18.39650062917123 9.000364964326153, 31.324186241657543 9.000729928652307, 68.1171875 9.001" stroke="#999" stroke-width="1.3" fill="none" stroke-dasharray="0 0" style=""/></g></g><g class="node default" id="my-svg-classId-API-1" data-look="classic" transform="translate(604.748046875, 355)"><g class="basic label-container outer-path"><path d="M-97.6484375 -106.5 L97.6484375 -106.5 L97.6484375 106.5 L-97.6484375 106.5" stroke="none" stroke-width="0" fill="#eee" style=""/><path d="M-97.6484375 -106.5 C-29.446560376416244 -106.5, 38.75531674716751 -106.5, 97.6484375 -106.5 M-97.6484375 -106.5 C-55.9076634422942 -106.5, -14.166889384588401 -106.5, 97.6484375 -106.5 M97.6484375 -106.5 C97.6484375 -26.498841391055066, 97.6484375 53.50231721788987, 97.6484375 106.5 M97.6484375 -106.5 C97.6484375 -51.83588917950205, 97.6484375 2.8282216409959062, 97.6484375 106.5 M97.6484375 106.5 C37.78542235422207 106.5, -22.07759279155586 106.5, -97.6484375 106.5 M97.6484375 106.5 C30.318501597935963 106.5, -37.01143430412807 106.5, -97.6484375 106.5 M-97.6484375 106.5 C-97.6484375 23.776921499588, -97.6484375 -58.946157000824, -97.6484375 -106.5 M-97.6484375 106.5 C-97.6484375 58.92595282524921, -97.6484375 11.351905650498423, -97.6484375 -106.5" stroke="#999" stroke-width="1.3" fill="none" stroke-dasharray="0 0" style=""/></g><g class="annotation-group text" transform="translate(-64.0625, -82.5)"><g class="label" style="" transform="translate(0,-11.25)"><foreignObject width="128.125" height="22.5"><div xmlns="http://www.w3.org/1999/xhtml" style="display: table-cell; white-space: nowrap; line-height: 1.5; max-width: 181px; text-align: center;"><span class="nodeLabel markdown-node-label" style=""><p>«Python + FastAPI»</p></span></div></foreignObject></g></g><g class="label-group text" transform="translate(-12.2578125, -60)"><g class="label" style="font-weight: bolder" transform="translate(0,-11.25)"><foreignObject width="24.515625" height="22.5"><div xmlns="http://www.w3.org/1999/xhtml" style="display: table-cell; white-space: nowrap; line-height: 1.5; max-width: 77px; text-align: center;"><span class="nodeLabel markdown-node-label" style=""><p>API</p></span></div></foreignObject></g></g><g class="members-group text" transform="translate(-85.6484375, -13.5)"/><g class="methods-group text" transform="translate(-85.6484375, 16.5)"><g class="label" style="" transform="translate(0,-11.25)"><foreignObject width="77.796875" height="22.5"><div xmlns="http://www.w3.org/1999/xhtml" style="display: table-cell; white-space: nowrap; line-height: 1.5; max-width: 132px; text-align: center;"><span class="nodeLabel markdown-node-label" style=""><p>+autorizar()</p></span></div></foreignObject></g><g class="label" style="" transform="translate(0,11.25)"><foreignObject width="107.234375" height="22.5"><div xmlns="http://www.w3.org/1999/xhtml" style="display: table-cell; white-space: nowrap; line-height: 1.5; max-width: 163px; text-align: center;"><span class="nodeLabel markdown-node-label" style=""><p>+aplicarRegras()</p></span></div></foreignObject></g><g class="label" style="" transform="translate(0,33.75)"><foreignObject width="71.484375" height="22.5"><div xmlns="http://www.w3.org/1999/xhtml" style="display: table-cell; white-space: nowrap; line-height: 1.5; max-width: 127px; text-align: center;"><span class="nodeLabel markdown-node-label" style=""><p>+persistir()</p></span></div></foreignObject></g><g class="label" style="" transform="translate(0,56.25)"><foreignObject width="88" height="22.5"><div xmlns="http://www.w3.org/1999/xhtml" style="display: table-cell; white-space: nowrap; line-height: 1.5; max-width: 140px; text-align: center;"><span class="nodeLabel markdown-node-label" style=""><p>+orquestrar()</p></span></div></foreignObject></g></g><g class="divider" style=""><path d="M-97.6484375 -37.5 C-49.593431636311315 -37.499753938685075, -1.538425772622631 -37.49950787737015, 97.6484375 -37.499 M-97.6484375 -37.5 C-54.7293078105127 -37.499780236474905, -11.810178121025402 -37.49956047294982, 97.6484375 -37.499" stroke="#999" stroke-width="1.3" fill="none" stroke-dasharray="0 0" style=""/></g><g class="divider" style=""><path d="M-97.6484375 -13.5 C-53.42478743383599 -13.499773556796205, -9.201137367671976 -13.49954711359241, 97.6484375 -13.499 M-97.6484375 -13.5 C-48.31728750712773 -13.499747404304381, 1.0138624857445393 -13.499494808608762, 97.6484375 -13.499" stroke="#999" stroke-width="1.3" fill="none" stroke-dasharray="0 0" style=""/></g></g><g class="node default" id="my-svg-classId-Dominio-2" data-look="classic" transform="translate(92.23046875, 618)"><g class="basic label-container outer-path"><path d="M-84.23046875 -69.75 L84.23046875 -69.75 L84.23046875 69.75 L-84.23046875 69.75" stroke="none" stroke-width="0" fill="#eee" style=""/><path d="M-84.23046875 -69.75 C-18.256851731370062 -69.75, 47.716765287259875 -69.75, 84.23046875 -69.75 M-84.23046875 -69.75 C-30.46936250229834 -69.75, 23.291743745403323 -69.75, 84.23046875 -69.75 M84.23046875 -69.75 C84.23046875 -21.523106506720865, 84.23046875 26.70378698655827, 84.23046875 69.75 M84.23046875 -69.75 C84.23046875 -39.286440373497854, 84.23046875 -8.822880746995708, 84.23046875 69.75 M84.23046875 69.75 C49.5440088124292 69.75, 14.857548874858395 69.75, -84.23046875 69.75 M84.23046875 69.75 C26.135875418438673 69.75, -31.958717913122655 69.75, -84.23046875 69.75 M-84.23046875 69.75 C-84.23046875 36.171714196070944, -84.23046875 2.593428392141888, -84.23046875 -69.75 M-84.23046875 69.75 C-84.23046875 27.14642035033559, -84.23046875 -15.457159299328822, -84.23046875 -69.75" stroke="#999" stroke-width="1.3" fill="none" stroke-dasharray="0 0" style=""/></g><g class="annotation-group text" transform="translate(-49.3515625, -45.75)"><g class="label" style="" transform="translate(0,-11.25)"><foreignObject width="98.703125" height="22.5"><div xmlns="http://www.w3.org/1999/xhtml" style="display: table-cell; white-space: nowrap; line-height: 1.5; max-width: 155px; text-align: center;"><span class="nodeLabel markdown-node-label" style=""><p>«SQLAlchemy»</p></span></div></foreignObject></g></g><g class="label-group text" transform="translate(-30.375, -23.25)"><g class="label" style="font-weight: bolder" transform="translate(0,-11.25)"><foreignObject width="60.75" height="22.5"><div xmlns="http://www.w3.org/1999/xhtml" style="display: table-cell; white-space: nowrap; line-height: 1.5; max-width: 108px; text-align: center;"><span class="nodeLabel markdown-node-label" style=""><p>Dominio</p></span></div></foreignObject></g></g><g class="members-group text" transform="translate(-72.23046875, 23.25)"><g class="label" style="" transform="translate(0,-11.25)"><foreignObject width="95.109375" height="22.5"><div xmlns="http://www.w3.org/1999/xhtml" style="display: table-cell; white-space: nowrap; line-height: 1.5; max-width: 145px; text-align: center;"><span class="nodeLabel markdown-node-label" style=""><p>+20 entidades</p></span></div></foreignObject></g></g><g class="methods-group text" transform="translate(-72.23046875, 69.75)"/><g class="divider" style=""><path d="M-84.23046875 -0.75 C-48.59819334695423 -0.7497884834553824, -12.965917943908465 -0.7495769669107647, 84.23046875 -0.749 M-84.23046875 -0.75 C-41.97190512951716 -0.7497491491840921, 0.28665849096567797 -0.7494982983681843, 84.23046875 -0.749" stroke="#999" stroke-width="1.3" fill="none" stroke-dasharray="0 0" style=""/></g><g class="divider" style=""><path d="M-84.23046875 45.75 C-38.98534429831119 45.750268579322444, 6.259780153377619 45.75053715864488, 84.23046875 45.751 M-84.23046875 45.75 C-17.254670849493593 45.750397574647835, 49.721127051012814 45.75079514929567, 84.23046875 45.751" stroke="#999" stroke-width="1.3" fill="none" stroke-dasharray="0 0" style=""/></g></g><g class="node default" id="my-svg-classId-Nucleo-3" data-look="classic" transform="translate(360.044921875, 618)"><g class="basic label-container outer-path"><path d="M-109.9375 -72.75 L109.9375 -72.75 L109.9375 72.75 L-109.9375 72.75" stroke="none" stroke-width="0" fill="#eee" style=""/><path d="M-109.9375 -72.75 C-44.76044383159123 -72.75, 20.416612336817536 -72.75, 109.9375 -72.75 M-109.9375 -72.75 C-27.227901557076535 -72.75, 55.48169688584693 -72.75, 109.9375 -72.75 M109.9375 -72.75 C109.9375 -31.42912315550599, 109.9375 9.891753688988018, 109.9375 72.75 M109.9375 -72.75 C109.9375 -34.474643242858114, 109.9375 3.800713514283771, 109.9375 72.75 M109.9375 72.75 C49.957261716210255 72.75, -10.02297656757949 72.75, -109.9375 72.75 M109.9375 72.75 C25.441437010749056 72.75, -59.05462597850189 72.75, -109.9375 72.75 M-109.9375 72.75 C-109.9375 35.60523315814106, -109.9375 -1.5395336837178775, -109.9375 -72.75 M-109.9375 72.75 C-109.9375 21.65002164201688, -109.9375 -29.449956715966238, -109.9375 -72.75" stroke="#999" stroke-width="1.3" fill="none" stroke-dasharray="0 0" style=""/></g><g class="annotation-group text" transform="translate(-97.9375, -48.75)"><g class="label" style="" transform="translate(0,-11.25)"><foreignObject width="195.875" height="22.5"><div xmlns="http://www.w3.org/1999/xhtml" style="display: table-cell; white-space: nowrap; line-height: 1.5; max-width: 247px; text-align: center;"><span class="nodeLabel markdown-node-label" style=""><p>«C++17 + OpenMP + CUDA»</p></span></div></foreignObject></g></g><g class="label-group text" transform="translate(-24.84375, -26.25)"><g class="label" style="font-weight: bolder" transform="translate(0,-11.25)"><foreignObject width="49.6875" height="22.5"><div xmlns="http://www.w3.org/1999/xhtml" style="display: table-cell; white-space: nowrap; line-height: 1.5; max-width: 97px; text-align: center;"><span class="nodeLabel markdown-node-label" style=""><p>Nucleo</p></span></div></foreignObject></g></g><g class="members-group text" transform="translate(-97.9375, 20.25)"/><g class="methods-group text" transform="translate(-97.9375, 50.25)"><g class="label" style="" transform="translate(0,-11.25)"><foreignObject width="73.015625" height="22.5"><div xmlns="http://www.w3.org/1999/xhtml" style="display: table-cell; white-space: nowrap; line-height: 1.5; max-width: 128px; text-align: center;"><span class="nodeLabel markdown-node-label" style=""><p>+otimizar()</p></span></div></foreignObject></g></g><g class="divider" style=""><path d="M-109.9375 -3.75 C-45.780204204372154 -3.7497082101385075, 18.37709159125569 -3.7494164202770155, 109.9375 -3.749 M-109.9375 -3.75 C-30.99790383946032 -3.749640979664989, 47.94169232107936 -3.749281959329978, 109.9375 -3.749" stroke="#999" stroke-width="1.3" fill="none" stroke-dasharray="0 0" style=""/></g><g class="divider" style=""><path d="M-109.9375 20.25 C-34.80455702475683 20.250341707529167, 40.328385950486336 20.250683415058333, 109.9375 20.251 M-109.9375 20.25 C-59.48061668549277 20.250229479855893, -9.02373337098554 20.250458959711786, 109.9375 20.251" stroke="#999" stroke-width="1.3" fill="none" stroke-dasharray="0 0" style=""/></g></g><g class="node default" id="my-svg-classId-Modelo-4" data-look="classic" transform="translate(683.919921875, 618)"><g class="basic label-container outer-path"><path d="M-90.0546875 -84 L90.0546875 -84 L90.0546875 84 L-90.0546875 84" stroke="none" stroke-width="0" fill="#eee" style=""/><path d="M-90.0546875 -84 C-31.561456541039824 -84, 26.93177441792035 -84, 90.0546875 -84 M-90.0546875 -84 C-46.534923639571744 -84, -3.015159779143488 -84, 90.0546875 -84 M90.0546875 -84 C90.0546875 -23.55169397971727, 90.0546875 36.89661204056546, 90.0546875 84 M90.0546875 -84 C90.0546875 -38.99435480828541, 90.0546875 6.011290383429184, 90.0546875 84 M90.0546875 84 C40.9427460736576 84, -8.169195352684795 84, -90.0546875 84 M90.0546875 84 C40.25852008874255 84, -9.5376473225149 84, -90.0546875 84 M-90.0546875 84 C-90.0546875 35.01330982167493, -90.0546875 -13.97338035665014, -90.0546875 -84 M-90.0546875 84 C-90.0546875 46.447153299805905, -90.0546875 8.89430659961181, -90.0546875 -84" stroke="#999" stroke-width="1.3" fill="none" stroke-dasharray="0 0" style=""/></g><g class="annotation-group text" transform="translate(-78.0546875, -60)"><g class="label" style="" transform="translate(0,-11.25)"><foreignObject width="156.109375" height="22.5"><div xmlns="http://www.w3.org/1999/xhtml" style="display: table-cell; white-space: nowrap; line-height: 1.5; max-width: 210px; text-align: center;"><span class="nodeLabel markdown-node-label" style=""><p>«PyTorch · gih_modelo»</p></span></div></foreignObject></g></g><g class="label-group text" transform="translate(-27.1875, -37.5)"><g class="label" style="font-weight: bolder" transform="translate(0,-11.25)"><foreignObject width="54.375" height="22.5"><div xmlns="http://www.w3.org/1999/xhtml" style="display: table-cell; white-space: nowrap; line-height: 1.5; max-width: 101px; text-align: center;"><span class="nodeLabel markdown-node-label" style=""><p>Modelo</p></span></div></foreignObject></g></g><g class="members-group text" transform="translate(-78.0546875, 9)"/><g class="methods-group text" transform="translate(-78.0546875, 39)"><g class="label" style="" transform="translate(0,-11.25)"><foreignObject width="62.4375" height="22.5"><div xmlns="http://www.w3.org/1999/xhtml" style="display: table-cell; white-space: nowrap; line-height: 1.5; max-width: 117px; text-align: center;"><span class="nodeLabel markdown-node-label" style=""><p>+treinar()</p></span></div></foreignObject></g><g class="label" style="" transform="translate(0,11.25)"><foreignObject width="61.4375" height="22.5"><div xmlns="http://www.w3.org/1999/xhtml" style="display: table-cell; white-space: nowrap; line-height: 1.5; max-width: 116px; text-align: center;"><span class="nodeLabel markdown-node-label" style=""><p>+prever()</p></span></div></foreignObject></g></g><g class="divider" style=""><path d="M-90.0546875 -15 C-38.648113726995554 -14.999714581354953, 12.758460046008892 -14.999429162709903, 90.0546875 -14.999 M-90.0546875 -15 C-20.105587418941212 -14.99961162987723, 49.843512662117575 -14.999223259754457, 90.0546875 -14.999" stroke="#999" stroke-width="1.3" fill="none" stroke-dasharray="0 0" style=""/></g><g class="divider" style=""><path d="M-90.0546875 9 C-49.49380486784373 9.00022520139572, -8.932922235687457 9.000450402791438, 90.0546875 9.001 M-90.0546875 9 C-38.87570631881262 9.000284155009595, 12.303274862374764 9.000568310019188, 90.0546875 9.001" stroke="#999" stroke-width="1.3" fill="none" stroke-dasharray="0 0" style=""/></g></g><g class="node default" id="my-svg-classId-Assistente-5" data-look="classic" transform="translate(985.158203125, 618)"><g class="basic label-container outer-path"><path d="M-87.4609375 -72.75 L87.4609375 -72.75 L87.4609375 72.75 L-87.4609375 72.75" stroke="none" stroke-width="0" fill="#eee" style=""/><path d="M-87.4609375 -72.75 C-33.07516897966826 -72.75, 21.310599540663475 -72.75, 87.4609375 -72.75 M-87.4609375 -72.75 C-40.539119936556105 -72.75, 6.38269762688779 -72.75, 87.4609375 -72.75 M87.4609375 -72.75 C87.4609375 -29.51191548073232, 87.4609375 13.72616903853536, 87.4609375 72.75 M87.4609375 -72.75 C87.4609375 -26.698524003905433, 87.4609375 19.352951992189134, 87.4609375 72.75 M87.4609375 72.75 C20.548995815326137 72.75, -46.362945869347726 72.75, -87.4609375 72.75 M87.4609375 72.75 C23.84648922853716 72.75, -39.76795904292568 72.75, -87.4609375 72.75 M-87.4609375 72.75 C-87.4609375 41.744478787254934, -87.4609375 10.738957574509868, -87.4609375 -72.75 M-87.4609375 72.75 C-87.4609375 36.74197492183754, -87.4609375 0.7339498436750773, -87.4609375 -72.75" stroke="#999" stroke-width="1.3" fill="none" stroke-dasharray="0 0" style=""/></g><g class="annotation-group text" transform="translate(-75.4609375, -48.75)"><g class="label" style="" transform="translate(0,-11.25)"><foreignObject width="150.921875" height="22.5"><div xmlns="http://www.w3.org/1999/xhtml" style="display: table-cell; white-space: nowrap; line-height: 1.5; max-width: 210px; text-align: center;"><span class="nodeLabel markdown-node-label" style=""><p>«LLM local via Ollama»</p></span></div></foreignObject></g></g><g class="label-group text" transform="translate(-35.7421875, -26.25)"><g class="label" style="font-weight: bolder" transform="translate(0,-11.25)"><foreignObject width="71.484375" height="22.5"><div xmlns="http://www.w3.org/1999/xhtml" style="display: table-cell; white-space: nowrap; line-height: 1.5; max-width: 117px; text-align: center;"><span class="nodeLabel markdown-node-label" style=""><p>Assistente</p></span></div></foreignObject></g></g><g class="members-group text" transform="translate(-75.4609375, 20.25)"/><g class="methods-group text" transform="translate(-75.4609375, 50.25)"><g class="label" style="" transform="translate(0,-11.25)"><foreignObject width="62.53125" height="22.5"><div xmlns="http://www.w3.org/1999/xhtml" style="display: table-cell; white-space: nowrap; line-height: 1.5; max-width: 118px; text-align: center;"><span class="nodeLabel markdown-node-label" style=""><p>+redigir()</p></span></div></foreignObject></g></g><g class="divider" style=""><path d="M-87.4609375 -3.75 C-27.847538886427337 -3.7496591998650053, 31.765859727145326 -3.74931839973001, 87.4609375 -3.749 M-87.4609375 -3.75 C-40.695233281665935 -3.749732648050918, 6.07047093666813 -3.749465296101836, 87.4609375 -3.749" stroke="#999" stroke-width="1.3" fill="none" stroke-dasharray="0 0" style=""/></g><g class="divider" style=""><path d="M-87.4609375 20.25 C-46.69362527554394 20.25023306011455, -5.926313051087874 20.250466120229095, 87.4609375 20.251 M-87.4609375 20.25 C-47.075290105830994 20.25023087819859, -6.689642711661989 20.250461756397183, 87.4609375 20.251" stroke="#999" stroke-width="1.3" fill="none" stroke-dasharray="0 0" style=""/></g></g></g></g></g><defs><filter id="my-svg-drop-shadow" height="130%" width="130%"><feDropShadow dx="4" dy="4" stdDeviation="0" flood-opacity="0.06" flood-color="#000000"/></filter></defs><defs><filter id="my-svg-drop-shadow-small" height="150%" width="150%"><feDropShadow dx="2" dy="2" stdDeviation="0" flood-opacity="0.06" flood-color="#000000"/></filter></defs><linearGradient id="my-svg-gradient" gradientUnits="objectBoundingBox" x1="0%" y1="0%" x2="100%" y2="0%"><stop offset="0%" stop-color="hsl(0, 0%, 83.3333333333%)" stop-opacity="1"/><stop offset="100%" stop-color="hsl(0, 0%, 88.9215686275%)" stop-opacity="1"/></linearGradient></svg>