<svg id="my-svg" width="100%" xmlns="http://www.w3.org/2000/svg" xmlns:xlink="http://www.w3.org/1999/xlink" class="classDiagram" style="max-width: 1142.42px; background-color: white;" viewBox="0 0 1142.416015625 1108" role="graphics-document document" aria-roledescription="classDiagram"><style>#my-svg{font-family:Segoe UI,Calibri,sans-serif;font-size:15px;fill:#000000;}@keyframes edge-animation-frame{from{stroke-dashoffset:0;}}@keyframes dash{to{stroke-dashoffset:0;}}#my-svg .edge-animation-slow{stroke-dasharray:9,5!important;stroke-dashoffset:900;animation:dash 50s linear infinite;stroke-linecap:round;}#my-svg .edge-animation-fast{stroke-dasharray:9,5!important;stroke-dashoffset:900;animation:dash 20s linear infinite;stroke-linecap:round;}#my-svg .error-icon{fill:#552222;}#my-svg .error-text{fill:#552222;stroke:#552222;}#my-svg .edge-thickness-normal{stroke-width:1px;}#my-svg .edge-thickness-thick{stroke-width:3.5px;}#my-svg .edge-pattern-solid{stroke-dasharray:0;}#my-svg .edge-thickness-invisible{stroke-width:0;fill:none;}#my-svg .edge-pattern-dashed{stroke-dasharray:3;}#my-svg .edge-pattern-dotted{stroke-dasharray:2;}#my-svg .marker{fill:#666;stroke:#666;}#my-svg .marker.cross{stroke:#666;}#my-svg svg{font-family:Segoe UI,Calibri,sans-serif;font-size:15px;}#my-svg p{margin:0;}#my-svg g.classGroup text{fill:#999;stroke:none;font-family:Segoe UI,Calibri,sans-serif;font-size:10px;}#my-svg g.classGroup text .title{font-weight:bolder;}#my-svg .cluster-label text{fill:#333;}#my-svg .cluster-label span{color:#333;}#my-svg .cluster-label span p{background-color:transparent;}#my-svg .cluster rect{fill:hsl(0, 0%, 98.9215686275%);stroke:#707070;stroke-width:1px;}#my-svg .cluster text{fill:#333;}#my-svg .cluster span{color:#333;}#my-svg .nodeLabel,#my-svg .edgeLabel{color:#111111;}#my-svg .noteLabel .nodeLabel,#my-svg .noteLabel .edgeLabel{color:#fff;}#my-svg .edgeLabel .label rect{fill:#eee;}#my-svg .label text{fill:#111111;}#my-svg .labelBkg{background:#eee;}#my-svg .edgeLabel .label span{background:#eee;}#my-svg .classTitle{font-weight:bolder;}#my-svg .node rect,#my-svg .node circle,#my-svg .node ellipse,#my-svg .node polygon,#my-svg .node path{fill:#eee;stroke:#999;stroke-width:1;}#my-svg .divider{stroke:#999;stroke-width:1;}#my-svg g.clickable{cursor:pointer;}#my-svg g.classGroup rect{fill:#eee;stroke:#999;}#my-svg g.classGroup line{stroke:#999;stroke-width:1;}#my-svg .classLabel .box{stroke:none;stroke-width:0;fill:#eee;opacity:0.5;}#my-svg .classLabel .label{fill:#999;font-size:10px;}#my-svg .relation{stroke:#666;stroke-width:1;fill:none;}#my-svg .dashed-line{stroke-dasharray:3;}#my-svg .dotted-line{stroke-dasharray:1 2;}#my-svg [id$="-compositionStart"],#my-svg .composition{fill:#666!important;stroke:#666!important;stroke-width:1;}#my-svg [id$="-compositionEnd"],#my-svg .composition{fill:#666!important;stroke:#666!important;stroke-width:1;}#my-svg [id$="-dependencyStart"],#my-svg .dependency{fill:#666!important;stroke:#666!important;stroke-width:1;}#my-svg [id$="-dependencyEnd"],#my-svg .dependency{fill:#666!important;stroke:#666!important;stroke-width:1;}#my-svg [id$="-extensionStart"],#my-svg .extension{fill:transparent!important;stroke:#666!important;stroke-width:1;}#my-svg [id$="-extensionEnd"],#my-svg .extension{fill:transparent!important;stroke:#666!important;stroke-width:1;}#my-svg [id$="-aggregationStart"],#my-svg .aggregation{fill:transparent!important;stroke:#666!important;stroke-width:1;}#my-svg [id$="-aggregationEnd"],#my-svg .aggregation{fill:transparent!important;stroke:#666!important;stroke-width:1;}#my-svg [id$="-lollipopStart"],#my-svg .lollipop{fill:#eee!important;stroke:#666!important;stroke-width:1;}#my-svg [id$="-lollipopEnd"],#my-svg .lollipop{fill:#eee!important;stroke:#666!important;stroke-width:1;}#my-svg .edgeTerminals{font-size:11px;line-height:initial;}#my-svg .classTitleText{text-anchor:middle;font-size:18px;fill:#000000;}#my-svg .edgeLabel[data-look="neo"]{background-color:white;text-align:center;}#my-svg .edgeLabel[data-look="neo"] p{background-color:white;}#my-svg .edgeLabel[data-look="neo"] rect{opacity:0.5;background-color:white;fill:white;}#my-svg .label-icon{display:inline-block;height:1em;overflow:visible;vertical-align:-0.125em;}#my-svg .node .label-icon path{fill:currentColor;stroke:revert;stroke-width:revert;}#my-svg .node .neo-node{stroke:#999;}#my-svg [data-look="neo"].node rect,#my-svg [data-look="neo"].cluster rect,#my-svg [data-look="neo"].node polygon{stroke:url(#my-svg-gradient);filter:drop-shadow( 1px 2px 2px rgba(185,185,185,1));}#my-svg [data-look="neo"].swimlane.cluster rect{filter:none;}#my-svg [data-look="neo"].node path{stroke:url(#my-svg-gradient);stroke-width:1px;}#my-svg [data-look="neo"].node .outer-path{filter:drop-shadow( 1px 2px 2px rgba(185,185,185,1));}#my-svg [data-look="neo"].node .neo-line path{stroke:#999;filter:none;}#my-svg [data-look="neo"].node circle{stroke:url(#my-svg-gradient);filter:drop-shadow( 1px 2px 2px rgba(185,185,185,1));}#my-svg [data-look="neo"].node circle .state-start{fill:#000000;}#my-svg [data-look="neo"].icon-shape .icon{fill:url(#my-svg-gradient);filter:drop-shadow( 1px 2px 2px rgba(185,185,185,1));}#my-svg [data-look="neo"].icon-shape .icon-neo path{stroke:url(#my-svg-gradient);filter:drop-shadow( 1px 2px 2px rgba(185,185,185,1));}#my-svg :root{--mermaid-font-family:"trebuchet ms",verdana,arial,sans-serif;}</style><g><defs><marker id="my-svg_classDiagram-aggregationStart" class="marker aggregation classDiagram" refX="18" refY="7" markerWidth="190" markerHeight="240" orient="auto" markerUnits="userSpaceOnUse"><path d="M 18,7 L9,13 L1,7 L9,1 Z"/></marker></defs><defs><marker id="my-svg_classDiagram-aggregationEnd" class="marker aggregation classDiagram" refX="1" refY="7" markerWidth="20" markerHeight="28" orient="auto" markerUnits="userSpaceOnUse"><path d="M 18,7 L9,13 L1,7 L9,1 Z"/></marker></defs><defs><marker id="my-svg_classDiagram-aggregationStart-margin" class="marker aggregation classDiagram" refX="15" refY="7" markerWidth="190" markerHeight="240" orient="auto" markerUnits="userSpaceOnUse"><path d="M 18,7 L9,13 L1,7 L9,1 Z" style="stroke-width: 2;"/></marker></defs><defs><marker id="my-svg_classDiagram-aggregationEnd-margin" class="marker aggregation classDiagram" refX="1" refY="7" markerWidth="20" markerHeight="28" orient="auto" markerUnits="userSpaceOnUse"><path d="M 18,7 L9,13 L1,7 L9,1 Z" style="stroke-width: 2;"/></marker></defs><defs><marker id="my-svg_classDiagram-extensionStart" class="marker extension classDiagram" refX="18" refY="7" markerWidth="20" markerHeight="28" orient="auto" markerUnits="userSpaceOnUse"><path d="M 1,7 L18,13 V 1 Z"/></marker></defs><defs><marker id="my-svg_classDiagram-extensionEnd" class="marker extension classDiagram" refX="1" refY="7" markerWidth="20" markerHeight="28" orient="auto" markerUnits="userSpaceOnUse"><path d="M 1,1 V 13 L18,7 Z"/></marker></defs><marker id="my-svg_classDiagram-extensionStart-margin" class="marker extension classDiagram" refX="18" refY="7" markerWidth="20" markerHeight="28" orient="auto" markerUnits="userSpaceOnUse" viewBox="0 0 20 14"><polygon points="10,7 18,13 18,1" style="stroke-width: 2; stroke-dasharray: 0;"/></marker><defs><marker id="my-svg_classDiagram-extensionEnd-margin" class="marker extension classDiagram" refX="9" refY="7" markerWidth="20" markerHeight="28" orient="auto" markerUnits="userSpaceOnUse" viewBox="0 0 20 14"><polygon points="10,1 10,13 18,7" style="stroke-width: 2; stroke-dasharray: 0;"/></marker></defs><defs><marker id="my-svg_classDiagram-compositionStart" class="marker composition classDiagram" refX="18" refY="7" markerWidth="190" markerHeight="240" orient="auto" markerUnits="userSpaceOnUse"><path d="M 18,7 L9,13 L1,7 L9,1 Z"/></marker></defs><defs><marker id="my-svg_classDiagram-compositionEnd" class="marker composition classDiagram" refX="1" refY="7" markerWidth="20" markerHeight="28" orient="auto" markerUnits="userSpaceOnUse"><path d="M 18,7 L9,13 L1,7 L9,1 Z"/></marker></defs><defs><marker id="my-svg_classDiagram-compositionStart-margin" class="marker composition classDiagram" refX="15" refY="7" markerWidth="190" markerHeight="240" orient="auto" markerUnits="userSpaceOnUse"><path viewBox="0 0 15 15" d="M 18,7 L9,13 L1,7 L9,1 Z" style="stroke-width: 0;"/></marker></defs><defs><marker id="my-svg_classDiagram-compositionEnd-margin" class="marker composition classDiagram" refX="3.5" refY="7" markerWidth="20" markerHeight="28" orient="auto" markerUnits="userSpaceOnUse"><path d="M 18,7 L9,13 L1,7 L9,1 Z" style="stroke-width: 0;"/></marker></defs><defs><marker id="my-svg_classDiagram-dependencyStart" class="marker dependency classDiagram" refX="6" refY="7" markerWidth="190" markerHeight="240" orient="auto" markerUnits="userSpaceOnUse"><path d="M 5,7 L9,13 L1,7 L9,1 Z"/></marker></defs><defs><marker id="my-svg_classDiagram-dependencyEnd" class="marker dependency classDiagram" refX="13" refY="7" markerWidth="20" markerHeight="28" orient="auto" markerUnits="userSpaceOnUse"><path d="M 18,7 L9,13 L14,7 L9,1 Z"/></marker></defs><defs><marker id="my-svg_classDiagram-dependencyStart-margin" class="marker dependency classDiagram" refX="4" refY="7" markerWidth="190" markerHeight="240" orient="auto" markerUnits="userSpaceOnUse"><path d="M 5,7 L9,13 L1,7 L9,1 Z" style="stroke-width: 0;"/></marker></defs><defs><marker id="my-svg_classDiagram-dependencyEnd-margin" class="marker dependency classDiagram" refX="16" refY="7" markerWidth="20" markerHeight="28" orient="auto" markerUnits="userSpaceOnUse"><path d="M 18,7 L9,13 L14,7 L9,1 Z" style="stroke-width: 0;"/></marker></defs><defs><marker id="my-svg_classDiagram-lollipopStart" class="marker lollipop classDiagram" refX="13" refY="7" markerWidth="190" markerHeight="240" orient="auto" markerUnits="userSpaceOnUse"><circle fill="transparent" cx="7" cy="7" r="6"/></marker></defs><defs><marker id="my-svg_classDiagram-lollipopEnd" class="marker lollipop classDiagram" refX="1" refY="7" markerWidth="190" markerHeight="240" orient="auto" markerUnits="userSpaceOnUse"><circle fill="transparent" cx="7" cy="7" r="6"/></marker></defs><defs><marker id="my-svg_classDiagram-lollipopStart-margin" class="marker lollipop classDiagram" refX="13" refY="7" markerWidth="190" markerHeight="240" orient="auto" markerUnits="userSpaceOnUse"><circle fill="transparent" cx="7" cy="7" r="6" stroke-width="2"/></marker></defs><defs><marker id="my-svg_classDiagram-lollipopEnd-margin" class="marker lollipop classDiagram" refX="1" refY="7" markerWidth="190" markerHeight="240" orient="auto" markerUnits="userSpaceOnUse"><circle fill="transparent" cx="7" cy="7" r="6" stroke-width="2"/></marker></defs><g class="root"><g class="clusters"/><g class="edgePaths"><path d="M200.286,529L194.987,540.667C189.688,552.333,179.09,575.667,173.791,594.25C168.492,612.833,168.492,626.667,168.492,633.583L168.492,640.5" id="my-svg-id_ServicoImportacao_LeitorRelatorio_1" class="edge-thickness-normal edge-pattern-solid relation" style=";;;" data-edge="true" data-et="edge" data-id="id_ServicoImportacao_LeitorRelatorio_1" data-points="W3sieCI6MjAwLjI4NTUxMTM2MzYzNjM3LCJ5Ijo1Mjl9LHsieCI6MTY4LjQ5MjE4NzUsInkiOjU5OX0seyJ4IjoxNjguNDkyMTg3NSwieSI6NjQ2LjV9XQ==" data-look="classic" marker-end="url(#my-svg_classDiagram-dependencyEnd)"/><path d="M363.973,529L381.408,540.667C398.844,552.333,433.715,575.667,463.285,596.521C492.854,617.376,517.122,635.752,529.256,644.94L541.39,654.128" id="my-svg-id_ServicoImportacao_Segmentador_2" class="edge-thickness-normal edge-pattern-solid relation" style=";;;" data-edge="true" data-et="edge" data-id="id_ServicoImportacao_Segmentador_2" data-points="W3sieCI6MzYzLjk3MzAxMTM2MzYzNjQsInkiOjUyOX0seyJ4Ijo0NjguNTg1OTM3NSwieSI6NTk5fSx7IngiOjU0Ni4xNzM3Mzk0ODA5MDAyLCJ5Ijo2NTcuNzV9XQ==" data-look="classic" marker-end="url(#my-svg_classDiagram-dependencyEnd)"/><path d="M686.822,870.75L686.822,878.667C686.822,886.583,686.822,902.417,693.921,915.767C701.02,929.118,715.218,939.985,722.317,945.419L729.416,950.853" id="my-svg-id_Segmentador_Ranking_3" class="edge-thickness-normal edge-pattern-solid relation" style=";;;" data-edge="true" data-et="edge" data-id="id_Segmentador_Ranking_3" data-points="W3sieCI6Njg2LjgyMjI2NTYyNSwieSI6ODcwLjc1fSx7IngiOjY4Ni44MjIyNjU2MjUsInkiOjkxOC4yNX0seyJ4Ijo3MzQuMTgwODQzMjQ4Mjc5OSwieSI6OTU0LjV9XQ==" data-look="classic" marker-end="url(#my-svg_classDiagram-dependencyEnd)"/><path d="M777.881,551.5L777.881,559.417C777.881,567.333,777.881,583.167,772.968,599.999C768.055,616.832,758.229,634.663,753.316,643.579L748.403,652.495" id="my-svg-id_ServicoPrevisao_Segmentador_4" class="edge-thickness-normal edge-pattern-solid relation" style=";;;" data-edge="true" data-et="edge" data-id="id_ServicoPrevisao_Segmentador_4" data-points="W3sieCI6Nzc3Ljg4MDg1OTM3NSwieSI6NTUxLjV9LHsieCI6Nzc3Ljg4MDg1OTM3NSwieSI6NTk5fSx7IngiOjc0NS41MDc1MzE3OTM2ODM4LCJ5Ijo2NTcuNzV9XQ==" data-look="classic" marker-end="url(#my-svg_classDiagram-dependencyEnd)"/><path d="M1001.609,243.5L1007.077,251.417C1012.545,259.333,1023.48,275.167,1028.948,308.75C1034.416,342.333,1034.416,393.667,1034.416,445C1034.416,496.333,1034.416,547.667,1034.416,600.875C1034.416,654.083,1034.416,709.167,1034.416,762.375C1034.416,815.583,1034.416,866.917,1022.714,898.8C1011.012,930.683,987.607,943.115,975.905,949.332L964.203,955.548" id="my-svg-id_ServicoOtimizacao_Ranking_5" class="edge-thickness-normal edge-pattern-solid relation" style=";;;" data-edge="true" data-et="edge" data-id="id_ServicoOtimizacao_Ranking_5" data-points="W3sieCI6MTAwMS42MDkzMDcwMzk1MjM0LCJ5IjoyNDMuNX0seyJ4IjoxMDM0LjQxNjAxNTYyNSwieSI6MjkxfSx7IngiOjEwMzQuNDE2MDE1NjI1LCJ5Ijo0NDV9LHsieCI6MTAzNC40MTYwMTU2MjUsInkiOjU5OX0seyJ4IjoxMDM0LjQxNjAxNTYyNSwieSI6NzY0LjI1fSx7IngiOjEwMzQuNDE2MDE1NjI1LCJ5Ijo5MTguMjV9LHsieCI6OTU4LjkwNDI5Njg3NSwieSI6OTU4LjM2MjY4MDYxNDUxNzd9XQ==" data-look="classic" marker-end="url(#my-svg_classDiagram-dependencyEnd)"/><path d="M818.813,243.5L811.991,251.417C805.169,259.333,791.525,275.167,784.703,290C777.881,304.833,777.881,318.667,777.881,325.583L777.881,332.5" id="my-svg-id_ServicoOtimizacao_ServicoPrevisao_6" class="edge-thickness-normal edge-pattern-solid relation" style=";;;" data-edge="true" data-et="edge" data-id="id_ServicoOtimizacao_ServicoPrevisao_6" data-points="W3sieCI6ODE4LjgxMzQ1NDQwMTQ3NSwieSI6MjQzLjV9LHsieCI6Nzc3Ljg4MDg1OTM3NSwieSI6MjkxfSx7IngiOjc3Ny44ODA4NTkzNzUsInkiOjMzOC41fV0=" data-look="classic" marker-end="url(#my-svg_classDiagram-dependencyEnd)"/></g><g class="edgeLabels"><g class="edgeLabel" transform="translate(168.4921875, 599)"><g class="label" data-id="id_ServicoImportacao_LeitorRelatorio_1" transform="translate(-57.7734375, -11.25)"><foreignObject width="115.546875" height="22.5"><div xmlns="http://www.w3.org/1999/xhtml" class="labelBkg" style="display: table-cell; white-space: nowrap; line-height: 1.5; max-width: 200px; text-align: center;"><span class="edgeLabel"><p>interpreta o texto</p></span></div></foreignObject></g></g><g class="edgeLabel" transform="translate(456.72147, 591.06109)"><g class="label" data-id="id_ServicoImportacao_Segmentador_2" transform="translate(-62.1171875, -11.25)"><foreignObject width="124.234375" height="22.5"><div xmlns="http://www.w3.org/1999/xhtml" class="labelBkg" style="display: table-cell; white-space: nowrap; line-height: 1.5; max-width: 200px; text-align: center;"><span class="edgeLabel"><p>dispara o recálculo</p></span></div></foreignObject></g></g><g class="edgeLabel" transform="translate(686.822265625, 918.25)"><g class="label" data-id="id_Segmentador_Ranking_3" transform="translate(-54.25, -11.25)"><foreignObject width="108.5" height="22.5"><div xmlns="http://www.w3.org/1999/xhtml" class="labelBkg" style="display: table-cell; white-space: nowrap; line-height: 1.5; max-width: 200px; text-align: center;"><span class="edgeLabel"><p>usa a ordenação</p></span></div></foreignObject></g></g><g class="edgeLabel" transform="translate(777.880859375, 599)"><g class="label" data-id="id_ServicoPrevisao_Segmentador_4" transform="translate(-100, -22.5)"><foreignObject width="200" height="45"><div xmlns="http://www.w3.org/1999/xhtml" class="labelBkg" style="display: table; white-space: break-spaces; line-height: 1.5; max-width: 200px; text-align: center; width: 200px;"><span class="edgeLabel"><p>rotula o risco pelo mesmo critério (RN09)</p></span></div></foreignObject></g></g><g class="edgeLabel" transform="translate(1034.416015625, 599)"><g class="label" data-id="id_ServicoOtimizacao_Ranking_5" transform="translate(-100, -22.5)"><foreignObject width="200" height="45"><div xmlns="http://www.w3.org/1999/xhtml" class="labelBkg" style="display: table; white-space: break-spaces; line-height: 1.5; max-width: 200px; text-align: center; width: 200px;"><span class="edgeLabel"><p>cauda longa pelo ranking (RN11)</p></span></div></foreignObject></g></g><g class="edgeLabel" transform="translate(777.880859375, 291)"><g class="label" data-id="id_ServicoOtimizacao_ServicoPrevisao_6" transform="translate(-100, -22.5)"><foreignObject width="200" height="45"><div xmlns="http://www.w3.org/1999/xhtml" class="labelBkg" style="display: table; white-space: break-spaces; line-height: 1.5; max-width: 200px; text-align: center; width: 200px;"><span class="edgeLabel"><p>previsões da versão em uso (RN10)</p></span></div></foreignObject></g></g></g><g class="nodes"><g class="node default" id="my-svg-classId-ServicoImportacao-0" data-look="classic" transform="translate(238.4375, 445)"><g class="basic label-container outer-path"><path d="M-193.20703125 -84 L193.20703125 -84 L193.20703125 84 L-193.20703125 84" stroke="none" stroke-width="0" fill="#eee" style=""/><path d="M-193.20703125 -84 C-61.18116860399866 -84, 70.84469404200269 -84, 193.20703125 -84 M-193.20703125 -84 C-110.63208306697973 -84, -28.057134883959463 -84, 193.20703125 -84 M193.20703125 -84 C193.20703125 -45.38423429672143, 193.20703125 -6.7684685934428614, 193.20703125 84 M193.20703125 -84 C193.20703125 -32.287383281735316, 193.20703125 19.425233436529368, 193.20703125 84 M193.20703125 84 C49.99859807487823 84, -93.20983510024354 84, -193.20703125 84 M193.20703125 84 C44.97263772459698 84, -103.26175580080604 84, -193.20703125 84 M-193.20703125 84 C-193.20703125 43.611916283571695, -193.20703125 3.22383256714339, -193.20703125 -84 M-193.20703125 84 C-193.20703125 26.588763067186058, -193.20703125 -30.822473865627884, -193.20703125 -84" stroke="#999" stroke-width="1.3" fill="none" stroke-dasharray="0 0" style=""/></g><g class="annotation-group text" transform="translate(-55.8125, -60)"><g class="label" style="" transform="translate(0,-11.25)"><foreignObject width="111.625" height="22.5"><div xmlns="http://www.w3.org/1999/xhtml" style="display: table-cell; white-space: nowrap; line-height: 1.5; max-width: 158px; text-align: center;"><span class="nodeLabel markdown-node-label" style=""><p>«implementado»</p></span></div></foreignObject></g></g><g class="label-group text" transform="translate(-66.7890625, -37.5)"><g class="label" style="font-weight: bolder" transform="translate(0,-11.25)"><foreignObject width="133.578125" height="22.5"><div xmlns="http://www.w3.org/1999/xhtml" style="display: table-cell; white-space: nowrap; line-height: 1.5; max-width: 172px; text-align: center;"><span class="nodeLabel markdown-node-label" style=""><p>ServicoImportacao</p></span></div></foreignObject></g></g><g class="members-group text" transform="translate(-181.20703125, 9)"/><g class="methods-group text" transform="translate(-181.20703125, 39)"><g class="label" style="" transform="translate(0,-11.25)"><foreignObject width="233.046875" height="22.5"><div xmlns="http://www.w3.org/1999/xhtml" style="display: table-cell; white-space: nowrap; line-height: 1.5; max-width: 292px; text-align: center;"><span class="nodeLabel markdown-node-label" style=""><p>+analisar(texto, inicio, fim) : Analise</p></span></div></foreignObject></g><g class="label" style="" transform="translate(0,11.25)"><foreignObject width="295.625" height="22.5"><div xmlns="http://www.w3.org/1999/xhtml" style="display: table-cell; white-space: nowrap; line-height: 1.5; max-width: 349px; text-align: center;"><span class="nodeLabel markdown-node-label" style=""><p>+gravar(texto, inicio, fim, autor) : Importacao</p></span></div></foreignObject></g></g><g class="divider" style=""><path d="M-193.20703125 -15 C-94.74079646594598 -14.99974517947368, 3.725438318108047 -14.999490358947359, 193.20703125 -14.999 M-193.20703125 -15 C-73.67111874791529 -14.99969065330664, 45.864793754169426 -14.99938130661328, 193.20703125 -14.999" stroke="#999" stroke-width="1.3" fill="none" stroke-dasharray="0 0" style=""/></g><g class="divider" style=""><path d="M-193.20703125 9 C-62.08828278755192 9.000339321885996, 69.03046567489616 9.00067864377199, 193.20703125 9.001 M-193.20703125 9 C-73.41108323990963 9.00031001963861, 46.38486477018074 9.00062003927722, 193.20703125 9.001" stroke="#999" stroke-width="1.3" fill="none" stroke-dasharray="0 0" style=""/></g></g><g class="node default" id="my-svg-classId-LeitorRelatorio-1" data-look="classic" transform="translate(168.4921875, 764.25)"><g class="basic label-container outer-path"><path d="M-160.4921875 -117.75 L160.4921875 -117.75 L160.4921875 117.75 L-160.4921875 117.75" stroke="none" stroke-width="0" fill="#eee" style=""/><path d="M-160.4921875 -117.75 C-78.20557457759995 -117.75, 4.081038344800106 -117.75, 160.4921875 -117.75 M-160.4921875 -117.75 C-54.98250342972729 -117.75, 50.527180640545424 -117.75, 160.4921875 -117.75 M160.4921875 -117.75 C160.4921875 -24.288731726858117, 160.4921875 69.17253654628377, 160.4921875 117.75 M160.4921875 -117.75 C160.4921875 -55.20223438639162, 160.4921875 7.345531227216753, 160.4921875 117.75 M160.4921875 117.75 C39.54061235177461 117.75, -81.41096279645078 117.75, -160.4921875 117.75 M160.4921875 117.75 C76.93177489692698 117.75, -6.628637706146037 117.75, -160.4921875 117.75 M-160.4921875 117.75 C-160.4921875 39.30399138451379, -160.4921875 -39.142017230972414, -160.4921875 -117.75 M-160.4921875 117.75 C-160.4921875 27.67744990466369, -160.4921875 -62.39510019067262, -160.4921875 -117.75" stroke="#999" stroke-width="1.3" fill="none" stroke-dasharray="0 0" style=""/></g><g class="annotation-group text" transform="translate(-55.8125, -93.75)"><g class="label" style="" transform="translate(0,-11.25)"><foreignObject width="111.625" height="22.5"><div xmlns="http://www.w3.org/1999/xhtml" style="display: table-cell; white-space: nowrap; line-height: 1.5; max-width: 158px; text-align: center;"><span class="nodeLabel markdown-node-label" style=""><p>«implementado»</p></span></div></foreignObject></g></g><g class="label-group text" transform="translate(-52.625, -71.25)"><g class="label" style="font-weight: bolder" transform="translate(0,-11.25)"><foreignObject width="105.25" height="22.5"><div xmlns="http://www.w3.org/1999/xhtml" style="display: table-cell; white-space: nowrap; line-height: 1.5; max-width: 150px; text-align: center;"><span class="nodeLabel markdown-node-label" style=""><p>LeitorRelatorio</p></span></div></foreignObject></g></g><g class="members-group text" transform="translate(-148.4921875, -24.75)"/><g class="methods-group text" transform="translate(-148.4921875, 5.25)"><g class="label" style="" transform="translate(0,-11.25)"><foreignObject width="179.5" height="22.5"><div xmlns="http://www.w3.org/1999/xhtml" style="display: table-cell; white-space: nowrap; line-height: 1.5; max-width: 233px; text-align: center;"><span class="nodeLabel markdown-node-label" style=""><p>+interpretar(texto) : Leitura</p></span></div></foreignObject></g><g class="label" style="" transform="translate(0,11.25)"><foreignObject width="241.171875" height="22.5"><div xmlns="http://www.w3.org/1999/xhtml" style="display: table-cell; white-space: nowrap; line-height: 1.5; max-width: 289px; text-align: center;"><span class="nodeLabel markdown-node-label" style=""><p>+detectar_separador(cabecalho) : str</p></span></div></foreignObject></g><g class="label" style="" transform="translate(0,33.75)"><foreignObject width="228.578125" height="22.5"><div xmlns="http://www.w3.org/1999/xhtml" style="display: table-cell; white-space: nowrap; line-height: 1.5; max-width: 280px; text-align: center;"><span class="nodeLabel markdown-node-label" style=""><p>+mapear_colunas(cabecalho) : dict</p></span></div></foreignObject></g><g class="label" style="" transform="translate(0,56.25)"><foreignObject width="194.640625" height="22.5"><div xmlns="http://www.w3.org/1999/xhtml" style="display: table-cell; white-space: nowrap; line-height: 1.5; max-width: 252px; text-align: center;"><span class="nodeLabel markdown-node-label" style=""><p>+ler_decimal(bruto) : Decimal</p></span></div></foreignObject></g><g class="label" style="" transform="translate(0,78.75)"><foreignObject width="150" height="22.5"><div xmlns="http://www.w3.org/1999/xhtml" style="display: table-cell; white-space: nowrap; line-height: 1.5; max-width: 205px; text-align: center;"><span class="nodeLabel markdown-node-label" style=""><p>+ler_inteiro(bruto) : int</p></span></div></foreignObject></g></g><g class="divider" style=""><path d="M-160.4921875 -48.75 C-37.79321558724298 -48.7496177416053, 84.90575632551403 -48.74923548321059, 160.4921875 -48.749 M-160.4921875 -48.75 C-74.08279375701444 -48.74973079875386, 12.326599985971114 -48.74946159750771, 160.4921875 -48.749" stroke="#999" stroke-width="1.3" fill="none" stroke-dasharray="0 0" style=""/></g><g class="divider" style=""><path d="M-160.4921875 -24.75 C-75.30693463771007 -24.749734612462483, 9.878318224579857 -24.74946922492497, 160.4921875 -24.749 M-160.4921875 -24.75 C-92.49601549353083 -24.749788163607633, -24.499843487061668 -24.749576327215262, 160.4921875 -24.749" stroke="#999" stroke-width="1.3" fill="none" stroke-dasharray="0 0" style=""/></g></g><g class="node default" id="my-svg-classId-Segmentador-2" data-look="classic" transform="translate(686.822265625, 764.25)"><g class="basic label-container outer-path"><path d="M-249.8046875 -106.5 L249.8046875 -106.5 L249.8046875 106.5 L-249.8046875 106.5" stroke="none" stroke-width="0" fill="#eee" style=""/><path d="M-249.8046875 -106.5 C-141.61475561320324 -106.5, -33.42482372640649 -106.5, 249.8046875 -106.5 M-249.8046875 -106.5 C-126.6270707382838 -106.5, -3.449453976567611 -106.5, 249.8046875 -106.5 M249.8046875 -106.5 C249.8046875 -30.161626086502864, 249.8046875 46.17674782699427, 249.8046875 106.5 M249.8046875 -106.5 C249.8046875 -52.99333549511427, 249.8046875 0.5133290097714536, 249.8046875 106.5 M249.8046875 106.5 C122.64506095302103 106.5, -4.51456559395794 106.5, -249.8046875 106.5 M249.8046875 106.5 C98.23835568321459 106.5, -53.327976133570814 106.5, -249.8046875 106.5 M-249.8046875 106.5 C-249.8046875 56.13599104534138, -249.8046875 5.771982090682755, -249.8046875 -106.5 M-249.8046875 106.5 C-249.8046875 35.38525691727432, -249.8046875 -35.72948616545136, -249.8046875 -106.5" stroke="#999" stroke-width="1.3" fill="none" stroke-dasharray="0 0" style=""/></g><g class="annotation-group text" transform="translate(-55.8125, -82.5)"><g class="label" style="" transform="translate(0,-11.25)"><foreignObject width="111.625" height="22.5"><div xmlns="http://www.w3.org/1999/xhtml" style="display: table-cell; white-space: nowrap; line-height: 1.5; max-width: 158px; text-align: center;"><span class="nodeLabel markdown-node-label" style=""><p>«implementado»</p></span></div></foreignObject></g></g><g class="label-group text" transform="translate(-47.5390625, -60)"><g class="label" style="font-weight: bolder" transform="translate(0,-11.25)"><foreignObject width="95.078125" height="22.5"><div xmlns="http://www.w3.org/1999/xhtml" style="display: table-cell; white-space: nowrap; line-height: 1.5; max-width: 135px; text-align: center;"><span class="nodeLabel markdown-node-label" style=""><p>Segmentador</p></span></div></foreignObject></g></g><g class="members-group text" transform="translate(-237.8046875, -13.5)"/><g class="methods-group text" transform="translate(-237.8046875, 16.5)"><g class="label" style="" transform="translate(0,-11.25)"><foreignObject width="419.796875" height="22.5"><div xmlns="http://www.w3.org/1999/xhtml" style="display: table-cell; white-space: nowrap; line-height: 1.5; max-width: 464px; text-align: center;"><span class="nodeLabel markdown-node-label" style=""><p>+classificar(status, periodos, faturamentos, posicao) : Segmento</p></span></div></foreignObject></g><g class="label" style="" transform="translate(0,11.25)"><foreignObject width="317.78125" height="22.5"><div xmlns="http://www.w3.org/1999/xhtml" style="display: table-cell; white-space: nowrap; line-height: 1.5; max-width: 372px; text-align: center;"><span class="nodeLabel markdown-node-label" style=""><p>+criterio_em_risco(faturamentos, limiares) : bool</p></span></div></foreignObject></g><g class="label" style="" transform="translate(0,33.75)"><foreignObject width="212.140625" height="22.5"><div xmlns="http://www.w3.org/1999/xhtml" style="display: table-cell; white-space: nowrap; line-height: 1.5; max-width: 262px; text-align: center;"><span class="nodeLabel markdown-node-label" style=""><p>+reprocessar(periodo) : Counter</p></span></div></foreignObject></g><g class="label" style="" transform="translate(0,56.25)"><foreignObject width="161.640625" height="22.5"><div xmlns="http://www.w3.org/1999/xhtml" style="display: table-cell; white-space: nowrap; line-height: 1.5; max-width: 214px; text-align: center;"><span class="nodeLabel markdown-node-label" style=""><p>+reprocessar_tudo() : int</p></span></div></foreignObject></g></g><g class="divider" style=""><path d="M-249.8046875 -37.5 C-100.6640142787617 -37.499701485439054, 48.476658942476604 -37.499402970878116, 249.8046875 -37.499 M-249.8046875 -37.5 C-91.24908426800334 -37.499682640856705, 67.30651896399331 -37.49936528171341, 249.8046875 -37.499" stroke="#999" stroke-width="1.3" fill="none" stroke-dasharray="0 0" style=""/></g><g class="divider" style=""><path d="M-249.8046875 -13.5 C-132.09272554657375 -13.499764392007348, -14.380763593147492 -13.499528784014698, 249.8046875 -13.499 M-249.8046875 -13.5 C-65.33791267298636 -13.499630777995655, 119.12886215402727 -13.49926155599131, 249.8046875 -13.499" stroke="#999" stroke-width="1.3" fill="none" stroke-dasharray="0 0" style=""/></g></g><g class="node default" id="my-svg-classId-Ranking-3" data-look="classic" transform="translate(829.224609375, 1027.25)"><g class="basic label-container outer-path"><path d="M-129.6796875 -72.75 L129.6796875 -72.75 L129.6796875 72.75 L-129.6796875 72.75" stroke="none" stroke-width="0" fill="#eee" style=""/><path d="M-129.6796875 -72.75 C-63.68480813670696 -72.75, 2.310071226586075 -72.75, 129.6796875 -72.75 M-129.6796875 -72.75 C-66.91667334269127 -72.75, -4.153659185382523 -72.75, 129.6796875 -72.75 M129.6796875 -72.75 C129.6796875 -24.658460444686412, 129.6796875 23.433079110627176, 129.6796875 72.75 M129.6796875 -72.75 C129.6796875 -24.02854453457821, 129.6796875 24.69291093084358, 129.6796875 72.75 M129.6796875 72.75 C31.13642492537062 72.75, -67.40683764925876 72.75, -129.6796875 72.75 M129.6796875 72.75 C55.6343355383203 72.75, -18.4110164233594 72.75, -129.6796875 72.75 M-129.6796875 72.75 C-129.6796875 35.775799097513584, -129.6796875 -1.198401804972832, -129.6796875 -72.75 M-129.6796875 72.75 C-129.6796875 27.96142919491824, -129.6796875 -16.827141610163523, -129.6796875 -72.75" stroke="#999" stroke-width="1.3" fill="none" stroke-dasharray="0 0" style=""/></g><g class="annotation-group text" transform="translate(-55.8125, -48.75)"><g class="label" style="" transform="translate(0,-11.25)"><foreignObject width="111.625" height="22.5"><div xmlns="http://www.w3.org/1999/xhtml" style="display: table-cell; white-space: nowrap; line-height: 1.5; max-width: 158px; text-align: center;"><span class="nodeLabel markdown-node-label" style=""><p>«implementado»</p></span></div></foreignObject></g></g><g class="label-group text" transform="translate(-28.9765625, -26.25)"><g class="label" style="font-weight: bolder" transform="translate(0,-11.25)"><foreignObject width="57.953125" height="22.5"><div xmlns="http://www.w3.org/1999/xhtml" style="display: table-cell; white-space: nowrap; line-height: 1.5; max-width: 105px; text-align: center;"><span class="nodeLabel markdown-node-label" style=""><p>Ranking</p></span></div></foreignObject></g></g><g class="members-group text" transform="translate(-117.6796875, 20.25)"/><g class="methods-group text" transform="translate(-117.6796875, 50.25)"><g class="label" style="" transform="translate(0,-11.25)"><foreignObject width="179.546875" height="22.5"><div xmlns="http://www.w3.org/1999/xhtml" style="display: table-cell; white-space: nowrap; line-height: 1.5; max-width: 231px; text-align: center;"><span class="nodeLabel markdown-node-label" style=""><p>+posicoes(periodo) : Select</p></span></div></foreignObject></g></g><g class="divider" style=""><path d="M-129.6796875 -3.75 C-64.82279648708072 -3.7497499342716534, 0.034094525838554546 -3.7494998685433067, 129.6796875 -3.749 M-129.6796875 -3.75 C-42.3724248848187 -3.7496633734075924, 44.9348377303626 -3.749326746815185, 129.6796875 -3.749" stroke="#999" stroke-width="1.3" fill="none" stroke-dasharray="0 0" style=""/></g><g class="divider" style=""><path d="M-129.6796875 20.25 C-51.9254677784531 20.250299793364793, 25.828751943093806 20.250599586729585, 129.6796875 20.251 M-129.6796875 20.25 C-59.88644223142896 20.250269098602157, 9.906803037142083 20.250538197204314, 129.6796875 20.251" stroke="#999" stroke-width="1.3" fill="none" stroke-dasharray="0 0" style=""/></g></g><g class="node default" id="my-svg-classId-ServicoPrevisao-4" data-look="classic" transform="translate(777.880859375, 445)"><g class="basic label-container outer-path"><path d="M-193.265625 -106.5 L193.265625 -106.5 L193.265625 106.5 L-193.265625 106.5" stroke="none" stroke-width="0" fill="#eee" style=""/><path d="M-193.265625 -106.5 C-113.90869141893435 -106.5, -34.551757837868706 -106.5, 193.265625 -106.5 M-193.265625 -106.5 C-84.70475852923788 -106.5, 23.856107941524243 -106.5, 193.265625 -106.5 M193.265625 -106.5 C193.265625 -22.272828226806155, 193.265625 61.95434354638769, 193.265625 106.5 M193.265625 -106.5 C193.265625 -48.42083633015844, 193.265625 9.658327339683126, 193.265625 106.5 M193.265625 106.5 C80.52361684379713 106.5, -32.21839131240574 106.5, -193.265625 106.5 M193.265625 106.5 C41.53263878780609 106.5, -110.20034742438781 106.5, -193.265625 106.5 M-193.265625 106.5 C-193.265625 51.91324367049894, -193.265625 -2.673512659002114, -193.265625 -106.5 M-193.265625 106.5 C-193.265625 45.47803991720146, -193.265625 -15.543920165597086, -193.265625 -106.5" stroke="#999" stroke-width="1.3" fill="none" stroke-dasharray="0 0" style=""/></g><g class="annotation-group text" transform="translate(-55.8125, -82.5)"><g class="label" style="" transform="translate(0,-11.25)"><foreignObject width="111.625" height="22.5"><div xmlns="http://www.w3.org/1999/xhtml" style="display: table-cell; white-space: nowrap; line-height: 1.5; max-width: 158px; text-align: center;"><span class="nodeLabel markdown-node-label" style=""><p>«implementado»</p></span></div></foreignObject></g></g><g class="label-group text" transform="translate(-55.6640625, -60)"><g class="label" style="font-weight: bolder" transform="translate(0,-11.25)"><foreignObject width="111.328125" height="22.5"><div xmlns="http://www.w3.org/1999/xhtml" style="display: table-cell; white-space: nowrap; line-height: 1.5; max-width: 154px; text-align: center;"><span class="nodeLabel markdown-node-label" style=""><p>ServicoPrevisao</p></span></div></foreignObject></g></g><g class="members-group text" transform="translate(-181.265625, -13.5)"/><g class="methods-group text" transform="translate(-181.265625, 16.5)"><g class="label" style="" transform="translate(0,-11.25)"><foreignObject width="146.796875" height="22.5"><div xmlns="http://www.w3.org/1999/xhtml" style="display: table-cell; white-space: nowrap; line-height: 1.5; max-width: 203px; text-align: center;"><span class="nodeLabel markdown-node-label" style=""><p>+historico() : Historico</p></span></div></foreignObject></g><g class="label" style="" transform="translate(0,11.25)"><foreignObject width="210.453125" height="22.5"><div xmlns="http://www.w3.org/1999/xhtml" style="display: table-cell; white-space: nowrap; line-height: 1.5; max-width: 267px; text-align: center;"><span class="nodeLabel markdown-node-label" style=""><p>+iniciar(usuario) : TreinoModelo</p></span></div></foreignObject></g><g class="label" style="" transform="translate(0,33.75)"><foreignObject width="114.296875" height="22.5"><div xmlns="http://www.w3.org/1999/xhtml" style="display: table-cell; white-space: nowrap; line-height: 1.5; max-width: 167px; text-align: center;"><span class="nodeLabel markdown-node-label" style=""><p>+executar(treino)</p></span></div></foreignObject></g><g class="label" style="" transform="translate(0,56.25)"><foreignObject width="306.71875" height="22.5"><div xmlns="http://www.w3.org/1999/xhtml" style="display: table-cell; white-space: nowrap; line-height: 1.5; max-width: 364px; text-align: center;"><span class="nodeLabel markdown-node-label" style=""><p>+previsao_do_parceiro(parceiro) : PrevisaoLida</p></span></div></foreignObject></g></g><g class="divider" style=""><path d="M-193.265625 -37.5 C-113.60482671522223 -37.49979390851766, -33.94402843044446 -37.49958781703531, 193.265625 -37.499 M-193.265625 -37.5 C-59.676298599831455 -37.49965438932454, 73.91302780033709 -37.49930877864907, 193.265625 -37.499" stroke="#999" stroke-width="1.3" fill="none" stroke-dasharray="0 0" style=""/></g><g class="divider" style=""><path d="M-193.265625 -13.5 C-101.64564225438917 -13.499762968756743, -10.025659508778347 -13.499525937513484, 193.265625 -13.499 M-193.265625 -13.5 C-40.4582028244985 -13.499604669940204, 112.349219351003 -13.499209339880409, 193.265625 -13.499" stroke="#999" stroke-width="1.3" fill="none" stroke-dasharray="0 0" style=""/></g></g><g class="node default" id="my-svg-classId-ServicoOtimizacao-5" data-look="classic" transform="translate(920.283203125, 125.75)"><g class="basic label-container outer-path"><path d="M-212.9296875 -117.75 L212.9296875 -117.75 L212.9296875 117.75 L-212.9296875 117.75" stroke="none" stroke-width="0" fill="#eee" style=""/><path d="M-212.9296875 -117.75 C-86.94803617604869 -117.75, 39.03361514790262 -117.75, 212.9296875 -117.75 M-212.9296875 -117.75 C-124.95075835442321 -117.75, -36.97182920884643 -117.75, 212.9296875 -117.75 M212.9296875 -117.75 C212.9296875 -49.74649032812124, 212.9296875 18.25701934375752, 212.9296875 117.75 M212.9296875 -117.75 C212.9296875 -35.42801139022576, 212.9296875 46.893977219548475, 212.9296875 117.75 M212.9296875 117.75 C61.3330096087075 117.75, -90.263668282585 117.75, -212.9296875 117.75 M212.9296875 117.75 C65.5220258089663 117.75, -81.88563588206739 117.75, -212.9296875 117.75 M-212.9296875 117.75 C-212.9296875 26.782190015943343, -212.9296875 -64.18561996811331, -212.9296875 -117.75 M-212.9296875 117.75 C-212.9296875 29.660266032222665, -212.9296875 -58.42946793555467, -212.9296875 -117.75" stroke="#999" stroke-width="1.3" fill="none" stroke-dasharray="0 0" style=""/></g><g class="annotation-group text" transform="translate(-55.8125, -93.75)"><g class="label" style="" transform="translate(0,-11.25)"><foreignObject width="111.625" height="22.5"><div xmlns="http://www.w3.org/1999/xhtml" style="display: table-cell; white-space: nowrap; line-height: 1.5; max-width: 158px; text-align: center;"><span class="nodeLabel markdown-node-label" style=""><p>«implementado»</p></span></div></foreignObject></g></g><g class="label-group text" transform="translate(-65.515625, -71.25)"><g class="label" style="font-weight: bolder" transform="translate(0,-11.25)"><foreignObject width="131.03125" height="22.5"><div xmlns="http://www.w3.org/1999/xhtml" style="display: table-cell; white-space: nowrap; line-height: 1.5; max-width: 173px; text-align: center;"><span class="nodeLabel markdown-node-label" style=""><p>ServicoOtimizacao</p></span></div></foreignObject></g></g><g class="members-group text" transform="translate(-200.9296875, -24.75)"/><g class="methods-group text" transform="translate(-200.9296875, 5.25)"><g class="label" style="" transform="translate(0,-11.25)"><foreignObject width="208.625" height="22.5"><div xmlns="http://www.w3.org/1999/xhtml" style="display: table-cell; white-space: nowrap; line-height: 1.5; max-width: 263px; text-align: center;"><span class="nodeLabel markdown-node-label" style=""><p>+elegiveis(periodo, versao) : list</p></span></div></foreignObject></g><g class="label" style="" transform="translate(0,11.25)"><foreignObject width="218.984375" height="22.5"><div xmlns="http://www.w3.org/1999/xhtml" style="display: table-cell; white-space: nowrap; line-height: 1.5; max-width: 272px; text-align: center;"><span class="nodeLabel markdown-node-label" style=""><p>+excluidos(periodo, versao) : dict</p></span></div></foreignObject></g><g class="label" style="" transform="translate(0,33.75)"><foreignObject width="213.3125" height="22.5"><div xmlns="http://www.w3.org/1999/xhtml" style="display: table-cell; white-space: nowrap; line-height: 1.5; max-width: 262px; text-align: center;"><span class="nodeLabel markdown-node-label" style=""><p>+montar(execucao) : Montagem</p></span></div></foreignObject></g><g class="label" style="" transform="translate(0,56.25)"><foreignObject width="336.34375" height="22.5"><div xmlns="http://www.w3.org/1999/xhtml" style="display: table-cell; white-space: nowrap; line-height: 1.5; max-width: 390px; text-align: center;"><span class="nodeLabel markdown-node-label" style=""><p>+iniciar(parametros, usuario) : ExecucaoOtimizador</p></span></div></foreignObject></g><g class="label" style="" transform="translate(0,78.75)"><foreignObject width="136.578125" height="22.5"><div xmlns="http://www.w3.org/1999/xhtml" style="display: table-cell; white-space: nowrap; line-height: 1.5; max-width: 189px; text-align: center;"><span class="nodeLabel markdown-node-label" style=""><p>+executar(execucao)</p></span></div></foreignObject></g></g><g class="divider" style=""><path d="M-212.9296875 -48.75 C-111.10447687450416 -48.74976089475399, -9.279266249008316 -48.74952178950798, 212.9296875 -48.749 M-212.9296875 -48.75 C-101.08148143493325 -48.74973735882634, 10.766724630133496 -48.749474717652674, 212.9296875 -48.749" stroke="#999" stroke-width="1.3" fill="none" stroke-dasharray="0 0" style=""/></g><g class="divider" style=""><path d="M-212.9296875 -24.75 C-86.14719369392526 -24.74970229023652, 40.63530011214948 -24.749404580473044, 212.9296875 -24.749 M-212.9296875 -24.75 C-106.56895106775373 -24.749750244464074, -0.2082146355074599 -24.74950048892815, 212.9296875 -24.749" stroke="#999" stroke-width="1.3" fill="none" stroke-dasharray="0 0" style=""/></g></g></g></g></g><defs><filter id="my-svg-drop-shadow" height="130%" width="130%"><feDropShadow dx="4" dy="4" stdDeviation="0" flood-opacity="0.06" flood-color="#000000"/></filter></defs><defs><filter id="my-svg-drop-shadow-small" height="150%" width="150%"><feDropShadow dx="2" dy="2" stdDeviation="0" flood-opacity="0.06" flood-color="#000000"/></filter></defs><linearGradient id="my-svg-gradient" gradientUnits="objectBoundingBox" x1="0%" y1="0%" x2="100%" y2="0%"><stop offset="0%" stop-color="hsl(0, 0%, 83.3333333333%)" stop-opacity="1"/><stop offset="100%" stop-color="hsl(0, 0%, 88.9215686275%)" stop-opacity="1"/></linearGradient></svg>