<svg id="my-svg" width="100%" xmlns="http://www.w3.org/2000/svg" xmlns:xlink="http://www.w3.org/1999/xlink" class="classDiagram" style="max-width: 903.184px; background-color: white;" viewBox="0 0 903.18359375 845" role="graphics-document document" aria-roledescription="classDiagram"><style>#my-svg{font-family:Segoe UI,Calibri,sans-serif;font-size:15px;fill:#000000;}@keyframes edge-animation-frame{from{stroke-dashoffset:0;}}@keyframes dash{to{stroke-dashoffset:0;}}#my-svg .edge-animation-slow{stroke-dasharray:9,5!important;stroke-dashoffset:900;animation:dash 50s linear infinite;stroke-linecap:round;}#my-svg .edge-animation-fast{stroke-dasharray:9,5!important;stroke-dashoffset:900;animation:dash 20s linear infinite;stroke-linecap:round;}#my-svg .error-icon{fill:#552222;}#my-svg .error-text{fill:#552222;stroke:#552222;}#my-svg .edge-thickness-normal{stroke-width:1px;}#my-svg .edge-thickness-thick{stroke-width:3.5px;}#my-svg .edge-pattern-solid{stroke-dasharray:0;}#my-svg .edge-thickness-invisible{stroke-width:0;fill:none;}#my-svg .edge-pattern-dashed{stroke-dasharray:3;}#my-svg .edge-pattern-dotted{stroke-dasharray:2;}#my-svg .marker{fill:#666;stroke:#666;}#my-svg .marker.cross{stroke:#666;}#my-svg svg{font-family:Segoe UI,Calibri,sans-serif;font-size:15px;}#my-svg p{margin:0;}#my-svg g.classGroup text{fill:#999;stroke:none;font-family:Segoe UI,Calibri,sans-serif;font-size:10px;}#my-svg g.classGroup text .title{font-weight:bolder;}#my-svg .cluster-label text{fill:#333;}#my-svg .cluster-label span{color:#333;}#my-svg .cluster-label span p{background-color:transparent;}#my-svg .cluster rect{fill:hsl(0, 0%, 98.9215686275%);stroke:#707070;stroke-width:1px;}#my-svg .cluster text{fill:#333;}#my-svg .cluster span{color:#333;}#my-svg .nodeLabel,#my-svg .edgeLabel{color:#111111;}#my-svg .noteLabel .nodeLabel,#my-svg .noteLabel .edgeLabel{color:#fff;}#my-svg .edgeLabel .label rect{fill:#eee;}#my-svg .label text{fill:#111111;}#my-svg .labelBkg{background:#eee;}#my-svg .edgeLabel .label span{background:#eee;}#my-svg .classTitle{font-weight:bolder;}#my-svg .node rect,#my-svg .node circle,#my-svg .node ellipse,#my-svg .node polygon,#my-svg .node path{fill:#eee;stroke:#999;stroke-width:1;}#my-svg .divider{stroke:#999;stroke-width:1;}#my-svg g.clickable{cursor:pointer;}#my-svg g.classGroup rect{fill:#eee;stroke:#999;}#my-svg g.classGroup line{stroke:#999;stroke-width:1;}#my-svg .classLabel .box{stroke:none;stroke-width:0;fill:#eee;opacity:0.5;}#my-svg .classLabel .label{fill:#999;font-size:10px;}#my-svg .relation{stroke:#666;stroke-width:1;fill:none;}#my-svg .dashed-line{stroke-dasharray:3;}#my-svg .dotted-line{stroke-dasharray:1 2;}#my-svg [id$="-compositionStart"],#my-svg .composition{fill:#666!important;stroke:#666!important;stroke-width:1;}#my-svg [id$="-compositionEnd"],#my-svg .composition{fill:#666!important;stroke:#666!important;stroke-width:1;}#my-svg [id$="-dependencyStart"],#my-svg .dependency{fill:#666!important;stroke:#666!important;stroke-width:1;}#my-svg [id$="-dependencyEnd"],#my-svg .dependency{fill:#666!important;stroke:#666!important;stroke-width:1;}#my-svg [id$="-extensionStart"],#my-svg .extension{fill:transparent!important;stroke:#666!important;stroke-width:1;}#my-svg [id$="-extensionEnd"],#my-svg .extension{fill:transparent!important;stroke:#666!important;stroke-width:1;}#my-svg [id$="-aggregationStart"],#my-svg .aggregation{fill:transparent!important;stroke:#666!important;stroke-width:1;}#my-svg [id$="-aggregationEnd"],#my-svg .aggregation{fill:transparent!important;stroke:#666!important;stroke-width:1;}#my-svg [id$="-lollipopStart"],#my-svg .lollipop{fill:#eee!important;stroke:#666!important;stroke-width:1;}#my-svg [id$="-lollipopEnd"],#my-svg .lollipop{fill:#eee!important;stroke:#666!important;stroke-width:1;}#my-svg .edgeTerminals{font-size:11px;line-height:initial;}#my-svg .classTitleText{text-anchor:middle;font-size:18px;fill:#000000;}#my-svg .edgeLabel[data-look="neo"]{background-color:white;text-align:center;}#my-svg .edgeLabel[data-look="neo"] p{background-color:white;}#my-svg .edgeLabel[data-look="neo"] rect{opacity:0.5;background-color:white;fill:white;}#my-svg .label-icon{display:inline-block;height:1em;overflow:visible;vertical-align:-0.125em;}#my-svg .node .label-icon path{fill:currentColor;stroke:revert;stroke-width:revert;}#my-svg .node .neo-node{stroke:#999;}#my-svg [data-look="neo"].node rect,#my-svg [data-look="neo"].cluster rect,#my-svg [data-look="neo"].node polygon{stroke:url(#my-svg-gradient);filter:drop-shadow( 1px 2px 2px rgba(185,185,185,1));}#my-svg [data-look="neo"].swimlane.cluster rect{filter:none;}#my-svg [data-look="neo"].node path{stroke:url(#my-svg-gradient);stroke-width:1px;}#my-svg [data-look="neo"].node .outer-path{filter:drop-shadow( 1px 2px 2px rgba(185,185,185,1));}#my-svg [data-look="neo"].node .neo-line path{stroke:#999;filter:none;}#my-svg [data-look="neo"].node circle{stroke:url(#my-svg-gradient);filter:drop-shadow( 1px 2px 2px rgba(185,185,185,1));}#my-svg [data-look="neo"].node circle .state-start{fill:#000000;}#my-svg [data-look="neo"].icon-shape .icon{fill:url(#my-svg-gradient);filter:drop-shadow( 1px 2px 2px rgba(185,185,185,1));}#my-svg [data-look="neo"].icon-shape .icon-neo path{stroke:url(#my-svg-gradient);filter:drop-shadow( 1px 2px 2px rgba(185,185,185,1));}#my-svg :root{--mermaid-font-family:"trebuchet ms",verdana,arial,sans-serif;}</style><g><defs><marker id="my-svg_classDiagram-aggregationStart" class="marker aggregation classDiagram" refX="18" refY="7" markerWidth="190" markerHeight="240" orient="auto" markerUnits="userSpaceOnUse"><path d="M 18,7 L9,13 L1,7 L9,1 Z"/></marker></defs><defs><marker id="my-svg_classDiagram-aggregationEnd" class="marker aggregation classDiagram" refX="1" refY="7" markerWidth="20" markerHeight="28" orient="auto" markerUnits="userSpaceOnUse"><path d="M 18,7 L9,13 L1,7 L9,1 Z"/></marker></defs><defs><marker id="my-svg_classDiagram-aggregationStart-margin" class="marker aggregation classDiagram" refX="15" refY="7" markerWidth="190" markerHeight="240" orient="auto" markerUnits="userSpaceOnUse"><path d="M 18,7 L9,13 L1,7 L9,1 Z" style="stroke-width: 2;"/></marker></defs><defs><marker id="my-svg_classDiagram-aggregationEnd-margin" class="marker aggregation classDiagram" refX="1" refY="7" markerWidth="20" markerHeight="28" orient="auto" markerUnits="userSpaceOnUse"><path d="M 18,7 L9,13 L1,7 L9,1 Z" style="stroke-width: 2;"/></marker></defs><defs><marker id="my-svg_classDiagram-extensionStart" class="marker extension classDiagram" refX="18" refY="7" markerWidth="20" markerHeight="28" orient="auto" markerUnits="userSpaceOnUse"><path d="M 1,7 L18,13 V 1 Z"/></marker></defs><defs><marker id="my-svg_classDiagram-extensionEnd" class="marker extension classDiagram" refX="1" refY="7" markerWidth="20" markerHeight="28" orient="auto" markerUnits="userSpaceOnUse"><path d="M 1,1 V 13 L18,7 Z"/></marker></defs><marker id="my-svg_classDiagram-extensionStart-margin" class="marker extension classDiagram" refX="18" refY="7" markerWidth="20" markerHeight="28" orient="auto" markerUnits="userSpaceOnUse" viewBox="0 0 20 14"><polygon points="10,7 18,13 18,1" style="stroke-width: 2; stroke-dasharray: 0;"/></marker><defs><marker id="my-svg_classDiagram-extensionEnd-margin" class="marker extension classDiagram" refX="9" refY="7" markerWidth="20" markerHeight="28" orient="auto" markerUnits="userSpaceOnUse" viewBox="0 0 20 14"><polygon points="10,1 10,13 18,7" style="stroke-width: 2; stroke-dasharray: 0;"/></marker></defs><defs><marker id="my-svg_classDiagram-compositionStart" class="marker composition classDiagram" refX="18" refY="7" markerWidth="190" markerHeight="240" orient="auto" markerUnits="userSpaceOnUse"><path d="M 18,7 L9,13 L1,7 L9,1 Z"/></marker></defs><defs><marker id="my-svg_classDiagram-compositionEnd" class="marker composition classDiagram" refX="1" refY="7" markerWidth="20" markerHeight="28" orient="auto" markerUnits="userSpaceOnUse"><path d="M 18,7 L9,13 L1,7 L9,1 Z"/></marker></defs><defs><marker id="my-svg_classDiagram-compositionStart-margin" class="marker composition classDiagram" refX="15" refY="7" markerWidth="190" markerHeight="240" orient="auto" markerUnits="userSpaceOnUse"><path viewBox="0 0 15 15" d="M 18,7 L9,13 L1,7 L9,1 Z" style="stroke-width: 0;"/></marker></defs><defs><marker id="my-svg_classDiagram-compositionEnd-margin" class="marker composition classDiagram" refX="3.5" refY="7" markerWidth="20" markerHeight="28" orient="auto" markerUnits="userSpaceOnUse"><path d="M 18,7 L9,13 L1,7 L9,1 Z" style="stroke-width: 0;"/></marker></defs><defs><marker id="my-svg_classDiagram-dependencyStart" class="marker dependency classDiagram" refX="6" refY="7" markerWidth="190" markerHeight="240" orient="auto" markerUnits="userSpaceOnUse"><path d="M 5,7 L9,13 L1,7 L9,1 Z"/></marker></defs><defs><marker id="my-svg_classDiagram-dependencyEnd" class="marker dependency classDiagram" refX="13" refY="7" markerWidth="20" markerHeight="28" orient="auto" markerUnits="userSpaceOnUse"><path d="M 18,7 L9,13 L14,7 L9,1 Z"/></marker></defs><defs><marker id="my-svg_classDiagram-dependencyStart-margin" class="marker dependency classDiagram" refX="4" refY="7" markerWidth="190" markerHeight="240" orient="auto" markerUnits="userSpaceOnUse"><path d="M 5,7 L9,13 L1,7 L9,1 Z" style="stroke-width: 0;"/></marker></defs><defs><marker id="my-svg_classDiagram-dependencyEnd-margin" class="marker dependency classDiagram" refX="16" refY="7" markerWidth="20" markerHeight="28" orient="auto" markerUnits="userSpaceOnUse"><path d="M 18,7 L9,13 L14,7 L9,1 Z" style="stroke-width: 0;"/></marker></defs><defs><marker id="my-svg_classDiagram-lollipopStart" class="marker lollipop classDiagram" refX="13" refY="7" markerWidth="190" markerHeight="240" orient="auto" markerUnits="userSpaceOnUse"><circle fill="transparent" cx="7" cy="7" r="6"/></marker></defs><defs><marker id="my-svg_classDiagram-lollipopEnd" class="marker lollipop classDiagram" refX="1" refY="7" markerWidth="190" markerHeight="240" orient="auto" markerUnits="userSpaceOnUse"><circle fill="transparent" cx="7" cy="7" r="6"/></marker></defs><defs><marker id="my-svg_classDiagram-lollipopStart-margin" class="marker lollipop classDiagram" refX="13" refY="7" markerWidth="190" markerHeight="240" orient="auto" markerUnits="userSpaceOnUse"><circle fill="transparent" cx="7" cy="7" r="6" stroke-width="2"/></marker></defs><defs><marker id="my-svg_classDiagram-lollipopEnd-margin" class="marker lollipop classDiagram" refX="1" refY="7" markerWidth="190" markerHeight="240" orient="auto" markerUnits="userSpaceOnUse"><circle fill="transparent" cx="7" cy="7" r="6" stroke-width="2"/></marker></defs><g class="root"><g class="clusters"/><g class="edgePaths"><path d="M191.116,221L188.046,227.042C184.976,233.083,178.836,245.167,175.765,256.25C172.695,267.333,172.695,277.417,172.695,282.458L172.695,287.5" id="my-svg-id_Dependencias_Sessoes_1" class="edge-thickness-normal edge-pattern-solid relation" style=";;;" data-edge="true" data-et="edge" data-id="id_Dependencias_Sessoes_1" data-points="W3sieCI6MTkxLjExNTkxNTA2MTI5NTk2LCJ5IjoyMjF9LHsieCI6MTcyLjY5NTMxMjUsInkiOjI1Ny4yNX0seyJ4IjoxNzIuNjk1MzEyNSwieSI6MjkzLjV9XQ==" data-look="classic" marker-end="url(#my-svg_classDiagram-dependencyEnd)"/><path d="M387.031,214.845L397.018,221.913C407.005,228.98,426.979,243.115,449,259.367C471.021,275.62,495.09,293.99,507.124,303.175L519.158,312.36" id="my-svg-id_Dependencias_Auditoria_2" class="edge-thickness-normal edge-pattern-solid relation" style=";;;" data-edge="true" data-et="edge" data-id="id_Dependencias_Auditoria_2" data-points="W3sieCI6Mzg3LjAzMTI1LCJ5IjoyMTQuODQ1MTc4MTU2NDY3ODV9LHsieCI6NDQ2Ljk1MzEyNSwieSI6MjU3LjI1fSx7IngiOjUyMy45Mjc0NTczMTE3MzM5LCJ5IjozMTZ9XQ==" data-look="classic" marker-end="url(#my-svg_classDiagram-dependencyEnd)"/><path d="M172.695,506.5L172.695,512.542C172.695,518.583,172.695,530.667,172.695,541.75C172.695,552.833,172.695,562.917,172.695,567.958L172.695,573" id="my-svg-id_Sessoes_Seguranca_3" class="edge-thickness-normal edge-pattern-solid relation" style=";;;" data-edge="true" data-et="edge" data-id="id_Sessoes_Seguranca_3" data-points="W3sieCI6MTcyLjY5NTMxMjUsInkiOjUwNi41fSx7IngiOjE3Mi42OTUzMTI1LCJ5Ijo1NDIuNzV9LHsieCI6MTcyLjY5NTMxMjUsInkiOjU3OX1d" data-look="classic" marker-end="url(#my-svg_classDiagram-dependencyEnd)"/><path d="M712.918,198.5L712.918,208.292C712.918,218.083,712.918,237.667,707.988,256.375C703.057,275.083,693.196,292.916,688.266,301.833L683.336,310.749" id="my-svg-id_Bloqueio_Auditoria_4" class="edge-thickness-normal edge-pattern-solid relation" style=";;;" data-edge="true" data-et="edge" data-id="id_Bloqueio_Auditoria_4" data-points="W3sieCI6NzEyLjkxNzk2ODc1LCJ5IjoxOTguNX0seyJ4Ijo3MTIuOTE3OTY4NzUsInkiOjI1Ny4yNX0seyJ4Ijo2ODAuNDMyMTYzOTY2NzI1LCJ5IjozMTZ9XQ==" data-look="classic" marker-end="url(#my-svg_classDiagram-dependencyEnd)"/></g><g class="edgeLabels"><g class="edgeLabel" transform="translate(172.6953125, 257.25)"><g class="label" data-id="id_Dependencias_Sessoes_1" transform="translate(-48.8828125, -11.25)"><foreignObject width="97.765625" height="22.5"><div xmlns="http://www.w3.org/1999/xhtml" class="labelBkg" style="display: table-cell; white-space: nowrap; line-height: 1.5; max-width: 200px; text-align: center;"><span class="edgeLabel"><p>valida a sessão</p></span></div></foreignObject></g></g><g class="edgeLabel" transform="translate(456.2634, 264.35599)"><g class="label" data-id="id_Dependencias_Auditoria_2" transform="translate(-76.1953125, -11.25)"><foreignObject width="152.390625" height="22.5"><div xmlns="http://www.w3.org/1999/xhtml" class="labelBkg" style="display: table-cell; white-space: nowrap; line-height: 1.5; max-width: 200px; text-align: center;"><span class="edgeLabel"><p>registra acesso negado</p></span></div></foreignObject></g></g><g class="edgeLabel" transform="translate(172.6953125, 542.75)"><g class="label" data-id="id_Sessoes_Seguranca_3" transform="translate(-75.03125, -11.25)"><foreignObject width="150.0625" height="22.5"><div xmlns="http://www.w3.org/1999/xhtml" class="labelBkg" style="display: table-cell; white-space: nowrap; line-height: 1.5; max-width: 200px; text-align: center;"><span class="edgeLabel"><p>gera e confere o token</p></span></div></foreignObject></g></g><g class="edgeLabel" transform="translate(712.91796875, 257.25)"><g class="label" data-id="id_Bloqueio_Auditoria_4" transform="translate(-61.671875, -11.25)"><foreignObject width="123.34375" height="22.5"><div xmlns="http://www.w3.org/1999/xhtml" class="labelBkg" style="display: table-cell; white-space: nowrap; line-height: 1.5; max-width: 200px; text-align: center;"><span class="edgeLabel"><p>registra a tentativa</p></span></div></foreignObject></g></g></g><g class="nodes"><g class="node default" id="my-svg-classId-Dependencias-0" data-look="classic" transform="translate(245.234375, 114.5)"><g class="basic label-container outer-path"><path d="M-141.796875 -106.5 L141.796875 -106.5 L141.796875 106.5 L-141.796875 106.5" stroke="none" stroke-width="0" fill="#eee" style=""/><path d="M-141.796875 -106.5 C-82.08729008371321 -106.5, -22.377705167426413 -106.5, 141.796875 -106.5 M-141.796875 -106.5 C-65.76822440007848 -106.5, 10.260426199843039 -106.5, 141.796875 -106.5 M141.796875 -106.5 C141.796875 -37.751544039860335, 141.796875 30.99691192027933, 141.796875 106.5 M141.796875 -106.5 C141.796875 -62.17644097660264, 141.796875 -17.852881953205284, 141.796875 106.5 M141.796875 106.5 C73.64106742590084 106.5, 5.485259851801686 106.5, -141.796875 106.5 M141.796875 106.5 C37.225053188873844 106.5, -67.34676862225231 106.5, -141.796875 106.5 M-141.796875 106.5 C-141.796875 49.95375515742382, -141.796875 -6.5924896851523584, -141.796875 -106.5 M-141.796875 106.5 C-141.796875 49.63337871413459, -141.796875 -7.233242571730827, -141.796875 -106.5" stroke="#999" stroke-width="1.3" fill="none" stroke-dasharray="0 0" style=""/></g><g class="annotation-group text" transform="translate(-55.8125, -82.5)"><g class="label" style="" transform="translate(0,-11.25)"><foreignObject width="111.625" height="22.5"><div xmlns="http://www.w3.org/1999/xhtml" style="display: table-cell; white-space: nowrap; line-height: 1.5; max-width: 158px; text-align: center;"><span class="nodeLabel markdown-node-label" style=""><p>«implementado»</p></span></div></foreignObject></g></g><g class="label-group text" transform="translate(-49.140625, -60)"><g class="label" style="font-weight: bolder" transform="translate(0,-11.25)"><foreignObject width="98.28125" height="22.5"><div xmlns="http://www.w3.org/1999/xhtml" style="display: table-cell; white-space: nowrap; line-height: 1.5; max-width: 141px; text-align: center;"><span class="nodeLabel markdown-node-label" style=""><p>Dependencias</p></span></div></foreignObject></g></g><g class="members-group text" transform="translate(-129.796875, -13.5)"/><g class="methods-group text" transform="translate(-129.796875, 16.5)"><g class="label" style="" transform="translate(0,-11.25)"><foreignObject width="120.90625" height="22.5"><div xmlns="http://www.w3.org/1999/xhtml" style="display: table-cell; white-space: nowrap; line-height: 1.5; max-width: 176px; text-align: center;"><span class="nodeLabel markdown-node-label" style=""><p>+banco() : Session</p></span></div></foreignObject></g><g class="label" style="" transform="translate(0,11.25)"><foreignObject width="203.78125" height="22.5"><div xmlns="http://www.w3.org/1999/xhtml" style="display: table-cell; white-space: nowrap; line-height: 1.5; max-width: 257px; text-align: center;"><span class="nodeLabel markdown-node-label" style=""><p>+sessao_atual() : SessaoAcesso</p></span></div></foreignObject></g><g class="label" style="" transform="translate(0,33.75)"><foreignObject width="168.515625" height="22.5"><div xmlns="http://www.w3.org/1999/xhtml" style="display: table-cell; white-space: nowrap; line-height: 1.5; max-width: 224px; text-align: center;"><span class="nodeLabel markdown-node-label" style=""><p>+usuario_atual() : Usuario</p></span></div></foreignObject></g><g class="label" style="" transform="translate(0,56.25)"><foreignObject width="155.515625" height="22.5"><div xmlns="http://www.w3.org/1999/xhtml" style="display: table-cell; white-space: nowrap; line-height: 1.5; max-width: 215px; text-align: center;"><span class="nodeLabel markdown-node-label" style=""><p>+exigir(perfis) : Callable</p></span></div></foreignObject></g></g><g class="divider" style=""><path d="M-141.796875 -37.5 C-63.21302390744421 -37.499722899919014, 15.37082718511158 -37.49944579983803, 141.796875 -37.499 M-141.796875 -37.5 C-39.20942347066156 -37.49963825912408, 63.378028058676875 -37.499276518248166, 141.796875 -37.499" stroke="#999" stroke-width="1.3" fill="none" stroke-dasharray="0 0" style=""/></g><g class="divider" style=""><path d="M-141.796875 -13.5 C-38.31706496869073 -13.499635112515593, 65.16274506261854 -13.499270225031184, 141.796875 -13.499 M-141.796875 -13.5 C-47.16862437597261 -13.499666324625899, 47.459626248054775 -13.499332649251798, 141.796875 -13.499" stroke="#999" stroke-width="1.3" fill="none" stroke-dasharray="0 0" style=""/></g></g><g class="node default" id="my-svg-classId-Sessoes-1" data-look="classic" transform="translate(172.6953125, 400)"><g class="basic label-container outer-path"><path d="M-164.6953125 -106.5 L164.6953125 -106.5 L164.6953125 106.5 L-164.6953125 106.5" stroke="none" stroke-width="0" fill="#eee" style=""/><path d="M-164.6953125 -106.5 C-68.0393175890257 -106.5, 28.6166773219486 -106.5, 164.6953125 -106.5 M-164.6953125 -106.5 C-38.59370905340727 -106.5, 87.50789439318547 -106.5, 164.6953125 -106.5 M164.6953125 -106.5 C164.6953125 -62.4648824146236, 164.6953125 -18.429764829247205, 164.6953125 106.5 M164.6953125 -106.5 C164.6953125 -42.05390454442164, 164.6953125 22.392190911156717, 164.6953125 106.5 M164.6953125 106.5 C93.09490375059319 106.5, 21.49449500118638 106.5, -164.6953125 106.5 M164.6953125 106.5 C90.67495310423512 106.5, 16.65459370847023 106.5, -164.6953125 106.5 M-164.6953125 106.5 C-164.6953125 49.92863439735206, -164.6953125 -6.642731205295874, -164.6953125 -106.5 M-164.6953125 106.5 C-164.6953125 55.502797156222876, -164.6953125 4.505594312445751, -164.6953125 -106.5" stroke="#999" stroke-width="1.3" fill="none" stroke-dasharray="0 0" style=""/></g><g class="annotation-group text" transform="translate(-55.8125, -82.5)"><g class="label" style="" transform="translate(0,-11.25)"><foreignObject width="111.625" height="22.5"><div xmlns="http://www.w3.org/1999/xhtml" style="display: table-cell; white-space: nowrap; line-height: 1.5; max-width: 158px; text-align: center;"><span class="nodeLabel markdown-node-label" style=""><p>«implementado»</p></span></div></foreignObject></g></g><g class="label-group text" transform="translate(-26.8046875, -60)"><g class="label" style="font-weight: bolder" transform="translate(0,-11.25)"><foreignObject width="53.609375" height="22.5"><div xmlns="http://www.w3.org/1999/xhtml" style="display: table-cell; white-space: nowrap; line-height: 1.5; max-width: 100px; text-align: center;"><span class="nodeLabel markdown-node-label" style=""><p>Sessoes</p></span></div></foreignObject></g></g><g class="members-group text" transform="translate(-152.6953125, -13.5)"/><g class="methods-group text" transform="translate(-152.6953125, 16.5)"><g class="label" style="" transform="translate(0,-11.25)"><foreignObject width="249.578125" height="22.5"><div xmlns="http://www.w3.org/1999/xhtml" style="display: table-cell; white-space: nowrap; line-height: 1.5; max-width: 299px; text-align: center;"><span class="nodeLabel markdown-node-label" style=""><p>+criar(usuario, origem, agente) : tuple</p></span></div></foreignObject></g><g class="label" style="" transform="translate(0,11.25)"><foreignObject width="203.140625" height="22.5"><div xmlns="http://www.w3.org/1999/xhtml" style="display: table-cell; white-space: nowrap; line-height: 1.5; max-width: 257px; text-align: center;"><span class="nodeLabel markdown-node-label" style=""><p>+validar(token) : SessaoAcesso</p></span></div></foreignObject></g><g class="label" style="" transform="translate(0,33.75)"><foreignObject width="167.15625" height="22.5"><div xmlns="http://www.w3.org/1999/xhtml" style="display: table-cell; white-space: nowrap; line-height: 1.5; max-width: 218px; text-align: center;"><span class="nodeLabel markdown-node-label" style=""><p>+revogar(sessao, motivo)</p></span></div></foreignObject></g><g class="label" style="" transform="translate(0,56.25)"><foreignObject width="243.625" height="22.5"><div xmlns="http://www.w3.org/1999/xhtml" style="display: table-cell; white-space: nowrap; line-height: 1.5; max-width: 299px; text-align: center;"><span class="nodeLabel markdown-node-label" style=""><p>+revogar_do_usuario(id, motivo) : int</p></span></div></foreignObject></g></g><g class="divider" style=""><path d="M-164.6953125 -37.5 C-74.5218292457025 -37.49972624150048, 15.651654008594988 -37.49945248300097, 164.6953125 -37.499 M-164.6953125 -37.5 C-74.87443082139357 -37.49972731196682, 14.946450857212852 -37.499454623933644, 164.6953125 -37.499" stroke="#999" stroke-width="1.3" fill="none" stroke-dasharray="0 0" style=""/></g><g class="divider" style=""><path d="M-164.6953125 -13.5 C-52.10981026926136 -13.499658200647845, 60.47569196147728 -13.499316401295692, 164.6953125 -13.499 M-164.6953125 -13.5 C-44.950427175226466 -13.499636465411472, 74.79445814954707 -13.499272930822942, 164.6953125 -13.499" stroke="#999" stroke-width="1.3" fill="none" stroke-dasharray="0 0" style=""/></g></g><g class="node default" id="my-svg-classId-Seguranca-2" data-look="classic" transform="translate(172.6953125, 708)"><g class="basic label-container outer-path"><path d="M-156.8203125 -129 L156.8203125 -129 L156.8203125 129 L-156.8203125 129" stroke="none" stroke-width="0" fill="#eee" style=""/><path d="M-156.8203125 -129 C-40.91758695028277 -129, 74.98513859943446 -129, 156.8203125 -129 M-156.8203125 -129 C-63.04720835581551 -129, 30.725895788368973 -129, 156.8203125 -129 M156.8203125 -129 C156.8203125 -59.18879447087677, 156.8203125 10.622411058246456, 156.8203125 129 M156.8203125 -129 C156.8203125 -35.474653888179404, 156.8203125 58.05069222364119, 156.8203125 129 M156.8203125 129 C42.00268303490931 129, -72.81494643018138 129, -156.8203125 129 M156.8203125 129 C69.92323076590377 129, -16.973850968192465 129, -156.8203125 129 M-156.8203125 129 C-156.8203125 64.7554855564827, -156.8203125 0.5109711129653931, -156.8203125 -129 M-156.8203125 129 C-156.8203125 54.42520770624999, -156.8203125 -20.149584587500016, -156.8203125 -129" stroke="#999" stroke-width="1.3" fill="none" stroke-dasharray="0 0" style=""/></g><g class="annotation-group text" transform="translate(-55.8125, -105)"><g class="label" style="" transform="translate(0,-11.25)"><foreignObject width="111.625" height="22.5"><div xmlns="http://www.w3.org/1999/xhtml" style="display: table-cell; white-space: nowrap; line-height: 1.5; max-width: 158px; text-align: center;"><span class="nodeLabel markdown-node-label" style=""><p>«implementado»</p></span></div></foreignObject></g></g><g class="label-group text" transform="translate(-36.640625, -82.5)"><g class="label" style="font-weight: bolder" transform="translate(0,-11.25)"><foreignObject width="73.28125" height="22.5"><div xmlns="http://www.w3.org/1999/xhtml" style="display: table-cell; white-space: nowrap; line-height: 1.5; max-width: 118px; text-align: center;"><span class="nodeLabel markdown-node-label" style=""><p>Seguranca</p></span></div></foreignObject></g></g><g class="members-group text" transform="translate(-144.8203125, -36)"/><g class="methods-group text" transform="translate(-144.8203125, -6)"><g class="label" style="" transform="translate(0,-11.25)"><foreignObject width="158.203125" height="22.5"><div xmlns="http://www.w3.org/1999/xhtml" style="display: table-cell; white-space: nowrap; line-height: 1.5; max-width: 211px; text-align: center;"><span class="nodeLabel markdown-node-label" style=""><p>+gerar_hash(senha) : str</p></span></div></foreignObject></g><g class="label" style="" transform="translate(0,11.25)"><foreignObject width="233.828125" height="22.5"><div xmlns="http://www.w3.org/1999/xhtml" style="display: table-cell; white-space: nowrap; line-height: 1.5; max-width: 285px; text-align: center;"><span class="nodeLabel markdown-node-label" style=""><p>+conferir_senha(senha, hash) : bool</p></span></div></foreignObject></g><g class="label" style="" transform="translate(0,33.75)"><foreignObject width="215.375" height="22.5"><div xmlns="http://www.w3.org/1999/xhtml" style="display: table-cell; white-space: nowrap; line-height: 1.5; max-width: 267px; text-align: center;"><span class="nodeLabel markdown-node-label" style=""><p>+gastar_tempo_de_conferencia()</p></span></div></foreignObject></g><g class="label" style="" transform="translate(0,56.25)"><foreignObject width="126.078125" height="22.5"><div xmlns="http://www.w3.org/1999/xhtml" style="display: table-cell; white-space: nowrap; line-height: 1.5; max-width: 181px; text-align: center;"><span class="nodeLabel markdown-node-label" style=""><p>+gerar_token() : str</p></span></div></foreignObject></g><g class="label" style="" transform="translate(0,78.75)"><foreignObject width="159.96875" height="22.5"><div xmlns="http://www.w3.org/1999/xhtml" style="display: table-cell; white-space: nowrap; line-height: 1.5; max-width: 213px; text-align: center;"><span class="nodeLabel markdown-node-label" style=""><p>+hash_token(token) : str</p></span></div></foreignObject></g><g class="label" style="" transform="translate(0,101.25)"><foreignObject width="182.125" height="22.5"><div xmlns="http://www.w3.org/1999/xhtml" style="display: table-cell; white-space: nowrap; line-height: 1.5; max-width: 238px; text-align: center;"><span class="nodeLabel markdown-node-label" style=""><p>+validar_forca(senha, login)</p></span></div></foreignObject></g></g><g class="divider" style=""><path d="M-156.8203125 -60 C-39.31837090169107 -59.99962536121844, 78.18357069661786 -59.99925072243688, 156.8203125 -59.999 M-156.8203125 -60 C-66.8664460919316 -59.99971319446769, 23.087420316136786 -59.999426388935376, 156.8203125 -59.999" stroke="#999" stroke-width="1.3" fill="none" stroke-dasharray="0 0" style=""/></g><g class="divider" style=""><path d="M-156.8203125 -36 C-50.421623608840534 -35.999660762412745, 55.97706528231893 -35.99932152482548, 156.8203125 -35.999 M-156.8203125 -36 C-73.63956068357597 -35.999734789612106, 9.54119113284807 -35.99946957922421, 156.8203125 -35.999" stroke="#999" stroke-width="1.3" fill="none" stroke-dasharray="0 0" style=""/></g></g><g class="node default" id="my-svg-classId-Bloqueio-3" data-look="classic" transform="translate(712.91796875, 114.5)"><g class="basic label-container outer-path"><path d="M-182.265625 -84 L182.265625 -84 L182.265625 84 L-182.265625 84" stroke="none" stroke-width="0" fill="#eee" style=""/><path d="M-182.265625 -84 C-103.35713035323015 -84, -24.448635706460294 -84, 182.265625 -84 M-182.265625 -84 C-74.630507705617 -84, 33.00460958876599 -84, 182.265625 -84 M182.265625 -84 C182.265625 -18.75299756764896, 182.265625 46.49400486470208, 182.265625 84 M182.265625 -84 C182.265625 -31.462920565530503, 182.265625 21.074158868938994, 182.265625 84 M182.265625 84 C67.31619356668487 84, -47.63323786663025 84, -182.265625 84 M182.265625 84 C108.42137852678049 84, 34.57713205356097 84, -182.265625 84 M-182.265625 84 C-182.265625 46.29445965104396, -182.265625 8.588919302087916, -182.265625 -84 M-182.265625 84 C-182.265625 16.894673649650557, -182.265625 -50.21065270069889, -182.265625 -84" stroke="#999" stroke-width="1.3" fill="none" stroke-dasharray="0 0" style=""/></g><g class="annotation-group text" transform="translate(-55.8125, -60)"><g class="label" style="" transform="translate(0,-11.25)"><foreignObject width="111.625" height="22.5"><div xmlns="http://www.w3.org/1999/xhtml" style="display: table-cell; white-space: nowrap; line-height: 1.5; max-width: 158px; text-align: center;"><span class="nodeLabel markdown-node-label" style=""><p>«implementado»</p></span></div></foreignObject></g></g><g class="label-group text" transform="translate(-31.484375, -37.5)"><g class="label" style="font-weight: bolder" transform="translate(0,-11.25)"><foreignObject width="62.96875" height="22.5"><div xmlns="http://www.w3.org/1999/xhtml" style="display: table-cell; white-space: nowrap; line-height: 1.5; max-width: 110px; text-align: center;"><span class="nodeLabel markdown-node-label" style=""><p>Bloqueio</p></span></div></foreignObject></g></g><g class="members-group text" transform="translate(-170.265625, 9)"/><g class="methods-group text" transform="translate(-170.265625, 39)"><g class="label" style="" transform="translate(0,-11.25)"><foreignObject width="284.71875" height="22.5"><div xmlns="http://www.w3.org/1999/xhtml" style="display: table-cell; white-space: nowrap; line-height: 1.5; max-width: 335px; text-align: center;"><span class="nodeLabel markdown-node-label" style=""><p>+registrar_tentativa(login, origem, sucesso)</p></span></div></foreignObject></g><g class="label" style="" transform="translate(0,11.25)"><foreignObject width="211.703125" height="22.5"><div xmlns="http://www.w3.org/1999/xhtml" style="display: table-cell; white-space: nowrap; line-height: 1.5; max-width: 261px; text-align: center;"><span class="nodeLabel markdown-node-label" style=""><p>+esta_bloqueada(origem) : bool</p></span></div></foreignObject></g></g><g class="divider" style=""><path d="M-182.265625 -15 C-99.90340029784565 -14.999774059906517, -17.5411755956913 -14.999548119813037, 182.265625 -14.999 M-182.265625 -15 C-88.70669130436653 -14.99974334454537, 4.852242391266941 -14.99948668909074, 182.265625 -14.999" stroke="#999" stroke-width="1.3" fill="none" stroke-dasharray="0 0" style=""/></g><g class="divider" style=""><path d="M-182.265625 9 C-53.77385995717961 9.000352484910533, 74.71790508564078 9.000704969821067, 182.265625 9.001 M-182.265625 9 C-69.53761205294418 9.000309241012799, 43.19040089411163 9.0006184820256, 182.265625 9.001" stroke="#999" stroke-width="1.3" fill="none" stroke-dasharray="0 0" style=""/></g></g><g class="node default" id="my-svg-classId-Auditoria-4" data-look="classic" transform="translate(633.984375, 400)"><g class="basic label-container outer-path"><path d="M-188.7421875 -84 L188.7421875 -84 L188.7421875 84 L-188.7421875 84" stroke="none" stroke-width="0" fill="#eee" style=""/><path d="M-188.7421875 -84 C-88.69063615124956 -84, 11.360915197500873 -84, 188.7421875 -84 M-188.7421875 -84 C-89.37359049724657 -84, 9.995006505506865 -84, 188.7421875 -84 M188.7421875 -84 C188.7421875 -26.232274203134793, 188.7421875 31.535451593730414, 188.7421875 84 M188.7421875 -84 C188.7421875 -26.60396617876186, 188.7421875 30.792067642476283, 188.7421875 84 M188.7421875 84 C97.18962758157639 84, 5.637067663152777 84, -188.7421875 84 M188.7421875 84 C98.56189259488582 84, 8.381597689771638 84, -188.7421875 84 M-188.7421875 84 C-188.7421875 34.39313542293469, -188.7421875 -15.213729154130618, -188.7421875 -84 M-188.7421875 84 C-188.7421875 31.93043195455791, -188.7421875 -20.13913609088418, -188.7421875 -84" stroke="#999" stroke-width="1.3" fill="none" stroke-dasharray="0 0" style=""/></g><g class="annotation-group text" transform="translate(-55.8125, -60)"><g class="label" style="" transform="translate(0,-11.25)"><foreignObject width="111.625" height="22.5"><div xmlns="http://www.w3.org/1999/xhtml" style="display: table-cell; white-space: nowrap; line-height: 1.5; max-width: 158px; text-align: center;"><span class="nodeLabel markdown-node-label" style=""><p>«implementado»</p></span></div></foreignObject></g></g><g class="label-group text" transform="translate(-33.2421875, -37.5)"><g class="label" style="font-weight: bolder" transform="translate(0,-11.25)"><foreignObject width="66.484375" height="22.5"><div xmlns="http://www.w3.org/1999/xhtml" style="display: table-cell; white-space: nowrap; line-height: 1.5; max-width: 113px; text-align: center;"><span class="nodeLabel markdown-node-label" style=""><p>Auditoria</p></span></div></foreignObject></g></g><g class="members-group text" transform="translate(-176.7421875, 9)"/><g class="methods-group text" transform="translate(-176.7421875, 39)"><g class="label" style="" transform="translate(0,-11.25)"><foreignObject width="297.671875" height="22.5"><div xmlns="http://www.w3.org/1999/xhtml" style="display: table-cell; white-space: nowrap; line-height: 1.5; max-width: 347px; text-align: center;"><span class="nodeLabel markdown-node-label" style=""><p>+registrar(acao, usuario_id, detalhes, origem)</p></span></div></foreignObject></g><g class="label" style="" transform="translate(0,11.25)"><foreignObject width="167.265625" height="22.5"><div xmlns="http://www.w3.org/1999/xhtml" style="display: table-cell; white-space: nowrap; line-height: 1.5; max-width: 219px; text-align: center;"><span class="nodeLabel markdown-node-label" style=""><p>+origem_de(request) : str</p></span></div></foreignObject></g></g><g class="divider" style=""><path d="M-188.7421875 -15 C-86.63382179208692 -14.99972950306696, 15.47454391582616 -14.999459006133922, 188.7421875 -14.999 M-188.7421875 -15 C-97.81026988869976 -14.99975911077747, -6.878352277399529 -14.999518221554938, 188.7421875 -14.999" stroke="#999" stroke-width="1.3" fill="none" stroke-dasharray="0 0" style=""/></g><g class="divider" style=""><path d="M-188.7421875 9 C-64.0917674048978 9.000330213456106, 60.55865269020441 9.000660426912214, 188.7421875 9.001 M-188.7421875 9 C-47.80163119248763 9.000373367921009, 93.13892511502473 9.00074673584202, 188.7421875 9.001" stroke="#999" stroke-width="1.3" fill="none" stroke-dasharray="0 0" style=""/></g></g></g></g></g><defs><filter id="my-svg-drop-shadow" height="130%" width="130%"><feDropShadow dx="4" dy="4" stdDeviation="0" flood-opacity="0.06" flood-color="#000000"/></filter></defs><defs><filter id="my-svg-drop-shadow-small" height="150%" width="150%"><feDropShadow dx="2" dy="2" stdDeviation="0" flood-opacity="0.06" flood-color="#000000"/></filter></defs><linearGradient id="my-svg-gradient" gradientUnits="objectBoundingBox" x1="0%" y1="0%" x2="100%" y2="0%"><stop offset="0%" stop-color="hsl(0, 0%, 83.3333333333%)" stop-opacity="1"/><stop offset="100%" stop-color="hsl(0, 0%, 88.9215686275%)" stop-opacity="1"/></linearGradient></svg>